<svg width="14" height="16" viewBox="0 0 14 16" fill="none" xmlns="http://www.w3.org/2000/svg">
<path fill-rule="evenodd" clip-rule="evenodd" d="M13 6C13.5523 6 14 6.44772 14 7C14 10.5261 11.3928 13.4433 8.00101 13.929L8 15C8 15.5523 7.55228 16 7 16C6.44772 16 6 15.5523 6 15L5.99999 13.9291C2.6077 13.4439 0 10.5265 0 7C0 6.44772 0.447715 6 1 6C1.55228 6 2 6.44772 2 7C2 9.76142 4.23858 12 7 12C9.76142 12 12 9.76142 12 7C12 6.44772 12.4477 6 13 6ZM7 0C8.65685 0 10 1.34315 10 3V7C10 8.65685 8.65685 10 7 10C5.34315 10 4 8.65685 4 7V3C4 1.34315 5.34315 0 7 0ZM7 2C6.44772 2 6 2.44772 6 3V7C6 7.55228 6.44772 8 7 8C7.55228 8 8 7.55228 8 7V3C8 2.44772 7.55228 2 7 2Z" fill="black"/>
</svg>
