<svg width="18" height="20" viewBox="0 0 18 20" fill="none" xmlns="http://www.w3.org/2000/svg">
<path fill-rule="evenodd" clip-rule="evenodd" d="M1.99995 18C1.29569 18 0.824684 17.2979 1.05973 16.6586L1.10552 16.5528L2.26094 14.242C2.69833 13.3672 2.94701 12.4115 2.99238 11.4369L2.99995 11.1115V8C2.99995 5.02694 5.16233 2.55893 8.00014 2.08293L7.99995 1C7.99995 0.447715 8.44766 0 8.99995 0C9.55223 0 9.99995 0.447715 9.99995 1L10.0008 2.08309C12.7593 2.54627 14.8793 4.89172 14.995 7.75347L14.9999 8V11.1115C14.9999 12.0895 15.2049 13.0555 15.6002 13.9474L15.739 14.242L16.8944 16.5528C17.2093 17.1827 16.792 17.918 16.1151 17.9936L15.9999 18H10.9999C10.9999 19.1046 10.1045 20 8.99995 20C7.89538 20 6.99995 19.1046 6.99995 18H1.99995ZM8.99995 4C6.85775 4 5.10887 5.68397 5.00484 7.80036L4.99995 8V11.1115C4.99995 12.3922 4.7266 13.6569 4.19975 14.8213L4.04979 15.1364L3.61798 16H14.3819L13.9501 15.1364C13.3773 13.9908 13.0562 12.7374 13.0067 11.4603L12.9999 11.1115V8C12.9999 5.79086 11.2091 4 8.99995 4Z" fill="black"/>
</svg>
