<svg width="28" height="28" viewBox="0 0 28 28" fill="none" xmlns="http://www.w3.org/2000/svg">
<path fill-rule="evenodd" clip-rule="evenodd" d="M19.3334 0.666672C19.687 0.666672 20.0262 0.807148 20.2762 1.0572L26.9429 7.72386C27.1929 7.97391 27.3334 8.31305 27.3334 8.66667V18C27.3334 18.3119 27.2241 18.614 27.0244 18.8536L20.3577 26.8536C20.1044 27.1576 19.7291 27.3333 19.3334 27.3333H8.66675C8.31313 27.3333 7.97399 27.1929 7.72394 26.9428L1.05727 20.2761C0.807224 20.0261 0.666748 19.687 0.666748 19.3333V8.66667C0.666748 8.31305 0.807224 7.97391 1.05727 7.72386L7.72394 1.0572C7.97399 0.807148 8.31313 0.666672 8.66675 0.666672H19.3334ZM18.7811 3.33334H9.21903L3.33341 9.21896V18.7811L9.21903 24.6667H18.7089L24.6667 17.5173V9.21896L18.7811 3.33334ZM14.0001 19.3333C14.7365 19.3333 15.3334 19.9303 15.3334 20.6667C15.3334 21.4031 14.7365 22 14.0001 22C13.2637 22 12.6667 21.4031 12.6667 20.6667C12.6667 19.9303 13.2637 19.3333 14.0001 19.3333ZM14.0001 6C14.7365 6 15.3334 6.59696 15.3334 7.33334V15.3333C15.3334 16.0697 14.7365 16.6667 14.0001 16.6667C13.2637 16.6667 12.6667 16.0697 12.6667 15.3333V7.33334C12.6667 6.59696 13.2637 6 14.0001 6Z" fill="white"/>
</svg>
