<svg width="24" height="24" viewBox="0 0 24 24" fill="none" xmlns="http://www.w3.org/2000/svg">
<path fill-rule="evenodd" clip-rule="evenodd" d="M8.99991 14.2912L2.15625 3.53688C1.73261 2.87115 2.21082 2 2.99991 2H20.9999C21.789 2 22.2672 2.87115 21.8436 3.53688L14.9999 14.2912V19C14.9999 19.3788 14.7859 19.725 14.4471 19.8944L10.4471 21.8944C9.78223 22.2269 8.99991 21.7434 8.99991 21V14.2912ZM4.82159 4L10.8436 13.4631C10.9457 13.6236 10.9999 13.8098 10.9999 14V19.382L12.9999 18.382V14C12.9999 13.8098 13.0541 13.6236 13.1563 13.4631L19.1782 4H4.82159Z" fill="black"/>
</svg>
