<svg width="32" height="33" viewBox="0 0 32 33" fill="none" xmlns="http://www.w3.org/2000/svg">

<g filter="url(#filter0_f)">
<circle cx="18" cy="20" r="5.5" fill="#A1B9CD"/>
</g>
<defs>
<filter id="filter0_f" x="0.848145" y="0.487518" width="49.667" height="49.667" filterUnits="userSpaceOnUse" color-interpolation-filters="sRGB">
<feFlood flood-opacity="0" result="BackgroundImageFix"/>
<feBlend mode="normal" in="SourceGraphic" in2="BackgroundImageFix" result="shape"/>
<feGaussianBlur stdDeviation="5.5" result="effect1_foregroundBlur"/>
</filter>
</defs>

<path fill-rule="evenodd" clip-rule="evenodd" d="M29.7439 22.4883C28.9541 23.243 27.3922 23.9743 26.0319 24.2262C24.0568 24.5916 20.878 24.3119 16.2059 23.3612C10.9257 22.2868 9.19491 22.1079 8.66256 22.582C6.57431 24.4414 11.0734 29.2328 15.8325 30.2179C18.6429 30.7995 22.9649 30.816 25.5001 29.7008C27.0001 29.2008 27.0001 28.5008 24.4308 28.6546C22.11 29.1539 18.1002 29.2013 16.6192 28.7467C15.5198 28.4093 14.2558 27.5287 13.8803 26.8382C13.6676 26.4474 13.678 26.4464 16.8413 26.5892C22.7019 26.8535 24.3196 26.7122 26.304 25.7625C27.3293 25.2716 30.6148 23.2088 31.0001 22.5008C31.0001 22.5008 31.2465 22.1094 31.0001 22.0008C30.7536 21.8921 30.1543 22.096 29.7439 22.4883Z" fill="#4435A9"/>
<path fill-rule="evenodd" clip-rule="evenodd" d="M16.8847 1.00379C18.0933 1.35072 20.0681 2.14699 20.7646 2.56827C24.021 4.53757 26.8929 8.12131 27.2686 10.6846C27.4248 11.7502 27.115 13.2387 26.5943 13.9237C25.869 14.878 22.6684 14.6807 17.4106 13.3576C13.1162 12.2769 11.0903 11.9455 8.63995 11.9228C5.50597 11.8938 3.19046 12.6088 1.91514 13.999C-0.51386 16.6467 1.26914 23.8721 5.35854 27.9539C7.95185 30.5424 11.8921 32.8543 15.2718 32.8133C15.6217 32.809 15.7455 32.9981 15.7656 32.8133C15.7955 32.5391 15.4777 31.8175 14.3628 31.4623C10.6449 30.2783 6.93144 27.3152 5.59618 24.4674C5.13118 23.4759 5.02157 22.9801 5.01362 21.8329C5.00198 20.1313 5.45709 18.8313 6.15779 18.5655C7.41333 18.089 10.1046 18.4408 15.2718 19.7567C21.3171 21.2962 23.8677 21.5821 26.3479 20.9984C28.5742 20.4748 30.0755 19.4576 30.9179 17.903C31.262 17.2676 31.3357 16.8157 31.3283 15.3862C31.3117 12.1559 29.9182 8.65952 27.4754 5.71796C25.2049 2.98393 19.5345 -0.0553778 16.2057 0.000766295V0.808829L16.8847 1.00379ZM11.03 2.33537C9.34531 2.55859 6.68453 3.02768 5.5 3.89559C5.35646 4.00077 5.87049 4.63999 6.04237 4.58346C7.31788 4.16354 10.5273 3.83461 12.7522 3.89559C15.0103 3.95755 15.3372 4.0135 16.3528 4.51124C17.3652 5.00725 18.6386 6.24668 18.3905 6.49429C18.3354 6.54927 17.4147 6.41627 16.3446 6.19866C13.1806 5.55514 10.0598 5.72125 7.1427 6.68828C5.36009 7.27895 1.56728 9.4256 0.890625 10.6635C0.704973 11.0031 1.56828 11.0604 2.16384 10.6635C3.04884 10.074 4.95231 9.1925 6.02103 8.87713C6.61174 8.70289 7.92877 8.62796 10.0949 8.64519C12.896 8.66746 13.5259 8.73367 15.1388 9.17585C17.8531 9.92005 21.3322 10.6397 22.2248 10.6414C23.3488 10.6435 23.8685 10.2163 23.8685 9.2893C23.8685 8.30194 23.6074 7.65667 22.7577 6.54482C21.9018 5.42484 20.875 4.67232 18.8243 3.66153C16.3908 2.46237 13.6239 1.99153 11.03 2.33537Z" fill="#4C88B4"/>
<path fill-rule="evenodd" clip-rule="evenodd" d="M30.4072 22.7637C29.5793 23.5679 27.942 24.347 26.5162 24.6153C24.4458 25.0047 21.1138 24.7067 16.2163 23.6938C10.6815 22.5491 8.86724 22.3584 8.30922 22.8636C6.12027 24.8446 10.8363 29.9496 15.8249 30.9991C18.7708 31.6188 22.5636 31.2339 25.2211 30.0456C27.219 29.1523 27.0555 28.8486 24.8378 29.3336C22.4052 29.8656 18.202 29.916 16.6496 29.4316C15.4972 29.0722 14.1722 28.1339 13.7785 27.3983C13.5556 26.9819 13.5666 26.9809 16.8823 27.133C23.0256 27.4146 24.7213 27.264 26.8014 26.2522C27.8761 25.7291 30.7041 23.2863 31.1079 22.532C31.3939 21.9973 31.094 22.0964 30.4072 22.7637Z" fill="#6C5DD3"/>
<path fill-rule="evenodd" clip-rule="evenodd" d="M16.853 0.223995C18.1204 0.588549 20.1914 1.42527 20.9217 1.86795C24.3365 3.93728 27.3482 7.70305 27.7422 10.3965C27.906 11.5162 27.5811 13.0804 27.0351 13.8002C26.2744 14.8029 22.9182 14.5956 17.4045 13.2053C12.9011 12.0698 10.7766 11.7215 8.20706 11.6977C4.92058 11.6672 2.49239 12.4184 1.15502 13.8793C-1.39218 16.6615 0.477581 24.2538 4.76597 28.543C7.48548 31.263 11.4644 32.9633 15.0087 32.9201C16.2246 32.9055 16.1656 32.8544 14.2084 32.2297C10.3096 30.9855 6.41542 27.8719 5.01518 24.8794C4.52755 23.8376 4.41261 23.3166 4.40427 22.1111C4.39206 20.3231 4.86932 18.957 5.60412 18.6777C6.92075 18.1771 9.74299 18.5467 15.1617 19.9294C21.5011 21.5471 24.1758 21.8476 26.7767 21.2343C29.1113 20.684 30.6857 19.6151 31.569 17.9816C31.9299 17.3139 32.0072 16.8391 31.9995 15.3369C31.982 11.9426 30.5207 8.26859 27.9591 5.17762C25.5781 2.30472 20.6489 -0.0571512 17.1582 0.00184471L16.141 0.0191366L16.853 0.223995ZM10.7134 1.62321C8.94675 1.85777 7.39617 2.44855 6.154 3.36054C5.60493 3.76375 5.30283 4.04489 5.48308 3.98549C6.82066 3.54424 10.1863 3.19861 12.5195 3.26269C14.8874 3.32779 15.2302 3.38658 16.2952 3.90961C17.3569 4.43081 18.6923 5.73319 18.4321 5.99339C18.3743 6.05116 17.4088 5.9114 16.2866 5.68274C12.9686 5.00653 9.69599 5.18107 6.63696 6.19723C4.7676 6.8179 1.6518 9.1399 0.942225 10.4407C0.747538 10.7975 0.791277 10.7914 1.41582 10.3743C2.34389 9.75488 4.33998 8.82865 5.4607 8.49725C6.08016 8.31416 7.46127 8.23543 9.73282 8.25354C12.6702 8.27693 13.3308 8.34651 15.0221 8.81115C17.8686 9.59315 21.5169 10.3493 22.4529 10.3511C23.6316 10.3534 24.1766 9.90441 24.1766 8.93036C24.1766 7.89285 23.9028 7.2148 23.0118 6.04648C22.1142 4.86962 21.0374 4.07887 18.8869 3.01674C16.3351 1.75667 13.4335 1.26192 10.7134 1.62321Z" fill="url(#paint0_radial)"/>
<defs>
<radialGradient id="paint0_radial" cx="0" cy="0" r="1" gradientUnits="userSpaceOnUse" gradientTransform="translate(13.4267 7.70813) rotate(68.4287) scale(18.813 18.2871)">
<stop stop-color="#B5F3FF"/>
<stop offset="1" stop-color="#44DAF8"/>
</radialGradient>
</defs>

</svg>
