<svg width="51" height="51" viewBox="0 0 51 51" fill="none" xmlns="http://www.w3.org/2000/svg">
<g filter="url(#filter0_f)">
<circle cx="25.6817" cy="25.3203" r="13.8335" fill="#A1B9CD"/>
</g>
<path fill-rule="evenodd" clip-rule="evenodd" d="M38.7439 27.4875C37.9541 28.2423 36.3922 28.9736 35.0319 29.2254C33.0568 29.5909 29.878 29.3112 25.2059 28.3605C19.9257 27.2861 18.1949 27.1071 17.6626 27.5812C15.5743 29.4406 20.0734 34.232 24.8325 35.2171C27.6429 35.7987 31.9649 35.8153 34.5001 34.7C36.0001 34.2 36.0001 33.5 33.4308 33.6539C31.11 34.1532 27.1002 34.2005 25.6192 33.7459C24.5198 33.4085 23.2558 32.5279 22.8803 31.8375C22.6676 31.4466 22.678 31.4457 25.8413 31.5885C31.7019 31.8527 33.3196 31.7114 35.304 30.7617C36.3293 30.2708 39.6148 28.208 40.0001 27.5C40.0001 27.5 40.2465 27.1087 40.0001 27C39.7536 26.8913 39.1543 27.0953 38.7439 27.4875Z" fill="#4435A9"/>
<path fill-rule="evenodd" clip-rule="evenodd" d="M25.8847 6.00302C27.0933 6.34995 29.0681 7.14623 29.7646 7.56751C33.021 9.53681 35.8929 13.1205 36.2686 15.6838C36.4248 16.7494 36.115 18.238 35.5943 18.9229C34.869 19.8772 31.6684 19.6799 26.4106 18.3569C22.1162 17.2762 20.0903 16.9447 17.64 16.9221C14.506 16.893 12.1905 17.608 10.9151 18.9983C8.48614 21.6459 10.2691 28.8713 14.3585 32.9532C16.9519 35.5416 20.8921 37.8535 24.2718 37.8125C24.6217 37.8083 24.7455 37.9973 24.7656 37.8125C24.7955 37.5384 24.4777 36.8167 23.3628 36.4616C19.6449 35.2775 15.9314 32.3145 14.5962 29.4666C14.1312 28.4752 14.0216 27.9794 14.0136 26.8321C14.002 25.1305 14.4571 23.8305 15.1578 23.5647C16.4133 23.0883 19.1046 23.44 24.2718 24.7559C30.3171 26.2954 32.8677 26.5814 35.3479 25.9977C37.5742 25.474 39.0755 24.4568 39.9179 22.9022C40.262 22.2668 40.3357 21.8149 40.3283 20.3854C40.3117 17.1552 38.9182 13.6588 36.4754 10.7172C34.2049 7.98317 28.5345 4.94386 25.2057 5V5.80807L25.8847 6.00302ZM20.03 7.33461C18.3453 7.55783 15.6845 8.02692 14.5 8.89483C14.3565 9 14.8705 9.63922 15.0424 9.58269C16.3179 9.16277 19.5273 8.83385 21.7522 8.89483C24.0103 8.95678 24.3372 9.01273 25.3528 9.51048C26.3652 10.0065 27.6386 11.2459 27.3905 11.4935C27.3354 11.5485 26.4147 11.4155 25.3446 11.1979C22.1806 10.5544 19.0598 10.7205 16.1427 11.6875C14.3601 12.2782 10.5673 14.4248 9.89063 15.6627C9.70497 16.0023 10.5683 16.0596 11.1638 15.6627C12.0488 15.0732 13.9523 14.1917 15.021 13.8764C15.6117 13.7021 16.9288 13.6272 19.0949 13.6444C21.896 13.6667 22.5259 13.7329 24.1388 14.1751C26.8531 14.9193 30.3322 15.6389 31.2248 15.6406C32.3488 15.6428 32.8685 15.2155 32.8685 14.2885C32.8685 13.3012 32.6074 12.6559 31.7577 11.5441C30.9018 10.4241 29.875 9.67155 27.8243 8.66077C25.3908 7.46161 22.6239 6.99077 20.03 7.33461Z" fill="#4C88B4"/>
<path fill-rule="evenodd" clip-rule="evenodd" d="M39.4072 27.7629C38.5793 28.5671 36.942 29.3463 35.5162 29.6146C33.4458 30.004 30.1138 29.7059 25.2163 28.693C19.6815 27.5483 17.8672 27.3577 17.3092 27.8628C15.1203 29.8439 19.8363 34.9488 24.8249 35.9984C27.7708 36.618 31.5636 36.2331 34.2211 35.0449C36.219 34.1516 36.0555 33.8479 33.8378 34.3328C31.4052 34.8648 27.202 34.9153 25.6496 34.4309C24.4972 34.0714 23.1722 33.1332 22.7785 32.3976C22.5556 31.9812 22.5666 31.9801 25.8823 32.1323C32.0256 32.4139 33.7213 32.2633 35.8014 31.2514C36.8761 30.7284 39.7041 28.2856 40.1079 27.5312C40.3939 26.9966 40.094 27.0957 39.4072 27.7629Z" fill="#6C5DD3"/>
<path fill-rule="evenodd" clip-rule="evenodd" d="M25.853 5.22323C27.1204 5.58779 29.1914 6.42451 29.9217 6.86718C33.3365 8.93651 36.3482 12.7023 36.7422 15.3958C36.906 16.5155 36.5811 18.0797 36.0351 18.7994C35.2744 19.8021 31.9182 19.5948 26.4045 18.2046C21.9011 17.069 19.7766 16.7207 17.2071 16.6969C13.9206 16.6664 11.4924 17.4177 10.155 18.8785C7.60782 21.6607 9.47758 29.2531 13.766 33.5423C16.4855 36.2622 20.4644 37.9625 24.0087 37.9194C25.2246 37.9047 25.1656 37.8537 23.2084 37.2289C19.3096 35.9847 15.4154 32.8711 14.0152 29.8786C13.5275 28.8368 13.4126 28.3159 13.4043 27.1103C13.3921 25.3223 13.8693 23.9563 14.6041 23.6769C15.9207 23.1763 18.743 23.5459 24.1617 24.9287C30.5011 26.5464 33.1758 26.8469 35.7767 26.2335C38.1113 25.6832 39.6857 24.6144 40.569 22.9808C40.9299 22.3131 41.0072 21.8383 40.9995 20.3361C40.982 16.9418 39.5207 13.2678 36.9591 10.1769C34.5781 7.30396 29.6489 4.94209 26.1582 5.00108L25.141 5.01837L25.853 5.22323ZM19.7134 6.62245C17.9467 6.85701 16.3962 7.44778 15.154 8.35978C14.6049 8.76299 14.3028 9.04413 14.4831 8.98473C15.8207 8.54348 19.1863 8.19785 21.5195 8.26193C23.8874 8.32703 24.2302 8.38582 25.2952 8.90885C26.3569 9.43005 27.6923 10.7324 27.4321 10.9926C27.3743 11.0504 26.4088 10.9106 25.2866 10.682C21.9686 10.0058 18.696 10.1803 15.637 11.1965C13.7676 11.8171 10.6518 14.1391 9.94222 15.4399C9.74754 15.7967 9.79128 15.7906 10.4158 15.3736C11.3439 14.7541 13.34 13.8279 14.4607 13.4965C15.0802 13.3134 16.4613 13.2347 18.7328 13.2528C21.6702 13.2762 22.3308 13.3457 24.0221 13.8104C26.8686 14.5924 30.5169 15.3486 31.4529 15.3504C32.6316 15.3526 33.1766 14.9036 33.1766 13.9296C33.1766 12.8921 32.9028 12.214 32.0118 11.0457C31.1142 9.86885 30.0374 9.0781 27.8869 8.01597C25.3351 6.7559 22.4335 6.26115 19.7134 6.62245Z" fill="url(#paint0_radial)"/>
<defs>
<filter id="filter0_f" x="0.848145" y="0.486755" width="49.667" height="49.667" filterUnits="userSpaceOnUse" color-interpolation-filters="sRGB">
<feFlood flood-opacity="0" result="BackgroundImageFix"/>
<feBlend mode="normal" in="SourceGraphic" in2="BackgroundImageFix" result="shape"/>
<feGaussianBlur stdDeviation="5.5" result="effect1_foregroundBlur"/>
</filter>
<radialGradient id="paint0_radial" cx="0" cy="0" r="1" gradientUnits="userSpaceOnUse" gradientTransform="translate(22.4267 12.7074) rotate(68.4287) scale(18.813 18.2871)">
<stop stop-color="#B5F3FF"/>
<stop offset="1" stop-color="#44DAF8"/>
</radialGradient>
</defs>
</svg>
