<svg width="24" height="28" viewBox="0 0 24 28" fill="none" xmlns="http://www.w3.org/2000/svg">
<path fill-rule="evenodd" clip-rule="evenodd" d="M12 0.666672C18.6274 0.666672 24 5.98097 24 12.5365C24 16.8745 20.3702 21.4611 13.2643 26.4575L12 27.3333L11.2371 26.8068C3.80056 21.6745 0 16.9754 0 12.5365C0 5.98097 5.37258 0.666672 12 0.666672ZM12 3.30441C6.84534 3.30441 2.66667 7.43775 2.66667 12.5365C2.66667 15.7398 5.72896 19.6486 12 24.1091C18.271 19.6486 21.3333 15.7398 21.3333 12.5365C21.3333 7.43775 17.1547 3.30441 12 3.30441ZM12 6C14.9455 6 17.3333 8.38782 17.3333 11.3333C17.3333 14.2789 14.9455 16.6667 12 16.6667C9.05448 16.6667 6.66667 14.2789 6.66667 11.3333C6.66667 8.38782 9.05448 6 12 6ZM12 8.66667C10.5272 8.66667 9.33333 9.86058 9.33333 11.3333C9.33333 12.8061 10.5272 14 12 14C13.4728 14 14.6667 12.8061 14.6667 11.3333C14.6667 9.86058 13.4728 8.66667 12 8.66667Z" fill="white"/>
</svg>
