<svg width="12" height="12" viewBox="0 0 12 12" fill="none" xmlns="http://www.w3.org/2000/svg">
<path d="M2.19076 1.69573C2.31831 0.949607 2.43978 0.262875 2.46078 0.169573C2.49876 0.000452215 2.50294 0 4.06188 0H5.625L4.89759 1.04886C4.49758 1.62571 4.17025 2.11747 4.17025 2.14166C4.17025 2.16578 4.48099 2.1856 4.86075 2.1856C5.42111 2.1856 5.54669 2.20595 5.52667 2.29368C5.49905 2.41502 2.24175 7.15679 2.20796 7.12484C2.19609 7.11361 2.32455 6.30916 2.49335 5.33717C2.66223 4.36518 2.80036 3.54671 2.80036 3.51837C2.80036 3.49003 2.59214 3.46682 2.33772 3.46682H1.875L1.91693 3.25956C1.93999 3.14561 2.06321 2.44185 2.19076 1.69573Z" fill="white"/>
<path fill-rule="evenodd" clip-rule="evenodd" d="M9.75032 1.8803V2.26063L9.25827 2.26863L8.76622 2.27666L9.58939 5.25869L10.4126 8.24069L10.6738 8.27841C11.7114 8.4282 12.2955 9.48783 11.8477 10.4077C11.5837 10.95 11.1029 11.2507 10.4973 11.2522C10.0753 11.2533 9.73605 11.1147 9.44323 10.8219C9.15042 10.5291 9.01191 10.1898 9.01293 9.76784C9.01408 9.30052 9.20628 8.88288 9.5391 8.62448C9.64502 8.54224 9.68754 8.48975 9.68159 8.44863C9.67693 8.41639 9.29153 6.80506 8.82516 5.32627L7.97719 2.2625L7.36905 2.26227L6.76091 2.26201V1.881V1.5H8.25562H9.75032V1.8803ZM8.71751 7.85344L8.83829 8.24007L8.70391 8.41762C8.45687 8.74405 8.30444 9.13968 8.26567 9.555L8.2472 9.75283H5.62968H3.01216L2.99622 9.86274C2.93368 10.2942 2.8073 10.5692 2.55625 10.8203C2.26208 11.1144 1.92302 11.2533 1.50014 11.253C0.898328 11.2524 0.413955 10.9498 0.15118 10.41C-0.129209 9.83416 -0.0133553 9.1667 0.447014 8.70537C1.07582 8.07527 2.10546 8.13489 2.66554 8.83379L2.81513 9.02048L5.20138 9.01298L7.58763 9.00548L7.66802 8.78567C7.83109 8.33978 8.02616 8.02475 8.3509 7.6829C8.46379 7.56406 8.56528 7.46681 8.57645 7.46681C8.58762 7.46681 8.6511 7.64081 8.71751 7.85344Z" fill="white"/>
</svg>
