<svg width="28" height="28" viewBox="0 0 28 28" fill="none" xmlns="http://www.w3.org/2000/svg">
<path fill-rule="evenodd" clip-rule="evenodd" d="M13.258 23.9711L7.48711 27.1416C6.70761 27.5698 5.74349 27.2567 5.33368 26.4421C5.17049 26.1177 5.11418 25.7462 5.17346 25.385L6.2756 18.6698C6.36431 18.1292 6.19282 17.5777 5.817 17.1949L1.14829 12.4392C0.517663 11.7968 0.50476 10.7418 1.11947 10.0828C1.36425 9.82035 1.68499 9.64957 2.03203 9.59687L8.48402 8.61714C9.00339 8.53828 9.45237 8.19739 9.68464 7.70558L12.5701 1.59592C12.9598 0.770658 13.916 0.431824 14.7057 0.839117C15.0202 1.0013 15.2747 1.2673 15.4299 1.59592L18.3153 7.70558C18.5476 8.19739 18.9966 8.53828 19.5159 8.61714L25.9679 9.59687C26.8394 9.72921 27.4433 10.5748 27.3166 11.4855C27.2662 11.8482 27.1028 12.1834 26.8517 12.4392L22.183 17.1949C21.8071 17.5777 21.6356 18.1292 21.7244 18.6698L22.8265 25.385C22.9754 26.292 22.3924 27.1534 21.5244 27.309C21.1788 27.371 20.8232 27.3121 20.5128 27.1416L14.742 23.9711C14.2775 23.7159 13.7225 23.7159 13.258 23.9711ZM11.9739 21.6339C13.2381 20.9394 14.7618 20.9394 16.026 21.6339L19.8536 23.7368L19.0929 19.1017C18.8673 17.7273 19.3049 16.32 20.28 15.3267L23.6088 11.9359L19.1156 11.2536C17.7091 11.04 16.5116 10.1308 15.904 8.84436L14 4.81268L12.0959 8.84436C11.4884 10.1308 10.2909 11.04 8.88436 11.2536L4.39112 11.9359L7.71994 15.3267C8.69508 16.32 9.13263 17.7273 8.90705 19.1017L8.14631 23.7368L11.9739 21.6339Z" fill="black"/>
</svg>
