<?xml version="1.0" standalone="no"?>
<!DOCTYPE svg PUBLIC "-//W3C//DTD SVG 1.1//EN" "http://www.w3.org/Graphics/SVG/1.1/DTD/svg11.dtd" >
<svg>
<metadata>
Created by FontForge 20090914 at Wed Dec 16 05:01:43 2020
 By www-data
Copyright 2020 The Poppins Project Authors (https://github.com/itfoundry/Poppins)
</metadata>
<defs>
<font id="Poppins-ExtraLightItalic" horiz-adv-x="279" >
  <font-face 
    font-family="Poppins ExtraLight"
    font-weight="275"
    font-style="italic"
    font-stretch="normal"
    units-per-em="1000"
    panose-1="0 0 3 0 0 0 0 0 0 0"
    ascent="800"
    descent="-200"
    x-height="543"
    cap-height="702"
    bbox="-504.002 -553.002 2679 1040"
    underline-thickness="50"
    underline-position="-50"
    slope="-10"
    unicode-range="U+000D-U+FB02"
  />
<missing-glyph horiz-adv-x="500" 
d="M0 700h500v-700h-500v700zM420 650h-340l170 -255zM50 95l170 255l-170 255v-510zM450 95v510l-170 -255zM420 50l-170 255l-170 -255h340z" />
    <glyph glyph-name=".notdef" horiz-adv-x="500" 
d="M0 700h500v-700h-500v700zM420 650h-340l170 -255zM50 95l170 255l-170 255v-510zM450 95v510l-170 -255zM420 50l-170 255l-170 -255h340z" />
    <glyph glyph-name="NULL" horiz-adv-x="0" 
 />
    <glyph glyph-name="NULL" horiz-adv-x="0" 
 />
    <glyph glyph-name="CR" unicode="&#xd;" horiz-adv-x="293" 
 />
    <glyph glyph-name="space" unicode=" " horiz-adv-x="293" 
 />
    <glyph glyph-name="exclam" unicode="!" horiz-adv-x="251" 
d="M224 702l-100 -531h-39l89 531h50zM53 5.5c-6 5.66699 -9 13.167 -9 22.5c0 13.333 4.66699 24.5 14 33.5s20.333 13.5 33 13.5c9.33301 0 17 -2.83301 23 -8.5s9 -13.167 9 -22.5c0 -13.333 -4.66699 -24.5 -14 -33.5s-20.333 -13.5 -33 -13.5
c-9.33301 0 -17 2.83301 -23 8.5z" />
    <glyph glyph-name="quotedbl" unicode="&#x22;" horiz-adv-x="230" 
d="M180 794l-41 -186h-32l23 186h50zM282 794l-40 -186h-33l23 186h50z" />
    <glyph glyph-name="numbersign" unicode="#" horiz-adv-x="777" 
d="M605 463l-75 -192h149l-7 -40h-158l-90 -231h-44l90 231h-236l-90 -231h-44l90 231h-160l7 40h169l75 192h-158l7 40h166l93 237h44l-93 -237h236l93 237h44l-93 -237h152l-7 -40h-160zM561 463h-236l-75 -192h236z" />
    <glyph glyph-name="dollar" unicode="$" horiz-adv-x="566" 
d="M488.5 655c27 -30 40.165 -65.6641 39.498 -106.997h-48c-0.666992 27.333 -10.5 53 -29.5 77s-48.167 38.667 -87.5 44l-53 -296c36.667 -10.667 66.5 -21.334 89.5 -32.001s42.167 -25.834 57.5 -45.501s23 -45.5 23 -77.5c0 -14 -1.33301 -27.667 -4 -41
c-5.33301 -30.667 -17.666 -60 -36.999 -88s-45.666 -51 -78.999 -69s-72.333 -27 -117 -27l-14 -80h-32l14 81c-52 4.66699 -93 22 -123 52s-45 66.667 -45 110c0 7.33301 0.333008 13 1 17h47c-1.33301 -19.333 2 -39.166 10 -59.499s21.667 -38 41 -53
s44.666 -24.167 75.999 -27.5l55 308c-37.333 10.667 -67.5 21.167 -90.5 31.5s-42.333 25.166 -58 44.499s-23.5 44.666 -23.5 75.999c0 13.333 1.33301 26.333 4 39c8.66699 51.333 33.834 93.5 75.501 126.5s94.167 49.833 157.5 50.5l15 87h32l-16 -88
c52.667 -5.33301 92.5 -23 119.5 -53zM147.998 505.003c0 -34 11.3311 -59.667 33.998 -77s55.334 -32.333 98.001 -45l51 288c-47.333 0 -87.166 -11.833 -119.499 -35.5s-52.5 -57.5 -60.5 -101.5c-2 -10 -3 -19.667 -3 -29zM433.996 206.003
c0 34.667 -11.333 61.001 -34 79.001s-55 33.333 -97 46l-53 -300c50 0.666992 90.833 14.667 122.5 42s51.167 61.333 58.5 102c2 11.333 3 21.666 3 30.999z" />
    <glyph glyph-name="percent" unicode="%" horiz-adv-x="580" 
d="M113 630c14.667 24.667 34.167 44.166 58.5 58.499s50.833 21.5 79.5 21.5c33.333 0 60.166 -10 80.499 -30s30.5 -46.333 30.5 -79c0 -30.667 -7.33301 -58.334 -22 -83.001s-34.167 -44 -58.5 -58s-50.833 -21 -79.5 -21c-33.333 0 -60.166 9.83301 -80.499 29.5
s-30.5 45.834 -30.5 78.501c0 30.667 7.33301 58.334 22 83.001zM597 701.999l-541 -702h-47l541 702h47zM163 641.999c-22.667 -24 -34 -54.667 -34 -92c0 -24.667 7 -44.167 21 -58.5s33.333 -21.5 58 -21.5c32 0 59.333 12.167 82 36.5s34 54.833 34 91.5
c0 24.667 -7 44.167 -21 58.5s-33.333 21.5 -58 21.5c-32 0 -59.333 -12 -82 -36zM266.5 183.499c14.333 25 33.667 44.5 58 58.5s50.833 21 79.5 21c33.333 0 60.333 -10 81 -30s31 -46.333 31 -79c0 -12 -0.666992 -21 -2 -27c-6.66699 -40 -25 -72.667 -55 -98
s-64 -38 -102 -38c-34 0 -61.167 10 -81.5 30s-30.5 46.333 -30.5 79c0 30.667 7.16699 58.5 21.5 83.5zM324.501 202.499c-21 -19 -34.167 -44.167 -39.5 -75.5c-2 -8.66699 -3 -17 -3 -25c0 -24.667 7.16699 -44 21.5 -58s33.833 -21 58.5 -21c28 0 52.5 9.5 73.5 28.5
s34.5 44.167 40.5 75.5c1.33301 10.667 2 18.334 2 23.001c0 25.333 -7.16699 45.166 -21.5 59.499s-33.833 21.5 -58.5 21.5c-28 0 -52.5 -9.5 -73.5 -28.5z" />
    <glyph glyph-name="ampersand" unicode="&#x26;" horiz-adv-x="699" 
d="M514 135l108.002 -135h-56l-83 103c-40.667 -39.333 -81.5 -68.166 -122.5 -86.499s-85.5 -27.5 -133.5 -27.5c-60.667 0 -109.334 16.333 -146.001 49s-55 75.667 -55 129c0 56 18.667 105.5 56 148.5s88 75.833 152 98.5c-18 22.667 -31.167 43.667 -39.5 63
s-12.5 39.666 -12.5 60.999c0 32.667 8.16699 62.167 24.5 88.5s39.166 46.833 68.499 61.5s62 22 98 22c41.333 0 75 -10.667 101 -32s39 -50 39 -86c0 -6 -0.666992 -14.333 -2 -25h-45c1.33301 8 2 14.333 2 19c0 26.667 -9.33301 47.5 -28 62.5s-42.667 22.5 -72 22.5
c-40 0 -73.333 -12 -100 -36s-40 -54.333 -40 -91c0 -18.667 4.33301 -37 13 -55s21.667 -38.333 39 -61l209 -262c27.333 30.667 54.333 64 81 100l73 95h49l-89 -118c-34 -44.667 -63.667 -80.667 -89 -108zM349.002 54.5c36 17 72.333 43.5 109 79.5l-200 250h-1
c-58 -20 -103.5 -48 -136.5 -84s-49.5 -78.667 -49.5 -128c0 -42.667 14.667 -77.167 44 -103.5s68.333 -39.5 117 -39.5c42 0 81 8.5 117 25.5z" />
    <glyph glyph-name="quotesingle" unicode="'" horiz-adv-x="133" 
d="M186 794l-44 -186h-32l20 186h56z" />
    <glyph glyph-name="parenleft" unicode="(" horiz-adv-x="380" 
d="M112 -15.5c-21.333 67 -31.999 140.833 -31.999 221.5c0 89.333 12.833 179.333 38.5 270s62.667 175.834 111 255.501s105.5 147.167 171.5 202.5h49l-1 -5c-67.333 -57.333 -125.333 -125 -174 -203s-85.834 -161.167 -111.501 -249.5s-38.5 -176.5 -38.5 -264.5
c0 -76 10.333 -147.333 31 -214s51 -126.334 91 -179.001v-5h-48c-36.667 46.667 -65.667 103.5 -87 170.5z" />
    <glyph glyph-name="parenright" unicode=")" horiz-adv-x="379" 
d="M-28 -186l-0.000976562 5c100 87.333 178 194.666 234 321.999s84 257.666 84 390.999c0 77.333 -10.667 149.833 -32 217.5s-53 127.5 -95 179.5l1 5h48c38.667 -46.667 68.667 -103.667 90 -171s32 -141.666 32 -222.999c0 -88.667 -12.667 -178.167 -38 -268.5
s-61.666 -175.166 -108.999 -254.499s-103 -147 -167 -203h-48z" />
    <glyph glyph-name="asterisk" unicode="*" horiz-adv-x="449" 
d="M442 651l13 -34l-157 -71l131 -73l-23 -33l-123 84l-22 -164h-38l35 164l-152 -85l-15 36l158 71l-130 73l23 32l124 -84l22 163h38l-35 -163z" />
    <glyph glyph-name="plus" unicode="+" horiz-adv-x="622" 
d="M580 355h-234l-41 -235h-44l41 235h-231l6 40h233l41 235h44l-41 -235h233z" />
    <glyph glyph-name="comma" unicode="," horiz-adv-x="143" 
d="M82 105l-138 -256h-35l121 256h52z" />
    <glyph glyph-name="hyphen" unicode="-" horiz-adv-x="482" 
d="M395 395l-7 -39h-376l7 39h376z" />
    <glyph glyph-name="period" unicode="." horiz-adv-x="149" 
d="M2 5.5c-6 5.66699 -9 13.167 -9 22.5c0 13.333 4.66699 24.5 14 33.5s20.333 13.5 33 13.5c9.33301 0 17 -2.83301 23 -8.5s9 -13.167 9 -22.5c0 -13.333 -4.66699 -24.5 -14 -33.5s-20.333 -13.5 -33 -13.5c-9.33301 0 -17 2.83301 -23 8.5z" />
    <glyph glyph-name="slash" unicode="/" horiz-adv-x="400" 
d="M476 937l-470 -1098h-45l469 1098h46z" />
    <glyph glyph-name="zero" unicode="0" horiz-adv-x="602" 
d="M179 622.5c44 62.333 110.666 93.5 199.999 93.5c66.667 0 114.334 -18.167 143.001 -54.5s43 -87.833 43 -154.5c0 -42.667 -5.33301 -92.667 -16 -150c-20 -115.333 -52.333 -204.5 -97 -267.5s-111.667 -94.5 -201 -94.5c-66.667 0 -114.167 18 -142.5 54
s-42.5 87.333 -42.5 154c0 44 5.33301 95.333 16 154c20.667 114.667 53 203.167 97 265.5zM519.999 505c0 54.667 -11.334 96.6689 -34.001 126.002s-60.667 44 -114 44c-52 0 -94.167 -13.5 -126.5 -40.5s-57.5 -63.333 -75.5 -109s-32.667 -101.834 -44 -168.501
c-10.667 -57.333 -16 -107 -16 -149c0 -55.333 11.333 -97.833 34 -127.5s60.667 -44.5 114 -44.5c51.333 0 93.333 13.667 126 41s57.834 64 75.501 110s32.5 102.667 44.5 170c10.667 57.333 16 106.666 16 147.999z" />
    <glyph glyph-name="one" unicode="1" horiz-adv-x="259" 
d="M91 665l8 41h148l-125 -706h-46l118 665h-103z" />
    <glyph glyph-name="two" unicode="2" horiz-adv-x="570" 
d="M347.5 284c86.333 80.667 136.166 157.334 149.499 230.001c2.66699 12.667 4 26.667 4 42c0 37.333 -11 67 -33 89s-57.333 33 -106 33c-58 0 -105.5 -17.667 -142.5 -53s-62.833 -82 -77.5 -140h-44c17.333 73.333 50.166 130.333 98.499 171s105.833 61 172.5 61
c52.667 0 95.334 -12.833 128.001 -38.5s49 -64.167 49 -115.5c0 -16 -1.33301 -31.667 -4 -47c-14.667 -82.667 -67.667 -166.334 -159 -251.001s-191.666 -159.334 -300.999 -224.001h399l-7 -38h-472l5 30c140.667 86.667 254.167 170.334 340.5 251.001z" />
    <glyph glyph-name="three" unicode="3" horiz-adv-x="580" 
d="M203 668c47.333 34.667 104.997 51.998 172.997 51.998c57.333 0 101 -13.333 131 -40s45 -61.667 45 -105c0 -10.667 -1 -21.667 -3 -33c-8 -42.667 -27.667 -79.5 -59 -110.5s-74.333 -49.5 -129 -55.5v-6c43.333 -6.66699 77.666 -22.5 102.999 -47.5
s38 -58.167 38 -99.5c0 -12 -1 -24.667 -3 -38c-10 -56 -36.667 -101.833 -80 -137.5s-100.666 -53.5 -171.999 -53.5c-67.333 0 -119.666 18 -156.999 54s-54.666 87 -51.999 153h44c-0.666992 -50 13.666 -90.333 42.999 -121s72.333 -46 129 -46
c57.333 0 103.333 14.333 138 43s56 65.667 64 111c2 11.333 3 22 3 32c0 44 -18.5 77 -55.5 99s-90.167 33 -159.5 33h-19l7 39h21c150.667 0.666992 234.334 50 251.001 148c2 10 3 20 3 30c0 34.667 -12 62 -36 82s-58.333 30 -103 30c-50 0 -94.667 -13.167 -134 -39.5
s-66.666 -65.166 -81.999 -116.499h-45c16.667 60.667 48.667 108.334 96 143.001z" />
    <glyph glyph-name="four" unicode="4" horiz-adv-x="593" 
d="M10 180l6 35l468 493h52l-87 -489h114l-7 -39h-114l-32 -180h-44l32 180h-388zM483 654l-413 -435h336z" />
    <glyph glyph-name="five" unicode="5" horiz-adv-x="605" 
d="M580 671l-384.003 0.00195312l-51 -287c22.667 25.333 52.834 46.166 90.501 62.499s76.834 24.5 117.501 24.5c67.333 0 116.5 -16.667 147.5 -50s46.5 -76 46.5 -128c0 -16 -1.66699 -33.333 -5 -52c-12.667 -70.667 -42.834 -129.334 -90.501 -176.001
s-111.167 -70 -190.5 -70c-65.333 0 -116.166 17.833 -152.499 53.5s-53.833 83.834 -52.5 144.501h44c1.33301 -51.333 17 -90.5 47 -117.5s70.333 -40.5 121 -40.5c64 0 115.667 18.833 155 56.5s64.666 87.167 75.999 148.5c2.66699 14 4 29.333 4 46
c0 46 -13.667 81.833 -41 107.5s-67.666 38.5 -120.999 38.5c-42 0 -81.167 -9.33301 -117.5 -28s-66.166 -44.334 -89.499 -77.001h-42l68 384h427z" />
    <glyph glyph-name="six" unicode="6" horiz-adv-x="621" 
d="M503 644c-23.333 26 -59.333 38.999 -108 38.999c-72.667 0 -132.167 -28.333 -178.5 -85s-78.5 -148.667 -96.5 -276c18.667 46 50.834 82.5 96.501 109.5s95.5 40.5 149.5 40.5c61.333 0 108.666 -16 141.999 -48s50 -77.333 50 -136c0 -22 -1.66699 -41.667 -5 -59
c-7.33301 -42.667 -22.333 -81.667 -45 -117s-53.167 -63.666 -91.5 -84.999s-83.5 -32 -135.5 -32c-76.667 0 -131 19.167 -163 57.5s-48 92.166 -48 161.499c0 34.667 4.66699 80 14 136c21.333 119.333 57.5 211 108.5 275s120.833 96 209.5 96
c62 0 107.667 -17.167 137 -51.5s42.333 -80.166 39 -137.499h-42c1.33301 48.667 -9.66699 86 -33 112zM250.5 411.999c-33.667 -14 -62.999 -35.167 -87.999 -63.5s-40.833 -62.833 -47.5 -103.5c-2.66699 -14 -4 -29.667 -4 -47c0 -48.667 14.333 -88.334 43 -119.001
s72.667 -46 132 -46c57.333 0 106.166 17.333 146.499 52s65.833 82.334 76.5 143.001c3.33301 21.333 5 39 5 53c0 48.667 -14 86.167 -42 112.5s-68 39.5 -120 39.5c-34 0 -67.833 -7 -101.5 -21z" />
    <glyph glyph-name="seven" unicode="7" horiz-adv-x="517" 
d="M548 674l-399 -674h-50l405 671h-416l7 39h460z" />
    <glyph glyph-name="eight" unicode="8" horiz-adv-x="616" 
d="M147 420c-18.667 23.333 -28 51.333 -28 84c0 10.667 1 22 3 34c10 54.667 38.5 99 85.5 133s106.833 51 179.5 51c64.667 0 114.5 -13.667 149.5 -41s52.5 -64 52.5 -110c0 -10.667 -1 -21.667 -3 -33c-7.33301 -41.333 -25.333 -76.833 -54 -106.5
s-67.334 -50.167 -116.001 -61.5c42 -9.33301 74.333 -26.833 97 -52.5s34 -57.834 34 -96.501c0 -10.667 -1 -22.667 -3 -36c-11.333 -64 -42.833 -114.667 -94.5 -152s-116.5 -56 -194.5 -56c-68.667 0 -122.167 14.833 -160.5 44.5s-57.5 70.5 -57.5 122.5
c0 14.667 1.33301 28.334 4 41.001c8.66699 48 29.834 88.167 63.501 120.5s76.167 53.833 127.5 64.5c-38 10 -66.333 26.667 -85 50zM236 644.5c-38.667 -25.667 -62.333 -62.501 -71 -110.501c-1.33301 -6 -2 -15 -2 -27c0 -38 14.5 -67.667 43.5 -89s69.5 -32 121.5 -32
c57.333 0 105.166 13.167 143.499 39.5s61.833 62.5 70.5 108.5c2 10 3 19.667 3 29c0 38.667 -14.667 68.334 -44 89.001s-69.666 31 -120.999 31c-57.333 0 -105.333 -12.833 -144 -38.5zM164.501 309.499c-43.667 -27 -70.166 -68.167 -79.499 -123.5
c-2 -12 -3 -23.667 -3 -35c0 -43.333 16 -76.833 48 -100.5s76 -35.5 132 -35.5c63.333 0 116.333 15 159 45s68.667 72 78 126c2 12 3 23.333 3 34c0 44 -16.667 76.667 -50 98s-77 32 -131 32c-60.667 0 -112.834 -13.5 -156.501 -40.5z" />
    <glyph glyph-name="nine" unicode="9" horiz-adv-x="620" 
d="M151.5 73c24.333 -26.667 61.167 -40 110.5 -40c70.667 0 128.5 27.833 173.5 83.5s76.5 146.834 94.5 273.501c-18 -44 -49.167 -79 -93.5 -105s-92.833 -39 -145.5 -39c-61.333 0 -109.166 16 -143.499 48s-51.5 76.667 -51.5 134c0 18.667 2 38.334 6 59.001
c7.33301 42.667 22.333 81.667 45 117s53.167 63.5 91.5 84.5s83.5 31.5 135.5 31.5c74.667 0 127.834 -18.833 159.501 -56.5s47.5 -90.834 47.5 -159.501c0 -34.667 -4.66699 -80 -14 -136c-21.333 -122 -56.5 -214.833 -105.5 -278.5s-118.5 -95.5 -208.5 -95.5
c-62.667 0 -108.834 17.5 -138.501 52.5s-42.834 81.5 -39.501 139.5h42c-1.33301 -48.667 10.167 -86.334 34.5 -113.001zM404.001 305.5c33.333 14.333 62.002 35.501 86.002 63.501s39.333 62 46 102c2.66699 14 4 29.667 4 47c0 48 -14 87.333 -42 118
s-71.333 46 -130 46c-56.667 0 -105.334 -17.5 -146.001 -52.5s-66.334 -82.5 -77.001 -142.5c-3.33301 -20 -5 -36.667 -5 -50c0 -48.667 14.167 -86.334 42.5 -113.001s68.5 -40 120.5 -40c34 0 67.667 7.16699 101 21.5z" />
    <glyph glyph-name="colon" unicode=":" horiz-adv-x="150" 
d="M2 5.5c-6 5.66699 -9 13.167 -9 22.5c0 13.333 4.66699 24.5 14 33.5s20.333 13.5 33 13.5c9.33301 0 17 -2.83301 23 -8.5s9 -13.167 9 -22.5c0 -13.333 -4.66699 -24.5 -14 -33.5s-20.333 -13.5 -33 -13.5c-9.33301 0 -17 2.83301 -23 8.5zM2 449.5
c-6 5.66699 -9 13.167 -9 22.5c0 13.333 4.66699 24.5 14 33.5s20.333 13.5 33 13.5c9.33301 0 17 -2.83301 23 -8.5s9 -13.167 9 -22.5c0 -13.333 -4.66699 -24.5 -14 -33.5s-20.333 -13.5 -33 -13.5c-9.33301 0 -17 2.83301 -23 8.5z" />
    <glyph glyph-name="semicolon" unicode=";" horiz-adv-x="184" 
d="M94 451.5c-6 5.66699 -9 13.167 -9 22.5c0 13.333 4.66699 24.5 14 33.5s20.333 13.5 33 13.5c9.33301 0 17 -2.83301 23 -8.5s9 -13.167 9 -22.5c0 -13.333 -4.66699 -24.5 -14 -33.5s-20.333 -13.5 -33 -13.5c-9.33301 0 -17 2.83301 -23 8.5zM104 105l-138 -256h-35
l121 256h52z" />
    <glyph glyph-name="less" unicode="&#x3c;" horiz-adv-x="442" 
d="M296 141l-223 234l305 235h56l-305 -235l223 -234h-56z" />
    <glyph glyph-name="equal" unicode="=" horiz-adv-x="620" 
d="M596 491l-7 -41h-496l7 41h496zM562 300l-7 -40h-497l7 40h497z" />
    <glyph glyph-name="greater" unicode="&#x3e;" horiz-adv-x="437" 
d="M118 610h56l223 -235l-305 -234h-56l304 234z" />
    <glyph glyph-name="question" unicode="?" horiz-adv-x="497" 
d="M451.5 665.5c33 -29 49.498 -68.167 49.498 -117.5c0 -7.33301 -1.33301 -20.333 -4 -39c-25.333 -140.667 -123 -211.667 -293 -213l-26 -128h-38l26 162h21c71.333 0 130.333 12.333 177 37s76.334 72 89.001 142c2 12 3 23 3 33c0 40 -13 71.5 -39 94.5
s-61 34.5 -105 34.5c-51.333 0 -94.5 -14 -129.5 -42s-57.167 -65.667 -66.5 -113h-43c10.667 59.333 38.834 106.333 84.501 141s99.167 52 160.5 52c56 0 100.5 -14.5 133.5 -43.5zM105.998 5.5c-6 5.66699 -9 13.167 -9 22.5c0 13.333 4.66699 24.5 14 33.5
s20.333 13.5 33 13.5c9.33301 0 17 -2.83301 23 -8.5s9 -13.167 9 -22.5c0 -13.333 -4.66699 -24.5 -14 -33.5s-20.333 -13.5 -33 -13.5c-9.33301 0 -17 2.83301 -23 8.5z" />
    <glyph glyph-name="at" unicode="@" horiz-adv-x="981" 
d="M731 588c54 -28 95.834 -67.001 125.501 -117.001s44.5 -107.333 44.5 -172c0 -51.333 -7.83301 -100.5 -23.5 -147.5s-38.334 -85 -68.001 -114s-64.167 -43.5 -103.5 -43.5c-31.333 0 -55.166 9.83301 -71.499 29.5s-23.833 45.834 -22.5 78.501
c-20 -34 -46.5 -60.5 -79.5 -79.5s-67.833 -28.5 -104.5 -28.5c-50 0 -89.167 15.333 -117.5 46s-42.5 72 -42.5 124c0 48.667 10.167 94.167 30.5 136.5s48.666 76.333 84.999 102s77.5 38.5 123.5 38.5c36.667 0 67.167 -8.83301 91.5 -26.5s40.5 -43.167 48.5 -76.5
l16 90h40l-52 -293c-2 -10.667 -3 -21.334 -3 -32.001c0 -23.333 5.5 -41.666 16.5 -54.999s26.833 -20 47.5 -20c30 0 56.333 13.333 79 40s40.167 60.5 52.5 101.5s18.5 82.5 18.5 124.5c0 61.333 -13.167 114.666 -39.5 159.999s-63.833 80.333 -112.5 105
s-105.667 37 -171 37c-80.667 0 -154 -20.167 -220 -60.5s-118 -95 -156 -164s-57 -144.5 -57 -226.5c0 -62.667 13 -116.667 39 -162s63.167 -79.833 111.5 -103.5s104.833 -35.5 169.5 -35.5c59.333 0 114 11 164 33l8 -34c-58 -22.667 -119 -34 -183 -34
c-68 0 -128.333 13.5 -181 40.5s-93.667 65.333 -123 115s-44 107.834 -44 174.501c0 90.667 20.667 173.5 62 248.5s98.5 134.167 171.5 177.5s154.5 65 244.5 65c70 0 132 -14 186 -42zM632.001 267.999c0 40.667 -10.8301 73.667 -32.4971 99s-52.834 38 -93.501 38
c-38.667 0 -72.834 -11.167 -102.501 -33.5s-52.5 -51.5 -68.5 -87.5s-24 -74 -24 -114c0 -43.333 11.167 -77.333 33.5 -102s54.166 -37 95.499 -37c46.667 0 87.667 17.5 123 52.5s57.333 82.833 66 143.5c2 14 3 27.667 3 41z" />
    <glyph glyph-name="A" unicode="A" horiz-adv-x="627" 
d="M463 180h-333l-99 -180h-49l379 686h50l136 -686h-49zM456 217l-80 411l-226 -411h306z" />
    <glyph glyph-name="B" unicode="B" horiz-adv-x="579" 
d="M502 419c-28.667 -27.333 -62.667 -46.002 -102 -56.002c34.667 -6 62.834 -22.167 84.501 -48.5s32.5 -58.166 32.5 -95.499c0 -10.667 -1 -21 -3 -31c-10 -55.333 -37.667 -100.5 -83 -135.5s-104 -52.5 -176 -52.5h-222l125 702h219
c61.333 0 107.166 -12.667 137.499 -38s45.5 -59 45.5 -101c0 -11.333 -1 -23 -3 -35c-8 -45.333 -26.333 -81.666 -55 -108.999zM450.5 419.998c33 25.333 53.166 60 60.499 104c2 10 3 20 3 30c0 34 -12.167 60.667 -36.5 80s-61.166 29 -110.499 29h-171l-50 -281h176
c52.667 0 95.5 12.667 128.5 38zM471.999 220.998c0 38 -14.333 68.001 -43 90.001s-68 33 -118 33h-172l-54 -306h175c56.667 0 103.5 13.667 140.5 41s59.833 64.666 68.5 111.999c2 10 3 20 3 30z" />
    <glyph glyph-name="C" unicode="C" horiz-adv-x="770" 
d="M143.5 535.5c38.333 54.333 85.667 96.8311 142 127.498s116.166 46 179.499 46c80 0 144 -18.667 192 -56s79 -89.666 93 -156.999h-52c-11.333 52.667 -37.333 94.5 -78 125.5s-94.667 46.5 -162 46.5c-54 0 -105.167 -12.833 -153.5 -38.5s-89.5 -62.667 -123.5 -111
s-56.667 -104.5 -68 -168.5c-4 -24.667 -6 -48 -6 -70c0 -50.667 10 -94.5 30 -131.5s48 -65.333 84 -85s77.667 -29.5 125 -29.5c67.333 0 126.833 15.5 178.5 46.5s92.5 72.833 122.5 125.5h51c-36.667 -67.333 -85.667 -119.666 -147 -156.999s-132 -56 -212 -56
c-55.333 0 -104.166 11.833 -146.499 35.5s-75 56.834 -98 99.501s-34.5 91.667 -34.5 147c0 26 2.33301 51 7 75c12.667 69.333 38.167 131.166 76.5 185.499z" />
    <glyph glyph-name="D" unicode="D" horiz-adv-x="704" 
d="M589 632c54 -46.667 81 -112.667 81 -198c0 -24 -2.66699 -52 -8 -84c-19.333 -110.667 -66.5 -196.667 -141.5 -258s-172.167 -92 -291.5 -92h-196l125 702h196c102.667 0 181 -23.333 235 -70zM493.5 119c65 55.333 106.167 132.334 123.5 231.001
c4.66699 25.333 7 51 7 77c0 75.333 -23.167 133.666 -69.5 174.999s-115.5 62 -207.5 62h-151l-111 -628h152c106 0 191.5 27.667 256.5 83z" />
    <glyph glyph-name="E" unicode="E" horiz-adv-x="491" 
d="M196 665l-52 -295h280l-7 -36h-279l-53 -297h310l-7 -37h-355l125 702h354l-7 -37h-309z" />
    <glyph glyph-name="F" unicode="F" horiz-adv-x="481" 
d="M519 702l-7 -37h-316l-52 -295h277l-7 -37h-277l-59 -333h-45l125 702h361z" />
    <glyph glyph-name="G" unicode="G" horiz-adv-x="787" 
d="M143.5 535.5c39 54.333 87.1631 96.6699 144.496 127.003s118.333 45.5 183 45.5c75.333 0 137.166 -18.833 185.499 -56.5s79.5 -89.834 93.5 -156.501h-52c-11.333 52.667 -37.5 94.667 -78.5 126s-92.833 47 -155.5 47c-55.333 0 -107.666 -13 -156.999 -39
s-91.166 -63 -125.499 -111s-57.166 -104 -68.499 -168c-4 -24 -6 -47.333 -6 -70c0 -50.667 10.333 -94.5 31 -131.5s49.5 -65.5 86.5 -85.5s79.5 -30 127.5 -30c53.333 0 103.833 12 151.5 36s88.334 58.167 122.001 102.5s57.167 96.5 70.5 156.5h-313l7 37h359l-6 -30
c-13.333 -65.333 -39.166 -123.833 -77.499 -175.5s-85.5 -92.334 -141.5 -122.001s-115.667 -44.5 -179 -44.5c-56.667 0 -106.5 11.667 -149.5 35s-76.333 56.5 -100 99.5s-35.5 92.5 -35.5 148.5c0 25.333 2.33301 50 7 74c12 69.333 37.5 131.166 76.5 185.499z" />
    <glyph glyph-name="H" unicode="H" horiz-adv-x="664" 
d="M657 702l-125 -702h-45l61 341h-409l-61 -341h-45l125 702h45l-58 -325h409l58 325h45z" />
    <glyph glyph-name="I" unicode="I" horiz-adv-x="210" 
d="M203 702l-125 -702h-45l125 702h45z" />
    <glyph glyph-name="J" unicode="J" horiz-adv-x="463" 
d="M450 702l-96.001 -545c-8.66699 -48.667 -30.667 -88.167 -66 -118.5s-78.666 -45.5 -129.999 -45.5c-46.667 0 -82.5 12.167 -107.5 36.5s-37.5 58.833 -37.5 103.5c0 16.667 1.33301 32 4 46h45c-2.66699 -18.667 -4 -32 -4 -40c0 -32 8.66699 -57.667 26 -77
s44.333 -29 81 -29c42.667 0 75.667 12.167 99 36.5s38.333 53.5 45 87.5l96 545h45z" />
    <glyph glyph-name="K" unicode="K" horiz-adv-x="531" 
d="M179 350l281 -350h-59l-264 329l-59 -329h-45l125 702h45l-59 -333l382 333h57z" />
    <glyph glyph-name="L" unicode="L" horiz-adv-x="408" 
d="M85 36h261l-7 -36h-306l125 702h45z" />
    <glyph glyph-name="M" unicode="M" horiz-adv-x="820" 
d="M810 687l-122 -687h-45l106 594l-370 -594h-36l-160 590l-105 -590h-45l122 687h47l170 -627l391 627h47z" />
    <glyph glyph-name="N" unicode="N" horiz-adv-x="667" 
d="M535 0h-45l-301 628l-111 -628h-45l124 701h45l302 -626l110 626h45z" />
    <glyph glyph-name="O" unicode="O" horiz-adv-x="790" 
d="M196.5 27.5c-43 23.667 -76.167 57.167 -99.5 100.5s-35 93 -35 149c0 77.333 17.833 149 53.5 215s84.667 118.5 147 157.5s131.5 58.5 207.5 58.5c57.333 0 107.333 -11.833 150 -35.5s75.667 -57 99 -100s35 -92.5 35 -148.5c0 -78 -17.833 -150 -53.5 -216
s-84.667 -118.5 -147 -157.5s-131.5 -58.5 -207.5 -58.5c-56.667 0 -106.5 11.833 -149.5 35.5zM533.5 86c54.333 35.333 96.832 82.834 127.499 142.501s46 124.167 46 193.5c0 50.667 -10.167 94.5 -30.5 131.5s-49 65.333 -86 85s-79.5 29.5 -127.5 29.5
c-67.333 0 -128 -17.833 -182 -53.5s-96.333 -83.334 -127 -143.001s-46 -123.5 -46 -191.5c0 -50.667 10.333 -94.5 31 -131.5s49.334 -65.5 86.001 -85.5s79 -30 127 -30c66.667 0 127.167 17.667 181.5 53z" />
    <glyph glyph-name="P" unicode="P" horiz-adv-x="546" 
d="M463.5 359.5c-45 -34.333 -105.5 -51.5 -181.5 -51.5h-149l-55 -308h-45l125 702h194c67.333 0 117.333 -13.5 150 -40.5s49 -64.5 49 -112.5c0 -16 -1.33301 -31 -4 -45c-10.667 -62 -38.5 -110.167 -83.5 -144.5zM501 504c2.66699 13.333 4 27.667 4 43
c0 77.333 -53.333 116 -160 116h-149l-56 -316h149c124 0 194.667 52.333 212 157z" />
    <glyph glyph-name="Q" unicode="Q" horiz-adv-x="791" 
d="M723 257c-20.667 -52.667 -49.667 -98.999 -87 -138.999s-80.666 -71 -129.999 -93l167 -168h-64l-150 151c-38.667 -10.667 -76.334 -16 -113.001 -16c-56.667 0 -106.5 11.833 -149.5 35.5s-76.167 57.167 -99.5 100.5s-35 93 -35 149c0 77.333 17.833 149 53.5 215
s84.667 118.5 147 157.5s131.5 58.5 207.5 58.5c57.333 0 107.333 -11.833 150 -35.5s75.667 -57 99 -100s35 -92.5 35 -148.5c0 -58.667 -10.333 -114.334 -31 -167.001zM139 148.501c20.667 -37 49.333 -65.499 86 -85.499s79 -30 127 -30
c66.667 0 127.167 17.667 181.5 53s96.833 82.833 127.5 142.5s46 124.167 46 193.5c0 50.667 -10.167 94.5 -30.5 131.5s-49 65.333 -86 85s-79.5 29.5 -127.5 29.5c-67.333 0 -128 -17.833 -182 -53.5s-96.333 -83.334 -127 -143.001s-46 -123.5 -46 -191.5
c0 -50.667 10.333 -94.5 31 -131.5z" />
    <glyph glyph-name="R" unicode="R" horiz-adv-x="561" 
d="M503 659.5c33.333 -28.333 50 -66.834 50 -115.501c0 -15.333 -1.33301 -29.666 -4 -42.999c-10 -54 -33.167 -98.5 -69.5 -133.5s-84.5 -56.5 -144.5 -64.5l131 -303h-54l-127 299h-4h-149l-54 -299h-45l125 702h193c68 0 118.667 -14.167 152 -42.5zM506 541.999
c0 80.667 -54 120.999 -162 120.999h-148l-58 -326h150c62 0 111 15 147 45s58.333 69.667 67 119c2.66699 12.667 4 26.334 4 41.001z" />
    <glyph glyph-name="S" unicode="S" horiz-adv-x="547" 
d="M126.5 17c-31.667 16 -54.8311 37.668 -69.498 65.001s-20.667 57.666 -18 90.999h45c-1.33301 -22 2.66699 -43.833 12 -65.5s26.333 -39.834 51 -54.501s57.334 -22 98.001 -22c54.667 0 98.5 14.5 131.5 43.5s49.5 67.5 49.5 115.5
c0 28.667 -7.33301 52.334 -22 71.001s-32.5 33.667 -53.5 45s-49.833 24 -86.5 38c-38.667 15.333 -69.334 29.166 -92.001 41.499s-41.834 29 -57.501 50s-23.5 47.5 -23.5 79.5c0 4.66699 0.666992 13 2 25c3.33301 31.333 14.666 59.833 33.999 85.5s45.5 46 78.5 61
s71.167 22.5 114.5 22.5c42 0 78 -7.5 108 -22.5s52.333 -34.667 67 -59s21.334 -50.166 20.001 -77.499h-46c0.666992 18 -4.5 36.5 -15.5 55.5s-28.167 34.667 -51.5 47s-52 18.5 -86 18.5c-52 0 -94.833 -13.167 -128.5 -39.5s-50.5 -62.5 -50.5 -108.5
c0 -25.333 6.83301 -46.5 20.5 -63.5s30.667 -31 51 -42s47.833 -23.167 82.5 -36.5c39.333 -16 71 -30.5 95 -43.5s44.333 -31 61 -54s25 -51.833 25 -86.5c0 -5.33301 -0.666992 -15.333 -2 -30c-4 -32 -15.5 -61.167 -34.5 -87.5s-45.167 -47.333 -78.5 -63
s-72 -23.5 -116 -23.5c-44.667 0 -82.834 8 -114.501 24z" />
    <glyph glyph-name="T" unicode="T" horiz-adv-x="495" 
d="M545 702l-7 -37h-200l-117 -665h-45l117 665h-200l7 37h445z" />
    <glyph glyph-name="U" unicode="U" horiz-adv-x="645" 
d="M199 702l-78 -438c-4 -24.667 -6 -47.334 -6 -68.001c0 -56 14.667 -97.167 44 -123.5s70 -39.5 122 -39.5c61.333 0 112.833 18.5 154.5 55.5s69.5 95.5 83.5 175.5l78 438h45l-78 -438c-16 -91.333 -49.833 -159.333 -101.5 -204s-114.5 -67 -188.5 -67
c-63.333 0 -113.333 16.333 -150 49s-55 82.334 -55 149.001c0 24.667 2.33301 49 7 73l78 438h45z" />
    <glyph glyph-name="V" unicode="V" horiz-adv-x="639" 
d="M153 702l127 -645l357 645h50l-392 -702h-50l-143 702h51z" />
    <glyph glyph-name="W" unicode="W" horiz-adv-x="929" 
d="M974 702l-318 -702h-49l-81 631l-304 -631h-49l-67 702h50l55 -636l304 636h52l76 -636l281 636h50z" />
    <glyph glyph-name="X" unicode="X" horiz-adv-x="543" 
d="M310 351l148 -351h-51l-133 315l-237 -315h-51l272 354l-147 348h51l131 -311l239 311h51z" />
    <glyph glyph-name="Y" unicode="Y" horiz-adv-x="541" 
d="M591 702l-296 -418l-50 -284h-45l50 284l-149 418h52l127 -375l259 375h52z" />
    <glyph glyph-name="Z" unicode="Z" horiz-adv-x="506" 
d="M50 40h376l-8 -40h-428l7 38l479 623h-360l8 41h411l-7 -39z" />
    <glyph glyph-name="bracketleft" unicode="[" horiz-adv-x="300" 
d="M343 937l-7 -39h-81l-184 -1042h81l-7 -39h-124l197 1120h125z" />
    <glyph glyph-name="backslash" unicode="\" horiz-adv-x="463" 
d="M280 -161l-136 1098h47l134 -1098h-45z" />
    <glyph glyph-name="bracketright" unicode="]" horiz-adv-x="300" 
d="M118 -185h-125l7 38h81l184 1043h-81l6 38h125z" />
    <glyph glyph-name="asciicircum" unicode="^" horiz-adv-x="579" 
d="M67 172h-46l322 514h38l141 -514h-46l-123 456z" />
    <glyph glyph-name="underscore" unicode="_" horiz-adv-x="603" 
d="M489 -33l-7 -41h-481l7 41h481z" />
    <glyph glyph-name="grave" unicode="`" horiz-adv-x="264" 
d="M289 624l-6 -37l-174 124l8 44z" />
    <glyph glyph-name="a" unicode="a" horiz-adv-x="673" 
d="M112.5 419c29.667 42 66.498 74.333 110.498 97s91.333 34 142 34c56.667 0 102.5 -14 137.5 -42s56.833 -63.667 65.5 -107l25 142h45l-97 -543h-44l25 143c-23.333 -44 -57.666 -80.167 -102.999 -108.5s-96.666 -42.5 -153.999 -42.5c-66 0 -118.833 19.5 -158.5 58.5
s-59.5 91.833 -59.5 158.5c0 20 2 41 6 63c10 56 29.833 105 59.5 147zM549.998 325c0 56.667 -17.002 101.833 -51.002 135.5s-79 50.5 -135 50.5c-44 0 -84.5 -9.5 -121.5 -28.5s-68 -46.5 -93 -82.5s-41.833 -78.667 -50.5 -128c-3.33301 -22 -5 -40.667 -5 -56
c0 -58 16.5 -103.167 49.5 -135.5s78.167 -48.5 135.5 -48.5c42 0 81.833 9.83301 119.5 29.5s69.334 47.667 95.001 84s42.834 78.5 51.501 126.5c3.33301 20 5 37.667 5 53z" />
    <glyph glyph-name="b" unicode="b" horiz-adv-x="673" 
d="M252.5 508c45 28 95.8359 42 152.503 42c67.333 0 120.666 -19.167 159.999 -57.5s59 -90.833 59 -157.5c0 -20 -2 -41 -6 -63c-10 -56 -29.833 -105.167 -59.5 -147.5s-66.334 -75 -110.001 -98s-90.834 -34.5 -141.501 -34.5c-56.667 0 -102.5 14 -137.5 42
s-57.167 64 -66.5 108l-25 -142h-45l131 740h45l-60 -340c24 44 58.5 80 103.5 108zM577.003 329c0 57.333 -16.666 101.999 -49.999 133.999s-78.333 48 -135 48c-42 0 -81.667 -9.83301 -119 -29.5s-69 -47.667 -95 -84s-43.333 -78.166 -52 -125.499
c-3.33301 -21.333 -5 -39 -5 -53c0 -57.333 17.167 -102.833 51.5 -136.5s79.166 -50.5 134.499 -50.5c44 0 84.5 9.66699 121.5 29s68 47 93 83s41.833 78.667 50.5 128c3.33301 16.667 5 35.667 5 57z" />
    <glyph glyph-name="c" unicode="c" horiz-adv-x="621" 
d="M113 420c30 42 66.832 74.1641 110.499 96.4971s90.834 33.5 141.501 33.5c68 0 120.833 -17 158.5 -51s56.834 -79.667 57.501 -137h-47c-0.666992 46 -16.834 82.5 -48.501 109.5s-74.167 40.5 -127.5 40.5c-39.333 0 -77 -8.83301 -113 -26.5s-67 -44.667 -93 -81
s-43.667 -80.5 -53 -132.5c-4 -20.667 -6 -40.667 -6 -60c0 -58.667 16.833 -103.5 50.5 -134.5s76.834 -46.5 129.501 -46.5c53.333 0 100.5 13.333 141.5 40s70.167 63.334 87.5 110.001h48c-21.333 -57.333 -57 -103.166 -107 -137.499s-109 -51.5 -177 -51.5
c-66.667 0 -119.834 19.167 -159.501 57.5s-59.5 90.833 -59.5 157.5c0 20.667 2 42.334 6 65.001c10 56.667 30 106 60 148z" />
    <glyph glyph-name="d" unicode="d" horiz-adv-x="673" 
d="M112.5 419c29.667 42 66.498 74.333 110.498 97s91.333 34 142 34c55.333 0 100.833 -13.833 136.5 -41.5s57.834 -63.5 66.501 -107.5l60 339h44l-131 -740h-44l26 144c-23.333 -44.667 -57.666 -81.167 -102.999 -109.5s-96.666 -42.5 -153.999 -42.5
c-66.667 0 -119.834 19.5 -159.501 58.5s-59.5 91.833 -59.5 158.5c0 20 2 41 6 63c10 56 29.833 105 59.5 147zM549.998 325c0 56.667 -17.002 101.833 -51.002 135.5s-79 50.5 -135 50.5c-44 0 -84.5 -9.5 -121.5 -28.5s-68 -46.5 -93 -82.5s-41.833 -78.667 -50.5 -128
c-3.33301 -22 -5 -40.667 -5 -56c0 -58 16.5 -103.167 49.5 -135.5s78.167 -48.5 135.5 -48.5c42 0 81.833 9.83301 119.5 29.5s69.334 47.667 95.001 84s42.834 78.5 51.501 126.5c3.33301 20 5 37.667 5 53z" />
    <glyph glyph-name="e" unicode="e" horiz-adv-x="625" 
d="M483.5 523.5c32.333 -17.667 56.666 -41.334 72.999 -71.001s24.5 -62.834 24.5 -99.501c0 -16 -1.33301 -30.667 -4 -44c-4 -24 -8 -42 -12 -54h-469c-2.66699 -21.333 -4 -36.666 -4 -45.999c0 -57.333 17.333 -101.333 52 -132s78.334 -46 131.001 -46
s99.5 13.167 140.5 39.5s70.167 62.166 87.5 107.499h47c-21.333 -55.333 -56.833 -100.166 -106.5 -134.499s-108.167 -51.5 -175.5 -51.5c-66.667 0 -120.167 19.333 -160.5 58s-60.5 91.334 -60.5 158.001c0 20.667 2 42 6 64c10 56.667 30 106 60 148
s66.833 74.167 110.5 96.5s91.167 33.5 142.5 33.5c46 0 85.167 -8.83301 117.5 -26.5zM536 349c0 52.667 -16.833 93 -50.5 121s-76.167 42 -127.5 42c-38 0 -74.667 -8.33301 -110 -25s-66 -41.667 -92 -75s-44 -74 -54 -122h427c4.66699 19.333 7 39 7 59z" />
    <glyph glyph-name="f" unicode="f" horiz-adv-x="322" 
d="M249.5 679c-23.667 -20 -39.5 -52.666 -47.5 -97.999l-7 -38h141l-7 -40h-141l-89 -503h-45l88 503h-81l7 40h81l7 38c10 57.333 31.833 99.666 65.5 126.999s83.167 41 148.5 41l-7 -40c-52 0 -89.833 -10 -113.5 -30z" />
    <glyph glyph-name="g" unicode="g" horiz-adv-x="673" 
d="M503 508.5c35.333 -27.667 57 -63.1689 65 -106.502l25 141h45l-99 -560c-9.33301 -50 -28.166 -93.833 -56.499 -131.5s-63 -66.667 -104 -87s-84.5 -30.5 -130.5 -30.5c-68 0 -121.5 16.333 -160.5 49s-60.167 76.667 -63.5 132h45
c5.33301 -43.333 24 -77.833 56 -103.5s75.333 -38.5 130 -38.5c38 0 73.833 8.5 107.5 25.5s62.167 41.333 85.5 73s38.666 68.834 45.999 111.501l28 159c-23.333 -43.333 -57.666 -79.166 -102.999 -107.499s-96.333 -42.5 -153 -42.5
c-66.667 0 -119.834 19.5 -159.501 58.5s-59.5 91.833 -59.5 158.5c0 20 2 41 6 63c10 56 29.833 105 59.5 147s66.5 74.333 110.5 97s91.333 34 142 34c56.667 0 102.667 -13.833 138 -41.5zM550 324.998c0 56.667 -17.002 101.833 -51.002 135.5s-79 50.5 -135 50.5
c-44 0 -84.5 -9.5 -121.5 -28.5s-68 -46.5 -93 -82.5s-41.833 -78.667 -50.5 -128c-3.33301 -22 -5 -40.667 -5 -56c0 -58 16.5 -103.167 49.5 -135.5s78.167 -48.5 135.5 -48.5c42 0 81.833 9.83301 119.5 29.5s69.334 47.667 95.001 84s42.834 78.5 51.501 126.5
c3.33301 20 5 37.667 5 53z" />
    <glyph glyph-name="h" unicode="h" horiz-adv-x="623" 
d="M509 509.5c33.333 -29.667 49.998 -73.499 49.998 -131.499c0 -18 -2 -38 -6 -60l-56 -318h-44l56 315c3.33301 21.333 5 39 5 53c0 48 -13.333 84.5 -40 109.5s-64 37.5 -112 37.5c-58.667 0 -108.667 -18.833 -150 -56.5s-68.666 -92.834 -81.999 -165.501v1l-52 -294
h-45l131 740h45l-55 -313c22.667 41.333 53.834 72.833 93.501 94.5s83.167 32.5 130.5 32.5c54 0 97.667 -14.833 131 -44.5z" />
    <glyph glyph-name="i" unicode="i" horiz-adv-x="210" 
d="M150 672.5c-6 5.66699 -8.99902 13.167 -8.99902 22.5c0 13.333 4.66699 24.5 14 33.5s20 13.5 32 13.5c9.33301 0 17.166 -3 23.499 -9s9.5 -13.667 9.5 -23c0 -13.333 -4.83301 -24.333 -14.5 -33s-20.5 -13 -32.5 -13c-9.33301 0 -17 2.83301 -23 8.5zM175.001 543
l-97 -543h-45l97 543h45z" />
    <glyph glyph-name="j" unicode="j" horiz-adv-x="217" 
d="M157.5 672.5c-6.33301 5.66699 -9.5 13.167 -9.5 22.5c0 13.333 4.66699 24.5 14 33.5s20 13.5 32 13.5c9.33301 0 17.166 -3 23.499 -9s9.5 -13.667 9.5 -23c0 -13.333 -4.66699 -24.333 -14 -33s-20 -13 -32 -13c-9.33301 0 -17.166 2.83301 -23.499 8.5zM61 -140
c-6.66699 -38.667 -21.168 -67.667 -43.501 -87s-53.833 -29 -94.5 -29h-42l6 40h37c28 0 49.333 6 64 18s24.334 32.667 29.001 62l120 679h45z" />
    <glyph glyph-name="k" unicode="k" horiz-adv-x="437" 
d="M159 273l218 -273h-62l-193 249l-44 -249h-45l131 740h45l-78 -443l276 246h63z" />
    <glyph glyph-name="l" unicode="l" horiz-adv-x="210" 
d="M209 740l-131 -740h-45l131 740h45z" />
    <glyph glyph-name="m" unicode="m" horiz-adv-x="1013" 
d="M901 509.5c32 -29.667 48 -73.5039 48 -131.504c0 -18 -2 -38 -6 -60l-57 -318h-44l56 315c3.33301 16.667 5 35.334 5 56.001c0 46.667 -12.5 82.334 -37.5 107.001s-60.167 37 -105.5 37c-56 0 -104.5 -19.333 -145.5 -58s-67.833 -94.667 -80.5 -168v1l-52 -290h-44
l56 315c3.33301 16.667 5 35.334 5 56.001c0 46.667 -12.5 82.334 -37.5 107.001s-60.167 37 -105.5 37c-56 0 -104.5 -19.333 -145.5 -58s-67.833 -94.667 -80.5 -168v2l-52 -291h-45l97 543h45l-21 -116c23.333 42 54 73.667 92 95s79 32 123 32
c49.333 0 89.5 -12.667 120.5 -38s48.833 -63 53.5 -113c22 49.333 53.667 86.833 95 112.5s86.333 38.5 135 38.5c53.333 0 96 -14.833 128 -44.5z" />
    <glyph glyph-name="n" unicode="n" horiz-adv-x="623" 
d="M509 509.5c33.333 -29.667 50.001 -73.5 50.001 -131.5c0 -18 -2 -38 -6 -60l-56 -318h-44l56 315c3.33301 21.333 5 39 5 53c0 48 -13.333 84.5 -40 109.5s-64 37.5 -112 37.5c-56 0 -104.333 -17.333 -145 -52s-68.667 -85.667 -84 -153l-55 -310h-45l97 543h45
l-20 -114c22.667 40.667 53.5 71.667 92.5 93s81.833 32 128.5 32c55.333 0 99.666 -14.833 132.999 -44.5z" />
    <glyph glyph-name="o" unicode="o" horiz-adv-x="645" 
d="M109.5 51c-41 39.333 -61.5 92.667 -61.5 160c0 61.333 13.833 118 41.5 170s66.167 93.167 115.5 123.5s104.333 45.5 165 45.5c44 0 83 -8.83301 117 -26.5s60.5 -43 79.5 -76s28.5 -71.833 28.5 -116.5c0 -61.333 -14 -118 -42 -170s-66.5 -93.167 -115.5 -123.5
s-103.833 -45.5 -164.5 -45.5c-68 0 -122.5 19.667 -163.5 59zM418.5 72.001c41 27.333 73.001 63.6689 96.001 109.002s34.5 94.666 34.5 147.999c0 59.333 -17.667 104.666 -53 135.999s-79.666 47 -132.999 47c-52.667 0 -99.334 -13.667 -140.001 -41
s-72.334 -63.833 -95.001 -109.5s-34 -94.834 -34 -147.501c0 -59.333 17.5 -104.666 52.5 -135.999s79.167 -47 132.5 -47c52 0 98.5 13.667 139.5 41z" />
    <glyph glyph-name="p" unicode="p" horiz-adv-x="673" 
d="M252 507.5c45.333 28.333 96.3369 42.502 153.004 42.502c67.333 0 120.666 -19.167 159.999 -57.5s59 -90.833 59 -157.5c0 -20 -2 -41 -6 -63c-10 -56 -29.833 -105.167 -59.5 -147.5s-66.334 -75 -110.001 -98s-90.834 -34.5 -141.501 -34.5
c-56.667 0 -102.667 14.167 -138 42.5s-57.333 64.166 -66 107.499l-70 -398h-44l141 799h44l-25 -143c23.333 43.333 57.666 79.166 102.999 107.499zM577.004 329.002c0 57.333 -16.666 101.999 -49.999 133.999s-78.333 48 -135 48c-42 0 -81.667 -9.83301 -119 -29.5
s-69 -47.667 -95 -84s-43.333 -78.166 -52 -125.499c-3.33301 -21.333 -5 -39 -5 -53c0 -57.333 17.167 -102.833 51.5 -136.5s79.166 -50.5 134.499 -50.5c44 0 84.5 9.66699 121.5 29s68 47 93 83s41.833 78.667 50.5 128c3.33301 16.667 5 35.667 5 57z" />
    <glyph glyph-name="q" unicode="q" horiz-adv-x="673" 
d="M112.5 419c29.667 42 66.501 74.332 110.501 96.999s91.333 34 142 34c56.667 0 102.667 -14 138 -42s57 -63.667 65 -107l25 142h45l-141 -799h-45l70 398c-22.667 -43.333 -56.834 -79.166 -102.501 -107.499s-97.167 -42.5 -154.5 -42.5
c-66 0 -118.833 19.5 -158.5 58.5s-59.5 91.833 -59.5 158.5c0 20 2 41 6 63c10 56 29.833 105 59.5 147zM550.001 324.999c0 56.667 -17.002 101.833 -51.002 135.5s-79 50.5 -135 50.5c-44 0 -84.5 -9.5 -121.5 -28.5s-68 -46.5 -93 -82.5s-41.833 -78.667 -50.5 -128
c-3.33301 -22 -5 -40.667 -5 -56c0 -58 16.5 -103.167 49.5 -135.5s78.167 -48.5 135.5 -48.5c42 0 81.833 9.83301 119.5 29.5s69.334 47.667 95.001 84s42.834 78.5 51.501 126.5c3.33301 20 5 37.667 5 53z" />
    <glyph glyph-name="r" unicode="r" horiz-adv-x="350" 
d="M242.5 521c37.667 22 82.5 33 134.5 33l-9 -47h-14c-53.333 0 -100.333 -15.167 -141 -45.5s-67 -79.833 -79 -148.5l-56 -313h-45l97 543h45l-21 -117c21.333 41.333 50.833 73 88.5 95z" />
    <glyph glyph-name="s" unicode="s" horiz-adv-x="497" 
d="M70.5 32c-33 26.667 -47.5 64.6689 -43.5 114.002h45c-3.33301 -35.333 6.83398 -63.5 30.501 -84.5s58.5 -31.5 104.5 -31.5c47.333 0 85 10.5 113 31.5s42 48.167 42 81.5c0 20 -5.66699 36.667 -17 50s-25.333 24 -42 32s-40 17.333 -70 28
c-33.333 11.333 -60.5 22.333 -81.5 33s-38.667 25.5 -53 44.5s-21.5 43.167 -21.5 72.5c0 28.667 8.33301 54.167 25 76.5s39.667 39.666 69 51.999s62 18.5 98 18.5c50 0 91.667 -12.833 125 -38.5s50 -59.5 50 -101.5c0 -8.66699 -0.333008 -15.334 -1 -20.001h-44
c0.666992 3.33301 1 8.66602 1 15.999c0 32 -12.833 57.833 -38.5 77.5s-57.834 29.5 -96.501 29.5c-41.333 0 -75.5 -9.83301 -102.5 -29.5s-40.5 -46.167 -40.5 -79.5c0 -22 6 -40.167 18 -54.5s26.833 -25.666 44.5 -33.999s41.5 -17.833 71.5 -28.5
c33.333 -11.333 59.833 -22 79.5 -32s36.5 -24 50.5 -42s21 -41 21 -69c0 -46.667 -18.833 -83.667 -56.5 -111s-86.5 -41 -146.5 -41c-56 0 -100.5 13.333 -133.5 40z" />
    <glyph glyph-name="t" unicode="t" horiz-adv-x="347" 
d="M126 145c-2.66699 -13.333 -4 -26.665 -4 -39.998c0 -24 6.66699 -40.833 20 -50.5s35.333 -14.5 66 -14.5h60l-7 -40h-68c-40 0 -69.5 7.66699 -88.5 23s-28.5 40.666 -28.5 75.999c0 15.333 1.33301 30.666 4 45.999l64 359h-82l7 39h82l24 138h46l-24 -138h160l-7 -39
h-160z" />
    <glyph glyph-name="u" unicode="u" horiz-adv-x="623" 
d="M588 543l-96.001 -543.002h-45l21 117c-22.667 -40.667 -53.667 -71.834 -93 -93.501s-82 -32.5 -128 -32.5c-55.333 0 -99.833 14.833 -133.5 44.5s-50.5 73.834 -50.5 132.501c0 22 1.66699 41.667 5 59l57 316h44l-56 -313c-3.33301 -21.333 -5 -38.666 -5 -51.999
c0 -48.667 13.333 -85.5 40 -110.5s64 -37.5 112 -37.5c58.667 0 108.834 18.833 150.501 56.5s68.5 92.834 80.5 165.501v-3l52 294h45z" />
    <glyph glyph-name="v" unicode="v" horiz-adv-x="531" 
d="M227 53l285 490h49l-321 -543h-47l-128 543h48z" />
    <glyph glyph-name="w" unicode="w" horiz-adv-x="809" 
d="M839 543l-267 -543h-43l-88 482l-259 -482h-43l-74 543h47l60 -486l259 486h44l86 -486l232 486h46z" />
    <glyph glyph-name="x" unicode="x" horiz-adv-x="438" 
d="M245 274l127 -274h-52l-111 238l-193 -238h-48l224 274l-125 269h52l108 -232l189 232h48z" />
    <glyph glyph-name="y" unicode="y" horiz-adv-x="524" 
d="M114 543l117 -487l275 487h48l-457 -798h-49l147 256l-130 542h49z" />
    <glyph glyph-name="z" unicode="z" horiz-adv-x="424" 
d="M43 38h305l-7 -38h-356l7 38l380 467h-291l7 38h342l-7 -38z" />
    <glyph glyph-name="braceleft" unicode="{" horiz-adv-x="354" 
d="M84 393c44.667 11.333 76.5029 27.8311 95.5029 49.498s31.5 48.834 37.5 81.501c4 23.333 6.66699 48.5 8 75.5s2 43.5 2 49.5c0.666992 31.333 1.66699 57.333 3 78s4 41.334 8 62.001c8 48.667 26.5 84.5 55.5 107.5s66.167 34.5 111.5 34.5h40l-7 -40h-34
c-34 0 -61.333 -8.16699 -82 -24.5s-34.334 -42.833 -41.001 -79.5c-4.66699 -26.667 -7.66699 -54.834 -9 -84.501s-2 -47.5 -2 -53.5c0 -5.33301 -0.666992 -22 -2 -50s-4 -53.333 -8 -76c-14 -83.333 -60 -133 -138 -149v-2c31.333 -10 54 -23 68 -39s21 -38 21 -66
c0 -18 -3.33301 -40.833 -10 -68.5s-16.667 -63.5 -30 -107.5c-12.667 -41.333 -22.334 -75.166 -29.001 -101.499s-10 -47.833 -10 -64.5c0 -47.333 29.667 -71 89 -71h35l-7 -40h-41c-38.667 0 -68.5 8.66699 -89.5 26s-31.5 43.666 -31.5 78.999
c0 18.667 3.66699 42.334 11 71.001s17.666 65 30.999 109c12.667 43.333 22.167 77.333 28.5 102s9.5 44.667 9.5 60c0 24 -6.5 42.667 -19.5 56s-36.5 25 -70.5 35z" />
    <glyph glyph-name="bar" unicode="|" horiz-adv-x="226" 
d="M70 -93h-45l155 877h45z" />
    <glyph glyph-name="braceright" unicode="}" horiz-adv-x="354" 
d="M209 299.5c-18.667 -23 -30.6689 -49.165 -36.002 -78.498c-5.33301 -31.333 -8.66602 -74 -9.99902 -128c-1.33301 -56.667 -5 -102.334 -11 -137.001c-8.66699 -48.667 -27.5 -84.5 -56.5 -107.5s-65.833 -34.5 -110.5 -34.5h-41l7 40h35c34 0 61.333 8.16699 82 24.5
s34 42.833 40 79.5c6 34.667 9.66699 81.667 11 141c0 6 0.666992 22.5 2 49.5s4 51.5 8 73.5c6 38 21 70.167 45 96.5s56.667 44.166 98 53.499v2c-62 15.333 -93 53.666 -93 114.999c0 10.667 1 22 3 34c4.66699 22.667 15.667 62.667 33 120
c8 23.333 15.667 47.833 23 73.5s12.666 49.167 15.999 70.5c2 11.333 3 21.333 3 30c0 49.333 -29.667 74 -89 74h-34l7 40h40c80.667 0 121 -35 121 -105c0 -11.333 -1 -23.666 -3 -36.999c-7.33301 -37.333 -20 -83 -38 -137c-7.33301 -22 -14.166 -44.333 -20.499 -67
s-11.166 -43 -14.499 -61c-2 -10 -3 -20 -3 -30c0 -50 29.667 -83.667 89 -101l-7 -41c-45.333 -12 -77.333 -29.5 -96 -52.5z" />
    <glyph glyph-name="asciitilde" unicode="~" horiz-adv-x="450" 
d="M89 349c21.333 18.667 46.333 27.999 75 27.999c16.667 0 30.834 -3 42.501 -9s24.834 -15 39.501 -27c13.333 -10.667 24.666 -18.5 33.999 -23.5s20.333 -7.5 33 -7.5c16.667 0 32.167 6.33301 46.5 19s24.833 28.334 31.5 47.001h37
c-12 -34.667 -29 -61.334 -51 -80.001s-47.333 -28 -76 -28c-16 0 -29.833 3 -41.5 9s-24.834 14.667 -39.501 26c-12.667 10 -24 17.667 -34 23s-21.333 8 -34 8c-16.667 0 -32 -6.16699 -46 -18.5s-24.667 -28.166 -32 -47.499h-36c12.667 35.333 29.667 62.333 51 81z
" />
    <glyph glyph-name="uni00A0" unicode="&#xa0;" horiz-adv-x="293" 
 />
    <glyph glyph-name="exclamdown" unicode="&#xa1;" horiz-adv-x="284" 
d="M215 548.5c6 -5.66699 9 -13.167 9 -22.5c0 -13.333 -4.66699 -24.5 -14 -33.5s-20.333 -13.5 -33 -13.5c-9.33301 0 -17 2.83301 -23 8.5s-9 13.167 -9 22.5c0 13.333 4.66699 24.5 14 33.5s20.333 13.5 33 13.5c9.33301 0 17 -2.83301 23 -8.5zM44 -148l100 531h39
l-89 -531h-50z" />
    <glyph glyph-name="cent" unicode="&#xa2;" horiz-adv-x="615" 
d="M237 456c-33.333 -16 -61.8369 -40 -85.5039 -72s-39.834 -71 -48.501 -117c-3.33301 -20 -5 -36.333 -5 -49c0 -53.333 15.833 -93.833 47.5 -121.5s72.834 -41.5 123.501 -41.5c50 0 93.833 13.167 131.5 39.5s64.834 62.5 81.501 108.5h43
c-18 -54.667 -49.333 -99 -94 -133s-97.667 -52 -159 -54l-19 -108h-32l20 109c-58 4 -103.5 23.333 -136.5 58s-49.5 80.334 -49.5 137.001c0 15.333 1.66699 33.666 5 54.999c12.667 72 43.334 130.333 92.001 175s107.334 69.667 176.001 75l18 102h32l-18 -101
c60.667 -2 107.5 -20 140.5 -54s48.833 -78 47.5 -132h-43c0 45.333 -14.5 81.333 -43.5 108s-68.5 40 -118.5 40c-37.333 0 -72.666 -8 -105.999 -24z" />
    <glyph glyph-name="sterling" unicode="&#xa3;" horiz-adv-x="568" 
d="M520.5 665.5c29.667 -32.333 44.498 -74.1709 44.498 -125.504c0 -9.33301 -0.333008 -16.666 -1 -21.999h-43c0.666992 4.66699 1 11.334 1 20.001c0 40.667 -12.333 73.667 -37 99s-59 38 -103 38s-83.167 -13.333 -117.5 -40s-56.166 -66 -65.499 -118
c-2.66699 -15.333 -4 -31.666 -4 -48.999c0 -22 2 -44.667 6 -68s6.66699 -38.333 8 -45h193l-6 -34h-181c3.33301 -20 5 -38.333 5 -55s-1.33301 -31.667 -4 -45c-6 -34.667 -17.833 -66.167 -35.5 -94.5s-42.834 -57.5 -75.501 -87.5h371l-7 -40h-411l-3 31
c35.333 34 62.333 64.333 81 91s31.334 58.667 38.001 96c2 15.333 3 29.333 3 42c0 21.333 -2 42 -6 62h-115l6 34h103c-9.33301 44 -14 79.667 -14 107c0 15.333 1.66699 34 5 56c6.66699 38 20.834 71.833 42.501 101.5s49 52.834 82 69.501s69.167 25 108.5 25
c58 0 101.833 -16.167 131.5 -48.5z" />
    <glyph glyph-name="currency" unicode="&#xa4;" horiz-adv-x="514" 
d="M419 489c12.667 -22 19 -47.333 19 -76c0 -10.667 -1 -22.667 -3 -36c-8 -43.333 -26.333 -80.333 -55 -111l51 -60l-28 -23l-49 59c-34 -26 -71 -39 -111 -39c-41.333 0 -74 13 -98 39l-69 -59l-20 23l72 60c-11.333 22.667 -17 47 -17 73c0 8 1.33301 20.667 4 38
c8 44 25.667 81.333 53 112l-51 61l28 23l50 -60c34 25.333 70.667 38 110 38c38.667 0 70.667 -12.667 96 -38l71 60l20 -23zM399 410c0 33.333 -9.5 60 -28.5 80s-42.833 30 -71.5 30c-34.667 0 -65.5 -13 -92.5 -39s-44.5 -60.667 -52.5 -104
c-2 -12.667 -3 -24.667 -3 -36c0 -34 9 -60.333 27 -79s41.667 -28 71 -28c33.333 0 64.333 13 93 39s46.667 60.667 54 104c2 12 3 23 3 33z" />
    <glyph glyph-name="yen" unicode="&#xa5;" horiz-adv-x="574" 
d="M366 359h161l-6 -35l-180 -1l-28 -39l-10 -57h201l-7 -36h-200l-34 -191h-45l34 191h-200l7 36h199l10 57l-14 39l-178 1l6 35h159l-121 343h51l127 -375l259 375h52z" />
    <glyph glyph-name="brokenbar" unicode="&#xa6;" horiz-adv-x="226" 
d="M180 784h45l-64 -360h-45zM70 -93h-45l64 361h45z" />
    <glyph glyph-name="section" unicode="&#xa7;" horiz-adv-x="569" 
d="M485 569c2.66699 34.667 -7.5 65.166 -30.5 91.499s-60.5 39.5 -112.5 39.5c-43.333 0 -79.166 -8.5 -107.499 -25.5s-45.5 -41.833 -51.5 -74.5c-1.33301 -9.33301 -2 -15.666 -2 -18.999c0 -24.667 11.167 -45.334 33.5 -62.001s59.833 -32.334 112.5 -47.001
c62.667 -17.333 110.334 -37.5 143.001 -60.5s49 -55.5 49 -97.5c0 -30.667 -8.83301 -60.167 -26.5 -88.5s-43 -52.166 -76 -71.499s-71.5 -30.666 -115.5 -33.999c41.333 -12.667 74.333 -28.334 99 -47.001s37 -44 37 -76c0 -4 -0.666992 -11.333 -2 -22
c-7.33301 -40 -29.5 -73.167 -66.5 -99.5s-83.833 -39.5 -140.5 -39.5c-60.667 0 -107.667 14.5 -141 43.5s-48 69.5 -44 121.5h45c-2 -37.333 8.5 -68.5 31.5 -93.5s61.5 -37.5 115.5 -37.5c42 0 76.833 8.66699 104.5 26s44.5 43 50.5 77
c1.33301 9.33301 2 15.666 2 18.999c0 24 -11.333 44 -34 60s-60.334 31.667 -113.001 47c-62.667 17.333 -110.334 37.333 -143.001 60s-49 55 -49 97c0 30.667 9 60.334 27 89.001s43.667 52.667 77 72s72.333 30.333 117 33c-41.333 12 -74.833 27.833 -100.5 47.5
s-38.5 45.834 -38.5 78.501c0 4.66699 0.666992 11.667 2 21c7.33301 40 30 73 68 99s85.667 39 143 39c59.333 0 105.5 -14.667 138.5 -44s47.5 -70 43.5 -122h-45zM429 389.999c-28.667 20.667 -69.001 30.999 -121.001 30.999c-42 0 -78.833 -7.5 -110.5 -22.5
s-55.834 -34.5 -72.501 -58.5s-25 -49.667 -25 -77c0 -34 14.333 -61.333 43 -82s69.334 -31 122.001 -31c41.333 0 77.833 7.33301 109.5 22s55.834 34.167 72.501 58.5s25 49.833 25 76.5c0 34.667 -14.333 62.334 -43 83.001z" />
    <glyph glyph-name="dieresis" unicode="&#xa8;" horiz-adv-x="317" 
d="M126 634c-6 6 -9.00098 13.667 -9.00098 23c0 11.333 4.5 21.5 13.5 30.5s19.5 13.5 31.5 13.5c8.66699 0 15.834 -3 21.501 -9s8.5 -13.333 8.5 -22c0 -12 -4.33301 -22.5 -13 -31.5s-18.667 -13.5 -30 -13.5c-9.33301 0 -17 3 -23 9zM269.999 634c-6 6 -9 13.667 -9 23
c0 11.333 4.5 21.5 13.5 30.5s19.5 13.5 31.5 13.5c8.66699 0 16 -3 22 -9s9 -13.333 9 -22c0 -12 -4.5 -22.5 -13.5 -31.5s-19.167 -13.5 -30.5 -13.5c-9.33301 0 -17 3 -23 9z" />
    <glyph glyph-name="copyright" unicode="&#xa9;" horiz-adv-x="799" 
d="M628 668.5c43.333 -23 76.6689 -55.499 100.002 -97.499s35 -90.333 35 -145c0 -26 -2.33301 -51 -7 -75c-12 -68 -37 -128.667 -75 -182s-85.667 -95 -143 -125s-119.333 -45 -186 -45c-59.333 0 -110.833 11.667 -154.5 35s-77.167 56 -100.5 98s-35 90.667 -35 146
c0 19.333 2.33301 43.666 7 72.999c12 68 37.167 128.667 75.5 182s86.166 95 143.499 125s119.666 45 186.999 45c58.667 0 109.667 -11.5 153 -34.5zM297.003 635.501c-52.667 -27.667 -96.332 -66.167 -130.999 -115.5s-57.667 -105.666 -69 -168.999
c-4 -24 -6 -47.333 -6 -70c0 -50.667 10.5 -95.334 31.5 -134.001s51.333 -68.834 91 -90.501s87.167 -32.5 142.5 -32.5c63.333 0 121.166 14 173.499 42s95.833 66.833 130.5 116.5s57.334 105.834 68.001 168.501c4.66699 29.333 7 53.333 7 72
c0 50.667 -10.333 95.167 -31 133.5s-50.834 68 -90.501 89s-87.167 31.5 -142.5 31.5c-63.333 0 -121.333 -13.833 -174 -41.5zM343.505 559.501c-35.667 -18.333 -66.333 -45.334 -92 -81.001s-42.834 -77.834 -51.501 -126.501c-3.33301 -21.333 -5 -39.666 -5 -54.999
c0 -57.333 16.667 -102 50 -134s76 -48 128 -48c48 0 93 13.5 135 40.5s74 64.5 96 112.5h-43c-19.333 -37.333 -45 -66 -77 -86s-66.667 -30 -104 -30c-42 0 -76.333 13 -103 39s-40 63 -40 111c0 16.667 1.33301 32.667 4 48c8 42.667 22.5 79.167 43.5 109.5
s46 53.166 75 68.499s59.167 23 90.5 23c36.667 0 67.834 -10.167 93.501 -30.5s41.167 -49.166 46.5 -86.499h43c-4.66699 48.667 -23.167 86.334 -55.5 113.001s-72.833 40 -121.5 40c-39.333 0 -76.833 -9.16699 -112.5 -27.5z" />
    <glyph glyph-name="ordfeminine" unicode="&#xaa;" horiz-adv-x="439" 
d="M150 659c36 33.333 78.333 50.001 127 50.001c36.667 0 65.834 -8.83301 87.501 -26.5s34.5 -41.5 38.5 -71.5l16 92h38l-61 -349h-38l16 91c-14.667 -30.667 -35.834 -54.667 -63.501 -72s-59.834 -26 -96.501 -26c-41.333 0 -74.166 13 -98.499 39
s-36.5 60.333 -36.5 103c0 12.667 1 26 3 40c9.33301 53.333 32 96.666 68 129.999zM391 563.001c0 35.333 -10.334 63.166 -31.001 83.499s-48 30.5 -82 30.5c-38 0 -71.667 -13.5 -101 -40.5s-48 -63.167 -56 -108.5c-2 -12 -3 -23.667 -3 -35
c0 -35.333 9.83301 -63.166 29.5 -83.499s45.834 -30.5 78.501 -30.5c40 0 75 13.5 105 40.5s49 63.167 57 108.5c2 12 3 23.667 3 35z" />
    <glyph glyph-name="guillemotleft" unicode="&#xab;" horiz-adv-x="405" 
d="M121 120l-73 175l134 175h49l-137 -175l76 -175h-49zM278 120l-73 175l134 175h50l-137 -175l75 -175h-49z" />
    <glyph glyph-name="logicalnot" unicode="&#xac;" horiz-adv-x="719" 
d="M698 427l-33 -184h-43l26 146h-574l7 38h617z" />
    <glyph glyph-name="uni00AD" unicode="&#xad;" horiz-adv-x="482" 
d="M395 395l-7 -39h-376l7 39h376z" />
    <glyph glyph-name="registered" unicode="&#xae;" horiz-adv-x="494" 
d="M441.5 665.5c29 -29 43.501 -66.501 43.501 -112.501c0 -7.33301 -1.33301 -20.333 -4 -39c-6.66699 -36.667 -20.834 -70 -42.501 -100s-48.5 -53.5 -80.5 -70.5s-66.333 -25.5 -103 -25.5c-48.667 0 -87.5 14.5 -116.5 43.5s-43.5 66.833 -43.5 113.5
c0 7.33301 1.33301 20.333 4 39c6 36.667 19.833 69.834 41.5 99.501s48.5 53 80.5 70s66.667 25.5 104 25.5c48.667 0 87.5 -14.5 116.5 -43.5zM456.001 548.999c0 40 -12.167 72.333 -36.5 97s-57.5 37 -99.5 37c-48.667 0 -90.834 -15.833 -126.501 -47.5
s-57.834 -72.167 -66.501 -121.5c-2 -12 -3 -23.667 -3 -35c0 -40 12.167 -72.5 36.5 -97.5s57.5 -37.5 99.5 -37.5c48.667 0 90.834 16 126.501 48s57.834 72.667 66.501 122c2 12 3 23.667 3 35zM368.501 607.999c10.333 -8.66699 15.5 -21 15.5 -37
c0 -20.667 -6.66699 -37.667 -20 -51s-30.333 -21 -51 -23l47 -89l-36 -1l-45 90h-32l-17 -90h-31l38 214h88c18.667 0 33.167 -4.33301 43.5 -13zM317.001 591.999h-54l-12 -67h54c26 0 41.333 11.333 46 34c4 22 -7.33301 33 -34 33z" />
    <glyph glyph-name="macron" unicode="&#xaf;" horiz-adv-x="388" 
d="M429 688l-6 -35h-324l6 35h324z" />
    <glyph glyph-name="degree" unicode="&#xb0;" horiz-adv-x="375" 
d="M138 646.5c34.667 31.667 75.665 47.5 122.998 47.5c40.667 0 72.834 -12 96.501 -36s35.5 -56.667 35.5 -98c0 -7.33301 -1.33301 -20.333 -4 -39c-9.33301 -52.667 -31.333 -94.834 -66 -126.501s-75.667 -47.5 -123 -47.5c-40.667 0 -72.667 11.833 -96 35.5
s-35 56.167 -35 97.5c0 14.667 1.33301 28.334 4 41.001c8.66699 52 30.334 93.833 65.001 125.5zM353.998 558c0 33.333 -8.83301 59.168 -26.5 77.501s-41.834 27.5 -72.501 27.5c-35.333 0 -66.166 -12.667 -92.499 -38s-43.5 -60 -51.5 -104
c-2.66699 -18.667 -4 -31.667 -4 -39c0 -33.333 8.66699 -59 26 -77s41.333 -27 72 -27c36 0 67.167 12.667 93.5 38s43.5 60.333 51.5 105c2.66699 17.333 4 29.666 4 36.999z" />
    <glyph glyph-name="plusminus" unicode="&#xb1;" horiz-adv-x="623" 
d="M593 425l-8 -40h-233l-39 -220h-43l39 220h-233l8 40h232l36 206h43l-36 -206h234zM33 140h509l-7 -40h-509z" />
    <glyph glyph-name="twosuperior" unicode="&#xb2;" horiz-adv-x="311" 
d="M285 532.5c-18.667 -21.667 -45.998 -46.166 -81.998 -73.499l-100 -75h187l-6 -32h-234l5 25l130 104c27.333 22.667 48.833 43 64.5 61s25.834 39 30.501 63c1.33301 8 2 14 2 18c0 18 -5.5 31.5 -16.5 40.5s-24.833 13.5 -41.5 13.5
c-22.667 0 -41.834 -6.66699 -57.501 -20s-27.167 -32.333 -34.5 -57h-38c7.33301 31.333 22.666 57.166 45.999 77.499s53.333 30.5 90 30.5c28 0 50.333 -7.33301 67 -22s25 -34 25 -58c0 -4.66699 -0.666992 -11.667 -2 -21c-4.66699 -28 -16.334 -52.833 -35.001 -74.5z
" />
    <glyph glyph-name="threesuperior" unicode="&#xb3;" horiz-adv-x="313" 
d="M145.5 682.5c24.333 17 53.832 25.5039 88.499 25.5039c29.333 0 53.166 -7.5 71.499 -22.5s27.5 -34.833 27.5 -59.5s-7.16699 -45.667 -21.5 -63s-34.166 -29 -59.499 -35v-2c35.333 -12 53 -35 53 -69c0 -18.667 -5.5 -36.334 -16.5 -53.001s-27 -30.334 -48 -41.001
s-45.167 -16 -72.5 -16c-35.333 0 -62 8.5 -80 25.5s-25.667 41.833 -23 74.5h38c-2.66699 -46 20.333 -69 69 -69c28 0 50.5 7.33301 67.5 22s25.5 33.667 25.5 57c0 17.333 -6.66699 30.833 -20 40.5s-30.666 14.5 -51.999 14.5h-55l6 29h56
c24 0 44.167 5.83301 60.5 17.5s26.5 28.167 30.5 49.5c0.666992 3.33301 1 7.66602 1 12.999c0 16.667 -5.66699 30 -17 40s-27.333 15 -48 15c-23.333 0 -42.833 -5.33301 -58.5 -16s-27.167 -25.334 -34.5 -44.001h-38c8.66699 27.333 25.167 49.5 49.5 66.5z" />
    <glyph glyph-name="acute" unicode="&#xb4;" horiz-adv-x="260" 
d="M305 711l-218 -124l6 37l220 131z" />
    <glyph glyph-name="uni00B5" unicode="&#xb5;" horiz-adv-x="628" 
d="M593 543l-96.001 -543h-45l23 130c-22.667 -46.667 -53.5 -81.834 -92.5 -105.501s-80.833 -35.5 -125.5 -35.5c-41.333 0 -76.5 9.66699 -105.5 29s-46.833 51.333 -53.5 96l-65 -370h-44l141 799h44l-51 -285c-4 -24 -6 -46 -6 -66c0 -54 13.833 -94.833 41.5 -122.5
s65.834 -41.5 114.501 -41.5c56 0 104 18.833 144 56.5s66.333 92.834 79 165.501v-1l52 294h45z" />
    <glyph glyph-name="paragraph" unicode="&#xb6;" horiz-adv-x="527" 
d="M395 0h-41.001l115 650h-97l-116 -650h-41l52 293h-4c-68 0 -119.167 14 -153.5 42s-51.5 66 -51.5 114c0 8 1.33301 21.333 4 40c10.667 60 39.334 108 86.001 144s108 54 184 54h185z" />
    <glyph glyph-name="periodcentered" unicode="&#xb7;" horiz-adv-x="148" 
d="M3 322.5c-6 5.66699 -9 13.167 -9 22.5c0 13.333 4.66699 24.5 14 33.5s20.333 13.5 33 13.5c9.33301 0 17 -2.83301 23 -8.5s9 -13.167 9 -22.5c0 -13.333 -4.66699 -24.5 -14 -33.5s-20.333 -13.5 -33 -13.5c-9.33301 0 -17 2.83301 -23 8.5z" />
    <glyph glyph-name="cedilla" unicode="&#xb8;" horiz-adv-x="257" 
d="M119.5 -93c19.667 -12 29.502 -30.001 29.502 -54.001c0 -32 -11.833 -58.167 -35.5 -78.5s-54.834 -30.5 -93.501 -30.5h-82l6 34h73c28.667 0 50.167 4.83301 64.5 14.5s23.166 24.167 26.499 43.5c0.666992 2.66699 1 6.33398 1 11.001c0 29.333 -24 44 -72 44h-41
l20 116h35l-15 -85c36 2 63.833 -3 83.5 -15z" />
    <glyph glyph-name="onesuperior" unicode="&#xb9;" horiz-adv-x="169" 
d="M104 673l6 31h93l-63 -352h-38l56 321h-54z" />
    <glyph glyph-name="ordmasculine" unicode="&#xba;" horiz-adv-x="421" 
d="M120.5 622c19.667 27.333 43.999 48.666 72.999 63.999s59.833 23 92.5 23c44 0 79.333 -13 106 -39s40 -60.667 40 -104c0 -13.333 -1.33301 -26.333 -4 -39c-6 -36 -18.833 -67.833 -38.5 -95.5s-44 -49.167 -73 -64.5s-60.167 -23 -93.5 -23
c-43.333 0 -78.166 13.167 -104.499 39.5s-39.5 61.5 -39.5 105.5c0 12.667 1 25.334 3 38.001c6 36 18.833 67.667 38.5 95zM392.999 563c0 36 -10.332 64.001 -30.999 84.001s-47.667 30 -81 30c-38.667 0 -73 -13.333 -103 -40s-49 -63.667 -57 -111
c-2 -12.667 -3 -24.667 -3 -36c0 -36 10.167 -63.833 30.5 -83.5s47.166 -29.5 80.499 -29.5c38 0 72.167 13.167 102.5 39.5s49.5 62.833 57.5 109.5c2.66699 17.333 4 29.666 4 36.999z" />
    <glyph glyph-name="guillemotright" unicode="&#xbb;" horiz-adv-x="405" 
d="M159 295l-75 175h49l72 -175l-133 -175h-49zM316 295l-75 175h50l72 -175l-133 -175h-50z" />
    <glyph glyph-name="onequarter" unicode="&#xbc;" horiz-adv-x="557" 
d="M122 673l6 31h93l-63 -352h-38l56 321h-54zM534 702l-481 -702h-43l481 702h43zM482 74h-52l-14 -74h-38l13 74h-176l5 26l215 254h44l-45 -251h53zM432 303l-170 -200h135z" />
    <glyph glyph-name="onehalf" unicode="&#xbd;" horiz-adv-x="622" 
d="M123 352l56 321h-54l6 31h93l-63 -352h-38zM519 702l-479 -702h-43l479 702h43zM595 179.5c-18.667 -21.667 -45.998 -46.166 -81.998 -73.499l-100 -75h187l-6 -32h-234l5 25l130 104c27.333 22.667 48.833 43 64.5 61s25.834 39 30.501 63c1.33301 8 2 14 2 18
c0 18 -5.5 31.5 -16.5 40.5s-24.833 13.5 -41.5 13.5c-22.667 0 -41.834 -6.66699 -57.501 -20s-27.167 -32.333 -34.5 -57h-38c7.33301 31.333 22.666 57.166 45.999 77.499s53.333 30.5 90 30.5c28 0 50.333 -7.33301 67 -22s25 -34 25 -58
c0 -4.66699 -0.666992 -11.667 -2 -21c-4.66699 -28 -16.334 -52.833 -35.001 -74.5z" />
    <glyph glyph-name="threequarters" unicode="&#xbe;" horiz-adv-x="588" 
d="M161.5 682.5c24.333 17 53.832 25.5039 88.499 25.5039c29.333 0 53.166 -7.5 71.499 -22.5s27.5 -34.833 27.5 -59.5s-7.16699 -45.667 -21.5 -63s-34.166 -29 -59.499 -35v-2c35.333 -12 53 -35 53 -69c0 -18.667 -5.5 -36.334 -16.5 -53.001s-27 -30.334 -48 -41.001
s-45.167 -16 -72.5 -16c-35.333 0 -62 8.5 -80 25.5s-25.667 41.833 -23 74.5h38c-2.66699 -46 20.333 -69 69 -69c28 0 50.5 7.33301 67.5 22s25.5 33.667 25.5 57c0 17.333 -6.66699 30.833 -20 40.5s-30.666 14.5 -51.999 14.5h-55l6 29h56
c24 0 44.167 5.83301 60.5 17.5s26.5 28.167 30.5 49.5c0.666992 3.33301 1 7.66602 1 12.999c0 16.667 -5.66699 30 -17 40s-27.333 15 -48 15c-23.333 0 -42.833 -5.33301 -58.5 -16s-27.167 -25.334 -34.5 -44.001h-38c8.66699 27.333 25.167 49.5 49.5 66.5z
M595.999 702.004l-486 -702h-44l487 702h43zM515.999 74.0039h-52l-14 -74h-38l13 74h-175l4 26l215 254h44l-44 -251h52zM465.999 303.004l-170 -200h135z" />
    <glyph glyph-name="questiondown" unicode="&#xbf;" horiz-adv-x="482" 
d="M384 536.5c6 -5.66699 9 -13.167 9 -22.5c0 -13.333 -4.66699 -24.5 -14 -33.5s-20.333 -13.5 -33 -13.5c-9.33301 0 -17 2.83301 -23 8.5s-9 13.167 -9 22.5c0 13.333 4.66699 24.5 14 33.5s20.333 13.5 33 13.5c9.33301 0 17 -2.83301 23 -8.5zM38.5 -123.5
c-33 29 -49.498 68.167 -49.498 117.5c0 7.33301 1.33301 20.333 4 39c25.333 140.667 123 211.667 293 213l26 128h38l-26 -162h-21c-71.333 0 -130.333 -12.333 -177 -37s-76.334 -72 -89.001 -142c-2 -12 -3 -23 -3 -33c0 -40 13 -71.5 39 -94.5s61 -34.5 105 -34.5
c51.333 0 94.5 14 129.5 42s57.167 65.667 66.5 113h43c-10.667 -59.333 -38.834 -106.333 -84.501 -141s-99.167 -52 -160.5 -52c-56 0 -100.5 14.5 -133.5 43.5z" />
    <glyph glyph-name="Agrave" unicode="&#xc0;" horiz-adv-x="627" 
d="M463 180h-333l-99 -180h-49l379 686h50l136 -686h-49zM456 217l-80 411l-226 -411h306zM486 768l-6 -37l-174 124l8 44z" />
    <glyph glyph-name="Aacute" unicode="&#xc1;" horiz-adv-x="627" 
d="M463 180h-333l-99 -180h-49l379 686h50l136 -686h-49zM456 217l-80 411l-226 -411h306zM502 855l-218 -124l6 37l220 131z" />
    <glyph glyph-name="Acircumflex" unicode="&#xc2;" horiz-adv-x="627" 
d="M463 180h-333l-99 -180h-49l379 686h50l136 -686h-49zM456 217l-80 411l-226 -411h306zM413 840l-143 -82l6 38l144 82l113 -82l-6 -38z" />
    <glyph glyph-name="Atilde" unicode="&#xc3;" horiz-adv-x="627" 
d="M463 180h-333l-99 -180h-49l379 686h50l136 -686h-49zM456 217l-80 411l-226 -411h306zM317.5 808c15.667 14 33.502 21.001 53.502 21.001c12 0 21.833 -2.16699 29.5 -6.5s16.167 -10.833 25.5 -19.5c8.66699 -8 16.167 -13.833 22.5 -17.5s14.5 -5.5 24.5 -5.5
c11.333 0 21.833 4 31.5 12s16.5 19.333 20.5 34h30c-6.66699 -24 -18.167 -43.167 -34.5 -57.5s-34.5 -21.5 -54.5 -21.5c-12.667 0 -22.834 2.16699 -30.501 6.5s-16.834 11.166 -27.501 20.499c-9.33301 7.33301 -17 12.833 -23 16.5s-13.333 5.5 -22 5.5
c-23.333 0 -40 -15.667 -50 -47h-30c7.33301 25.333 18.833 45 34.5 59z" />
    <glyph glyph-name="Adieresis" unicode="&#xc4;" horiz-adv-x="627" 
d="M463 180h-333l-99 -180h-49l379 686h50l136 -686h-49zM456 217l-80 411l-226 -411h306zM307 778c-6 6 -9.00098 13.667 -9.00098 23c0 11.333 4.5 21.5 13.5 30.5s19.5 13.5 31.5 13.5c8.66699 0 15.834 -3 21.501 -9s8.5 -13.333 8.5 -22
c0 -12 -4.33301 -22.5 -13 -31.5s-18.667 -13.5 -30 -13.5c-9.33301 0 -17 3 -23 9zM450.999 778c-6 6 -9 13.667 -9 23c0 11.333 4.5 21.5 13.5 30.5s19.5 13.5 31.5 13.5c8.66699 0 16 -3 22 -9s9 -13.333 9 -22c0 -12 -4.5 -22.5 -13.5 -31.5s-19.167 -13.5 -30.5 -13.5
c-9.33301 0 -17 3 -23 9z" />
    <glyph glyph-name="Aring" unicode="&#xc5;" horiz-adv-x="627" 
d="M463 180h-333l-99 -180h-49l379 686h50l136 -686h-49zM456 217l-80 411l-226 -411h306zM360 921c21.333 17.333 45.335 26.001 72.002 26.001c24 0 43.333 -6.66699 58 -20s22 -31.666 22 -54.999c0 -34 -11.333 -61.833 -34 -83.5s-49.334 -32.5 -80.001 -32.5
c-23.333 0 -42.5 6.83301 -57.5 20.5s-22.5 32.167 -22.5 55.5c0 3.33301 0.666992 9.66602 2 18.999c5.33301 29.333 18.666 52.666 39.999 69.999zM466.502 904.501c-10.333 9 -23.833 13.5 -40.5 13.5c-18.667 0 -35 -6 -49 -18s-23 -28 -27 -48
c-0.666992 -3.33301 -1 -8 -1 -14c0 -16 5 -28.833 15 -38.5s23 -14.5 39 -14.5c21.333 0 39.833 7.66699 55.5 23s23.5 35 23.5 59c0 16 -5.16699 28.5 -15.5 37.5z" />
    <glyph glyph-name="AE" unicode="&#xc6;" horiz-adv-x="859" 
d="M564 665l-52 -295h280l-7 -36h-279l-52 -297h309l-7 -37h-354l32 180h-284l-139 -180h-50l545 702h374l-7 -37h-309zM517 654l-338 -437h261z" />
    <glyph glyph-name="Ccedilla" unicode="&#xc7;" horiz-adv-x="770" 
d="M304.5 629.5c-48.333 -25.667 -89.4971 -62.6689 -123.497 -111.002s-56.667 -104.5 -68 -168.5c-4 -24.667 -6 -48 -6 -70c0 -50.667 10 -94.5 30 -131.5s48 -65.333 84 -85s77.667 -29.5 125 -29.5c67.333 0 126.833 15.5 178.5 46.5s92.5 72.833 122.5 125.5h51
c-34 -62 -78.5 -111.5 -133.5 -148.5s-118.167 -58.167 -189.5 -63.5l-13 -72c36 2 63.833 -3 83.5 -15s29.5 -30 29.5 -54c0 -32 -11.833 -58.167 -35.5 -78.5s-54.834 -30.5 -93.501 -30.5h-82l6 34h73c28.667 0 50.167 4.83301 64.5 14.5s23.166 24.167 26.499 43.5
c0.666992 2.66699 1 6.33398 1 11.001c0 29.333 -24 44 -72 44h-41l18 102h-1c-55.333 0 -104.166 11.833 -146.499 35.5s-75 56.834 -98 99.501s-34.5 91.667 -34.5 147c0 26 2.33301 51 7 75c12.667 69.333 38.167 131.166 76.5 185.499s85.666 96.833 141.999 127.5
s116.166 46 179.499 46c80 0 144 -18.667 192 -56s79 -89.666 93 -156.999h-52c-11.333 52.667 -37.333 94.5 -78 125.5s-94.667 46.5 -162 46.5c-54 0 -105.167 -12.833 -153.5 -38.5z" />
    <glyph glyph-name="Egrave" unicode="&#xc8;" horiz-adv-x="491" 
d="M196 665l-52 -295h280l-7 -36h-279l-53 -297h310l-7 -37h-355l125 702h354l-7 -37h-309zM413 768l-6 -37l-174 124l8 44z" />
    <glyph glyph-name="Eacute" unicode="&#xc9;" horiz-adv-x="491" 
d="M196 665l-52 -295h280l-7 -36h-279l-53 -297h310l-7 -37h-355l125 702h354l-7 -37h-309zM429 855l-218 -124l6 37l220 131z" />
    <glyph glyph-name="Ecircumflex" unicode="&#xca;" horiz-adv-x="491" 
d="M196 665l-52 -295h280l-7 -36h-279l-53 -297h310l-7 -37h-355l125 702h354l-7 -37h-309zM340 840l-143 -82l6 38l144 82l113 -82l-6 -38z" />
    <glyph glyph-name="Edieresis" unicode="&#xcb;" horiz-adv-x="491" 
d="M196 665l-52 -295h280l-7 -36h-279l-53 -297h310l-7 -37h-355l125 702h354l-7 -37h-309zM234 778c-6 6 -9.00098 13.667 -9.00098 23c0 11.333 4.5 21.5 13.5 30.5s19.5 13.5 31.5 13.5c8.66699 0 15.834 -3 21.501 -9s8.5 -13.333 8.5 -22
c0 -12 -4.33301 -22.5 -13 -31.5s-18.667 -13.5 -30 -13.5c-9.33301 0 -17 3 -23 9zM377.999 778c-6 6 -9 13.667 -9 23c0 11.333 4.5 21.5 13.5 30.5s19.5 13.5 31.5 13.5c8.66699 0 16 -3 22 -9s9 -13.333 9 -22c0 -12 -4.5 -22.5 -13.5 -31.5s-19.167 -13.5 -30.5 -13.5
c-9.33301 0 -17 3 -23 9z" />
    <glyph glyph-name="Igrave" unicode="&#xcc;" horiz-adv-x="210" 
d="M203 702l-125 -702h-45l125 702h45zM277 768l-6 -37l-174 124l8 44z" />
    <glyph glyph-name="Iacute" unicode="&#xcd;" horiz-adv-x="210" 
d="M203 702l-125 -702h-45l125 702h45zM293 855l-218 -124l6 37l220 131z" />
    <glyph glyph-name="Icircumflex" unicode="&#xce;" horiz-adv-x="210" 
d="M203 702l-125 -702h-45l125 702h45zM204 840l-143 -82l6 38l144 82l113 -82l-6 -38z" />
    <glyph glyph-name="Idieresis" unicode="&#xcf;" horiz-adv-x="210" 
d="M203 702l-125 -702h-45l125 702h45zM98 778c-6 6 -9.00098 13.667 -9.00098 23c0 11.333 4.5 21.5 13.5 30.5s19.5 13.5 31.5 13.5c8.66699 0 15.834 -3 21.501 -9s8.5 -13.333 8.5 -22c0 -12 -4.33301 -22.5 -13 -31.5s-18.667 -13.5 -30 -13.5c-9.33301 0 -17 3 -23 9z
M241.999 778c-6 6 -9 13.667 -9 23c0 11.333 4.5 21.5 13.5 30.5s19.5 13.5 31.5 13.5c8.66699 0 16 -3 22 -9s9 -13.333 9 -22c0 -12 -4.5 -22.5 -13.5 -31.5s-19.167 -13.5 -30.5 -13.5c-9.33301 0 -17 3 -23 9z" />
    <glyph glyph-name="Eth" unicode="&#xd0;" horiz-adv-x="736" 
d="M622 632c54 -46.667 80.999 -112.999 80.999 -198.999c0 -24.667 -2.66699 -52.334 -8 -83.001c-19.333 -110.667 -66.666 -196.667 -141.999 -258s-172.333 -92 -291 -92h-196l58 330h-105l8 41h105l58 331h196c103.333 0 182 -23.333 236 -70zM655.999 427.001
c0 75.333 -23.168 133.667 -69.501 175s-115.5 62 -207.5 62h-151l-51 -293h218l-7 -41h-219l-51 -294h151c106.667 0 192.334 27.667 257.001 83s105.667 132.333 123 231c4.66699 25.333 7 51 7 77z" />
    <glyph glyph-name="Ntilde" unicode="&#xd1;" horiz-adv-x="667" 
d="M535 0h-45l-301 628l-111 -628h-45l124 701h45l302 -626l110 626h45zM337.5 808c15.667 14 33.502 21.001 53.502 21.001c12 0 21.833 -2.16699 29.5 -6.5s16.167 -10.833 25.5 -19.5c8.66699 -8 16.167 -13.833 22.5 -17.5s14.5 -5.5 24.5 -5.5
c11.333 0 21.833 4 31.5 12s16.5 19.333 20.5 34h30c-6.66699 -24 -18.167 -43.167 -34.5 -57.5s-34.5 -21.5 -54.5 -21.5c-12.667 0 -22.834 2.16699 -30.501 6.5s-16.834 11.166 -27.501 20.499c-9.33301 7.33301 -17 12.833 -23 16.5s-13.333 5.5 -22 5.5
c-23.333 0 -40 -15.667 -50 -47h-30c7.33301 25.333 18.833 45 34.5 59z" />
    <glyph glyph-name="Ograve" unicode="&#xd2;" horiz-adv-x="790" 
d="M196.5 27.5c-43 23.667 -76.167 57.167 -99.5 100.5s-35 93 -35 149c0 77.333 17.833 149 53.5 215s84.667 118.5 147 157.5s131.5 58.5 207.5 58.5c57.333 0 107.333 -11.833 150 -35.5s75.667 -57 99 -100s35 -92.5 35 -148.5c0 -78 -17.833 -150 -53.5 -216
s-84.667 -118.5 -147 -157.5s-131.5 -58.5 -207.5 -58.5c-56.667 0 -106.5 11.833 -149.5 35.5zM533.5 86c54.333 35.333 96.832 82.834 127.499 142.501s46 124.167 46 193.5c0 50.667 -10.167 94.5 -30.5 131.5s-49 65.333 -86 85s-79.5 29.5 -127.5 29.5
c-67.333 0 -128 -17.833 -182 -53.5s-96.333 -83.334 -127 -143.001s-46 -123.5 -46 -191.5c0 -50.667 10.333 -94.5 31 -131.5s49.334 -65.5 86.001 -85.5s79 -30 127 -30c66.667 0 127.167 17.667 181.5 53zM574.999 770.001l-6 -37l-174 124l8 44z" />
    <glyph glyph-name="Oacute" unicode="&#xd3;" horiz-adv-x="790" 
d="M196.5 27.5c-43 23.667 -76.167 57.167 -99.5 100.5s-35 93 -35 149c0 77.333 17.833 149 53.5 215s84.667 118.5 147 157.5s131.5 58.5 207.5 58.5c57.333 0 107.333 -11.833 150 -35.5s75.667 -57 99 -100s35 -92.5 35 -148.5c0 -78 -17.833 -150 -53.5 -216
s-84.667 -118.5 -147 -157.5s-131.5 -58.5 -207.5 -58.5c-56.667 0 -106.5 11.833 -149.5 35.5zM533.5 86c54.333 35.333 96.832 82.834 127.499 142.501s46 124.167 46 193.5c0 50.667 -10.167 94.5 -30.5 131.5s-49 65.333 -86 85s-79.5 29.5 -127.5 29.5
c-67.333 0 -128 -17.833 -182 -53.5s-96.333 -83.334 -127 -143.001s-46 -123.5 -46 -191.5c0 -50.667 10.333 -94.5 31 -131.5s49.334 -65.5 86.001 -85.5s79 -30 127 -30c66.667 0 127.167 17.667 181.5 53zM590.999 857.001l-218 -124l6 37l220 131z" />
    <glyph glyph-name="Ocircumflex" unicode="&#xd4;" horiz-adv-x="790" 
d="M196.5 27.5c-43 23.667 -76.167 57.167 -99.5 100.5s-35 93 -35 149c0 77.333 17.833 149 53.5 215s84.667 118.5 147 157.5s131.5 58.5 207.5 58.5c57.333 0 107.333 -11.833 150 -35.5s75.667 -57 99 -100s35 -92.5 35 -148.5c0 -78 -17.833 -150 -53.5 -216
s-84.667 -118.5 -147 -157.5s-131.5 -58.5 -207.5 -58.5c-56.667 0 -106.5 11.833 -149.5 35.5zM533.5 86c54.333 35.333 96.832 82.834 127.499 142.501s46 124.167 46 193.5c0 50.667 -10.167 94.5 -30.5 131.5s-49 65.333 -86 85s-79.5 29.5 -127.5 29.5
c-67.333 0 -128 -17.833 -182 -53.5s-96.333 -83.334 -127 -143.001s-46 -123.5 -46 -191.5c0 -50.667 10.333 -94.5 31 -131.5s49.334 -65.5 86.001 -85.5s79 -30 127 -30c66.667 0 127.167 17.667 181.5 53zM500.999 842.001l-143 -82l6 38l144 82l113 -82l-6 -38z" />
    <glyph glyph-name="Otilde" unicode="&#xd5;" horiz-adv-x="790" 
d="M196.5 27.5c-43 23.667 -76.167 57.167 -99.5 100.5s-35 93 -35 149c0 77.333 17.833 149 53.5 215s84.667 118.5 147 157.5s131.5 58.5 207.5 58.5c57.333 0 107.333 -11.833 150 -35.5s75.667 -57 99 -100s35 -92.5 35 -148.5c0 -78 -17.833 -150 -53.5 -216
s-84.667 -118.5 -147 -157.5s-131.5 -58.5 -207.5 -58.5c-56.667 0 -106.5 11.833 -149.5 35.5zM533.5 86c54.333 35.333 96.832 82.834 127.499 142.501s46 124.167 46 193.5c0 50.667 -10.167 94.5 -30.5 131.5s-49 65.333 -86 85s-79.5 29.5 -127.5 29.5
c-67.333 0 -128 -17.833 -182 -53.5s-96.333 -83.334 -127 -143.001s-46 -123.5 -46 -191.5c0 -50.667 10.333 -94.5 31 -131.5s49.334 -65.5 86.001 -85.5s79 -30 127 -30c66.667 0 127.167 17.667 181.5 53zM406.499 810.001c15.667 14 33.502 21.001 53.502 21.001
c12 0 21.833 -2.16699 29.5 -6.5s16.167 -10.833 25.5 -19.5c8.66699 -8 16.167 -13.833 22.5 -17.5s14.5 -5.5 24.5 -5.5c11.333 0 21.833 4 31.5 12s16.5 19.333 20.5 34h30c-6.66699 -24 -18.167 -43.167 -34.5 -57.5s-34.5 -21.5 -54.5 -21.5
c-12.667 0 -22.834 2.16699 -30.501 6.5s-16.834 11.166 -27.501 20.499c-9.33301 7.33301 -17 12.833 -23 16.5s-13.333 5.5 -22 5.5c-23.333 0 -40 -15.667 -50 -47h-30c7.33301 25.333 18.833 45 34.5 59z" />
    <glyph glyph-name="Odieresis" unicode="&#xd6;" horiz-adv-x="790" 
d="M196.5 27.5c-43 23.667 -76.167 57.167 -99.5 100.5s-35 93 -35 149c0 77.333 17.833 149 53.5 215s84.667 118.5 147 157.5s131.5 58.5 207.5 58.5c57.333 0 107.333 -11.833 150 -35.5s75.667 -57 99 -100s35 -92.5 35 -148.5c0 -78 -17.833 -150 -53.5 -216
s-84.667 -118.5 -147 -157.5s-131.5 -58.5 -207.5 -58.5c-56.667 0 -106.5 11.833 -149.5 35.5zM533.5 86c54.333 35.333 96.832 82.834 127.499 142.501s46 124.167 46 193.5c0 50.667 -10.167 94.5 -30.5 131.5s-49 65.333 -86 85s-79.5 29.5 -127.5 29.5
c-67.333 0 -128 -17.833 -182 -53.5s-96.333 -83.334 -127 -143.001s-46 -123.5 -46 -191.5c0 -50.667 10.333 -94.5 31 -131.5s49.334 -65.5 86.001 -85.5s79 -30 127 -30c66.667 0 127.167 17.667 181.5 53zM394.999 780.001c-6 6 -9.00098 13.667 -9.00098 23
c0 11.333 4.5 21.5 13.5 30.5s19.5 13.5 31.5 13.5c8.66699 0 15.834 -3 21.501 -9s8.5 -13.333 8.5 -22c0 -12 -4.33301 -22.5 -13 -31.5s-18.667 -13.5 -30 -13.5c-9.33301 0 -17 3 -23 9zM538.998 780.001c-6 6 -9 13.667 -9 23c0 11.333 4.5 21.5 13.5 30.5
s19.5 13.5 31.5 13.5c8.66699 0 16 -3 22 -9s9 -13.333 9 -22c0 -12 -4.5 -22.5 -13.5 -31.5s-19.167 -13.5 -30.5 -13.5c-9.33301 0 -17 3 -23 9z" />
    <glyph glyph-name="multiply" unicode="&#xd7;" horiz-adv-x="530" 
d="M312 375l143 -173l-35 -29l-143 173l-203 -173l-24 30l203 173l-142 172l35 29l142 -172l202 172l24 -30z" />
    <glyph glyph-name="Oslash" unicode="&#xd8;" horiz-adv-x="790" 
d="M702 600c34.667 -48 51.999 -106.667 51.999 -176c0 -78 -17.833 -150 -53.5 -216s-84.667 -118.5 -147 -157.5s-131.5 -58.5 -207.5 -58.5c-44.667 0 -85.334 7.5 -122.001 22.5s-67.667 36.5 -93 64.5l-86 -79h-42l111 101c-34.667 48 -52 106.667 -52 176
c0 77.333 17.833 149 53.5 215s84.667 118.5 147 157.5s131.5 58.5 207.5 58.5c44.667 0 85.334 -7.5 122.001 -22.5s67.334 -36.167 92.001 -63.5l88 80h42zM147.999 133l502 458.001c-21.333 25.333 -48 44.5 -80 57.5s-67.667 19.5 -107 19.5
c-67.333 0 -128 -17.833 -182 -53.5s-96.333 -83.334 -127 -143.001s-46 -123.5 -46 -191.5c0 -58 13.333 -107 40 -147zM667.999 568.001l-503 -458.001c22 -25.333 49 -44.5 81 -57.5s67.333 -19.5 106 -19.5c66.667 0 127.167 17.667 181.5 53s96.833 82.833 127.5 142.5
s46 124.167 46 193.5c0 56.667 -13 105.334 -39 146.001z" />
    <glyph glyph-name="Ugrave" unicode="&#xd9;" horiz-adv-x="645" 
d="M199 702l-78 -438c-4 -24.667 -6 -47.334 -6 -68.001c0 -56 14.667 -97.167 44 -123.5s70 -39.5 122 -39.5c61.333 0 112.833 18.5 154.5 55.5s69.5 95.5 83.5 175.5l78 438h45l-78 -438c-16 -91.333 -49.833 -159.333 -101.5 -204s-114.5 -67 -188.5 -67
c-63.333 0 -113.333 16.333 -150 49s-55 82.334 -55 149.001c0 24.667 2.33301 49 7 73l78 438h45zM495 768l-6 -37l-174 124l8 44z" />
    <glyph glyph-name="Uacute" unicode="&#xda;" horiz-adv-x="645" 
d="M199 702l-78 -438c-4 -24.667 -6 -47.334 -6 -68.001c0 -56 14.667 -97.167 44 -123.5s70 -39.5 122 -39.5c61.333 0 112.833 18.5 154.5 55.5s69.5 95.5 83.5 175.5l78 438h45l-78 -438c-16 -91.333 -49.833 -159.333 -101.5 -204s-114.5 -67 -188.5 -67
c-63.333 0 -113.333 16.333 -150 49s-55 82.334 -55 149.001c0 24.667 2.33301 49 7 73l78 438h45zM511 855l-218 -124l6 37l220 131z" />
    <glyph glyph-name="Ucircumflex" unicode="&#xdb;" horiz-adv-x="645" 
d="M199 702l-78 -438c-4 -24.667 -6 -47.334 -6 -68.001c0 -56 14.667 -97.167 44 -123.5s70 -39.5 122 -39.5c61.333 0 112.833 18.5 154.5 55.5s69.5 95.5 83.5 175.5l78 438h45l-78 -438c-16 -91.333 -49.833 -159.333 -101.5 -204s-114.5 -67 -188.5 -67
c-63.333 0 -113.333 16.333 -150 49s-55 82.334 -55 149.001c0 24.667 2.33301 49 7 73l78 438h45zM421 840l-143 -82l6 38l144 82l113 -82l-6 -38z" />
    <glyph glyph-name="Udieresis" unicode="&#xdc;" horiz-adv-x="645" 
d="M199 702l-78 -438c-4 -24.667 -6 -47.334 -6 -68.001c0 -56 14.667 -97.167 44 -123.5s70 -39.5 122 -39.5c61.333 0 112.833 18.5 154.5 55.5s69.5 95.5 83.5 175.5l78 438h45l-78 -438c-16 -91.333 -49.833 -159.333 -101.5 -204s-114.5 -67 -188.5 -67
c-63.333 0 -113.333 16.333 -150 49s-55 82.334 -55 149.001c0 24.667 2.33301 49 7 73l78 438h45zM315 778c-6 6 -9.00098 13.667 -9.00098 23c0 11.333 4.5 21.5 13.5 30.5s19.5 13.5 31.5 13.5c8.66699 0 15.834 -3 21.501 -9s8.5 -13.333 8.5 -22
c0 -12 -4.33301 -22.5 -13 -31.5s-18.667 -13.5 -30 -13.5c-9.33301 0 -17 3 -23 9zM458.999 778c-6 6 -9 13.667 -9 23c0 11.333 4.5 21.5 13.5 30.5s19.5 13.5 31.5 13.5c8.66699 0 16 -3 22 -9s9 -13.333 9 -22c0 -12 -4.5 -22.5 -13.5 -31.5s-19.167 -13.5 -30.5 -13.5
c-9.33301 0 -17 3 -23 9z" />
    <glyph glyph-name="Yacute" unicode="&#xdd;" horiz-adv-x="541" 
d="M591 702l-296 -418l-50 -284h-45l50 284l-149 418h52l127 -375l259 375h52zM460 855l-218 -124l6 37l220 131z" />
    <glyph glyph-name="Thorn" unicode="&#xde;" horiz-adv-x="546" 
d="M436.5 206c-45 -34.667 -105.5 -52 -181.5 -52h-150l-27 -154h-45l125 702h44l-27 -154h150c67.333 0 117.333 -13.5 150 -40.5s49 -64.167 49 -111.5c0 -16 -1.33301 -31 -4 -45c-10.667 -62 -38.5 -110.333 -83.5 -145zM475 351c2.66699 18.667 4 32 4 40
c0 38.667 -12.833 68.167 -38.5 88.5s-66.5 30.5 -122.5 30.5h-149l-56 -316h149c123.333 0 194.333 52.333 213 157z" />
    <glyph glyph-name="germandbls" unicode="&#xdf;" horiz-adv-x="613" 
d="M205 709.5c42.667 37.667 96.999 56.499 162.999 56.499c55.333 0 98 -11.833 128 -35.5s45 -54.5 45 -92.5c0 -25.333 -5.5 -48 -16.5 -68s-24.333 -37.167 -40 -51.5s-35.834 -30.833 -60.501 -49.5c-28 -20.667 -48.5 -38 -61.5 -52s-19.5 -29.667 -19.5 -47
c0 -16 7.83301 -29.833 23.5 -41.5s44.167 -24.5 85.5 -38.5c37.333 -12.667 64.666 -28.667 81.999 -48s26 -44.333 26 -75c0 -33.333 -8.33301 -63.333 -25 -90s-39.834 -47.667 -69.501 -63s-63.167 -23 -100.5 -23c-50 0 -89.5 14 -118.5 42s-43.5 65.667 -43.5 113
l1 18h45c-3.33301 -41.333 5.83398 -74.333 27.501 -99s53.167 -37 94.5 -37c26.667 0 50.834 5.83301 72.501 17.5s38.834 27.834 51.501 48.501s19 43.334 19 68.001c0 22 -7.66699 40.333 -23 55s-39.666 28 -72.999 40c-44 15.333 -75.167 30.833 -93.5 46.5
s-27.5 35.5 -27.5 59.5c0 25.333 7.83301 47.166 23.5 65.499s40.167 40.166 73.5 65.499s58.5 48 75.5 68s25.5 43.667 25.5 71c0 28 -11.667 50.667 -35 68s-56.333 26 -99 26c-52.667 0 -95.5 -15.333 -128.5 -46s-54.5 -72.667 -64.5 -126l-97 -555h-45l98 559
c11.333 62.667 38.333 112.834 81 150.501z" />
    <glyph glyph-name="agrave" unicode="&#xe0;" horiz-adv-x="673" 
d="M112.5 419c29.667 42 66.498 74.333 110.498 97s91.333 34 142 34c56.667 0 102.5 -14 137.5 -42s56.833 -63.667 65.5 -107l25 142h45l-97 -543h-44l25 143c-23.333 -44 -57.666 -80.167 -102.999 -108.5s-96.666 -42.5 -153.999 -42.5c-66 0 -118.833 19.5 -158.5 58.5
s-59.5 91.833 -59.5 158.5c0 20 2 41 6 63c10 56 29.833 105 59.5 147zM549.998 325c0 56.667 -17.002 101.833 -51.002 135.5s-79 50.5 -135 50.5c-44 0 -84.5 -9.5 -121.5 -28.5s-68 -46.5 -93 -82.5s-41.833 -78.667 -50.5 -128c-3.33301 -22 -5 -40.667 -5 -56
c0 -58 16.5 -103.167 49.5 -135.5s78.167 -48.5 135.5 -48.5c42 0 81.833 9.83301 119.5 29.5s69.334 47.667 95.001 84s42.834 78.5 51.501 126.5c3.33301 20 5 37.667 5 53zM485.996 623.999l-6 -37l-174 124l8 44z" />
    <glyph glyph-name="aacute" unicode="&#xe1;" horiz-adv-x="673" 
d="M112.5 419c29.667 42 66.498 74.333 110.498 97s91.333 34 142 34c56.667 0 102.5 -14 137.5 -42s56.833 -63.667 65.5 -107l25 142h45l-97 -543h-44l25 143c-23.333 -44 -57.666 -80.167 -102.999 -108.5s-96.666 -42.5 -153.999 -42.5c-66 0 -118.833 19.5 -158.5 58.5
s-59.5 91.833 -59.5 158.5c0 20 2 41 6 63c10 56 29.833 105 59.5 147zM549.998 325c0 56.667 -17.002 101.833 -51.002 135.5s-79 50.5 -135 50.5c-44 0 -84.5 -9.5 -121.5 -28.5s-68 -46.5 -93 -82.5s-41.833 -78.667 -50.5 -128c-3.33301 -22 -5 -40.667 -5 -56
c0 -58 16.5 -103.167 49.5 -135.5s78.167 -48.5 135.5 -48.5c42 0 81.833 9.83301 119.5 29.5s69.334 47.667 95.001 84s42.834 78.5 51.501 126.5c3.33301 20 5 37.667 5 53zM501.996 710.999l-218 -124l6 37l220 131z" />
    <glyph glyph-name="acircumflex" unicode="&#xe2;" horiz-adv-x="673" 
d="M112.5 419c29.667 42 66.498 74.333 110.498 97s91.333 34 142 34c56.667 0 102.5 -14 137.5 -42s56.833 -63.667 65.5 -107l25 142h45l-97 -543h-44l25 143c-23.333 -44 -57.666 -80.167 -102.999 -108.5s-96.666 -42.5 -153.999 -42.5c-66 0 -118.833 19.5 -158.5 58.5
s-59.5 91.833 -59.5 158.5c0 20 2 41 6 63c10 56 29.833 105 59.5 147zM549.998 325c0 56.667 -17.002 101.833 -51.002 135.5s-79 50.5 -135 50.5c-44 0 -84.5 -9.5 -121.5 -28.5s-68 -46.5 -93 -82.5s-41.833 -78.667 -50.5 -128c-3.33301 -22 -5 -40.667 -5 -56
c0 -58 16.5 -103.167 49.5 -135.5s78.167 -48.5 135.5 -48.5c42 0 81.833 9.83301 119.5 29.5s69.334 47.667 95.001 84s42.834 78.5 51.501 126.5c3.33301 20 5 37.667 5 53zM412.996 695.999l-143 -82l6 38l144 82l113 -82l-6 -38z" />
    <glyph glyph-name="atilde" unicode="&#xe3;" horiz-adv-x="673" 
d="M112.5 419c29.667 42 66.498 74.333 110.498 97s91.333 34 142 34c56.667 0 102.5 -14 137.5 -42s56.833 -63.667 65.5 -107l25 142h45l-97 -543h-44l25 143c-23.333 -44 -57.666 -80.167 -102.999 -108.5s-96.666 -42.5 -153.999 -42.5c-66 0 -118.833 19.5 -158.5 58.5
s-59.5 91.833 -59.5 158.5c0 20 2 41 6 63c10 56 29.833 105 59.5 147zM549.998 325c0 56.667 -17.002 101.833 -51.002 135.5s-79 50.5 -135 50.5c-44 0 -84.5 -9.5 -121.5 -28.5s-68 -46.5 -93 -82.5s-41.833 -78.667 -50.5 -128c-3.33301 -22 -5 -40.667 -5 -56
c0 -58 16.5 -103.167 49.5 -135.5s78.167 -48.5 135.5 -48.5c42 0 81.833 9.83301 119.5 29.5s69.334 47.667 95.001 84s42.834 78.5 51.501 126.5c3.33301 20 5 37.667 5 53zM317.496 663.999c15.667 14 33.502 21.001 53.502 21.001c12 0 21.833 -2.16699 29.5 -6.5
s16.167 -10.833 25.5 -19.5c8.66699 -8 16.167 -13.833 22.5 -17.5s14.5 -5.5 24.5 -5.5c11.333 0 21.833 4 31.5 12s16.5 19.333 20.5 34h30c-6.66699 -24 -18.167 -43.167 -34.5 -57.5s-34.5 -21.5 -54.5 -21.5c-12.667 0 -22.834 2.16699 -30.501 6.5
s-16.834 11.166 -27.501 20.499c-9.33301 7.33301 -17 12.833 -23 16.5s-13.333 5.5 -22 5.5c-23.333 0 -40 -15.667 -50 -47h-30c7.33301 25.333 18.833 45 34.5 59z" />
    <glyph glyph-name="adieresis" unicode="&#xe4;" horiz-adv-x="673" 
d="M112.5 419c29.667 42 66.498 74.333 110.498 97s91.333 34 142 34c56.667 0 102.5 -14 137.5 -42s56.833 -63.667 65.5 -107l25 142h45l-97 -543h-44l25 143c-23.333 -44 -57.666 -80.167 -102.999 -108.5s-96.666 -42.5 -153.999 -42.5c-66 0 -118.833 19.5 -158.5 58.5
s-59.5 91.833 -59.5 158.5c0 20 2 41 6 63c10 56 29.833 105 59.5 147zM549.998 325c0 56.667 -17.002 101.833 -51.002 135.5s-79 50.5 -135 50.5c-44 0 -84.5 -9.5 -121.5 -28.5s-68 -46.5 -93 -82.5s-41.833 -78.667 -50.5 -128c-3.33301 -22 -5 -40.667 -5 -56
c0 -58 16.5 -103.167 49.5 -135.5s78.167 -48.5 135.5 -48.5c42 0 81.833 9.83301 119.5 29.5s69.334 47.667 95.001 84s42.834 78.5 51.501 126.5c3.33301 20 5 37.667 5 53zM306.996 633.999c-6 6 -9.00098 13.667 -9.00098 23c0 11.333 4.5 21.5 13.5 30.5
s19.5 13.5 31.5 13.5c8.66699 0 15.834 -3 21.501 -9s8.5 -13.333 8.5 -22c0 -12 -4.33301 -22.5 -13 -31.5s-18.667 -13.5 -30 -13.5c-9.33301 0 -17 3 -23 9zM450.995 633.999c-6 6 -9 13.667 -9 23c0 11.333 4.5 21.5 13.5 30.5s19.5 13.5 31.5 13.5
c8.66699 0 16 -3 22 -9s9 -13.333 9 -22c0 -12 -4.5 -22.5 -13.5 -31.5s-19.167 -13.5 -30.5 -13.5c-9.33301 0 -17 3 -23 9z" />
    <glyph glyph-name="aring" unicode="&#xe5;" horiz-adv-x="673" 
d="M112.5 419c29.667 42 66.498 74.333 110.498 97s91.333 34 142 34c56.667 0 102.5 -14 137.5 -42s56.833 -63.667 65.5 -107l25 142h45l-97 -543h-44l25 143c-23.333 -44 -57.666 -80.167 -102.999 -108.5s-96.666 -42.5 -153.999 -42.5c-66 0 -118.833 19.5 -158.5 58.5
s-59.5 91.833 -59.5 158.5c0 20 2 41 6 63c10 56 29.833 105 59.5 147zM549.998 325c0 56.667 -17.002 101.833 -51.002 135.5s-79 50.5 -135 50.5c-44 0 -84.5 -9.5 -121.5 -28.5s-68 -46.5 -93 -82.5s-41.833 -78.667 -50.5 -128c-3.33301 -22 -5 -40.667 -5 -56
c0 -58 16.5 -103.167 49.5 -135.5s78.167 -48.5 135.5 -48.5c42 0 81.833 9.83301 119.5 29.5s69.334 47.667 95.001 84s42.834 78.5 51.501 126.5c3.33301 20 5 37.667 5 53zM359.996 776.999c21.333 17.333 45.335 26.001 72.002 26.001c24 0 43.333 -6.66699 58 -20
s22 -31.666 22 -54.999c0 -34 -11.333 -61.833 -34 -83.5s-49.334 -32.5 -80.001 -32.5c-23.333 0 -42.5 6.83301 -57.5 20.5s-22.5 32.167 -22.5 55.5c0 3.33301 0.666992 9.66602 2 18.999c5.33301 29.333 18.666 52.666 39.999 69.999zM466.498 760.5
c-10.333 9 -23.833 13.5 -40.5 13.5c-18.667 0 -35 -6 -49 -18s-23 -28 -27 -48c-0.666992 -3.33301 -1 -8 -1 -14c0 -16 5 -28.833 15 -38.5s23 -14.5 39 -14.5c21.333 0 39.833 7.66699 55.5 23s23.5 35 23.5 59c0 16 -5.16699 28.5 -15.5 37.5z" />
    <glyph glyph-name="ae" unicode="&#xe6;" horiz-adv-x="1122" 
d="M982 523.5c32 -17.667 56.002 -41.3359 72.002 -71.0029s24 -62.834 24 -99.501c0 -16 -1.33301 -30.667 -4 -44c-4.66699 -21.333 -9.33398 -39.333 -14.001 -54h-473c-2 -14.667 -3 -29 -3 -43c0 -39.333 8.33301 -72.666 25 -99.999s39 -47.666 67 -60.999
s58.667 -20 92 -20c54.667 0 102.667 13.167 144 39.5s70.333 62.166 87 107.499h48c-21.333 -55.333 -56.666 -100.166 -105.999 -134.499s-107.333 -51.5 -174 -51.5c-54 0 -99.5 13.833 -136.5 41.5s-58.5 66.834 -64.5 117.501l-26 -151h-43l27 150
c-24 -47.333 -59 -85.5 -105 -114.5s-97 -43.5 -153 -43.5c-66.667 0 -119.834 19.5 -159.501 58.5s-59.5 91.833 -59.5 158.5c0 20 2 41 6 63c10 56 29.833 105 59.5 147s66.5 74.333 110.5 97s91.667 34 143 34c56 0 101.5 -14 136.5 -42s56.5 -66 64.5 -114l26 149h43
l-26 -149c26 50.667 61.667 89.334 107 116.001s94.666 40 147.999 40c46 0 85 -8.83301 117 -26.5zM1033 347.998c0 52.667 -16.998 93.168 -50.998 121.501s-76.667 42.5 -128 42.5c-38.667 0 -75.834 -8.33301 -111.501 -25s-66.834 -41.667 -93.501 -75
s-45 -74 -55 -122h432c4.66699 19.333 7 38.666 7 57.999zM550.004 324.999c0 56.667 -17.002 101.833 -51.002 135.5s-79 50.5 -135 50.5c-44 0 -84.5 -9.5 -121.5 -28.5s-68 -46.5 -93 -82.5s-41.833 -78.667 -50.5 -128c-3.33301 -22 -5 -40.667 -5 -56
c0 -58 16.5 -103.167 49.5 -135.5s78.167 -48.5 135.5 -48.5c42 0 81.833 9.83301 119.5 29.5s69.334 47.667 95.001 84s42.834 78.5 51.501 126.5c3.33301 20 5 37.667 5 53z" />
    <glyph glyph-name="ccedilla" unicode="&#xe7;" horiz-adv-x="621" 
d="M414.5 71c41 26.667 70.167 63.3311 87.5 109.998h48c-20.667 -54.667 -54.5 -99.167 -101.5 -133.5s-102.5 -52.833 -166.5 -55.5l-12 -70c36 2 63.833 -3 83.5 -15s29.5 -30 29.5 -54c0 -32 -11.833 -58.167 -35.5 -78.5s-54.834 -30.5 -93.501 -30.5h-82l6 34h73
c28.667 0 50.167 4.83301 64.5 14.5s23.166 24.167 26.499 43.5c0.666992 2.66699 1 6.33398 1 11.001c0 29.333 -24 44 -72 44h-41l18 102c-62 3.33301 -111 23.833 -147 61.5s-54 88.5 -54 152.5c0 20.667 2 42.334 6 65.001c10 56.667 30 106 60 148
s66.833 74.167 110.5 96.5s90.834 33.5 141.501 33.5c68 0 120.833 -17 158.5 -51s56.834 -79.667 57.501 -137h-47c-0.666992 46 -16.834 82.5 -48.501 109.5s-74.167 40.5 -127.5 40.5c-39.333 0 -77 -8.83301 -113 -26.5s-67 -44.667 -93 -81s-43.667 -80.5 -53 -132.5
c-4 -20.667 -6 -40.667 -6 -60c0 -58.667 16.833 -103.5 50.5 -134.5s76.834 -46.5 129.501 -46.5c53.333 0 100.5 13.333 141.5 40z" />
    <glyph glyph-name="egrave" unicode="&#xe8;" horiz-adv-x="625" 
d="M483.5 523.5c32.333 -17.667 56.666 -41.334 72.999 -71.001s24.5 -62.834 24.5 -99.501c0 -16 -1.33301 -30.667 -4 -44c-4 -24 -8 -42 -12 -54h-469c-2.66699 -21.333 -4 -36.666 -4 -45.999c0 -57.333 17.333 -101.333 52 -132s78.334 -46 131.001 -46
s99.5 13.167 140.5 39.5s70.167 62.166 87.5 107.499h47c-21.333 -55.333 -56.833 -100.166 -106.5 -134.499s-108.167 -51.5 -175.5 -51.5c-66.667 0 -120.167 19.333 -160.5 58s-60.5 91.334 -60.5 158.001c0 20.667 2 42 6 64c10 56.667 30 106 60 148
s66.833 74.167 110.5 96.5s91.167 33.5 142.5 33.5c46 0 85.167 -8.83301 117.5 -26.5zM536 349c0 52.667 -16.833 93 -50.5 121s-76.167 42 -127.5 42c-38 0 -74.667 -8.33301 -110 -25s-66 -41.667 -92 -75s-44 -74 -54 -122h427c4.66699 19.333 7 39 7 59zM460 624
l-6 -37l-174 124l8 44z" />
    <glyph glyph-name="eacute" unicode="&#xe9;" horiz-adv-x="625" 
d="M483.5 523.5c32.333 -17.667 56.666 -41.334 72.999 -71.001s24.5 -62.834 24.5 -99.501c0 -16 -1.33301 -30.667 -4 -44c-4 -24 -8 -42 -12 -54h-469c-2.66699 -21.333 -4 -36.666 -4 -45.999c0 -57.333 17.333 -101.333 52 -132s78.334 -46 131.001 -46
s99.5 13.167 140.5 39.5s70.167 62.166 87.5 107.499h47c-21.333 -55.333 -56.833 -100.166 -106.5 -134.499s-108.167 -51.5 -175.5 -51.5c-66.667 0 -120.167 19.333 -160.5 58s-60.5 91.334 -60.5 158.001c0 20.667 2 42 6 64c10 56.667 30 106 60 148
s66.833 74.167 110.5 96.5s91.167 33.5 142.5 33.5c46 0 85.167 -8.83301 117.5 -26.5zM536 349c0 52.667 -16.833 93 -50.5 121s-76.167 42 -127.5 42c-38 0 -74.667 -8.33301 -110 -25s-66 -41.667 -92 -75s-44 -74 -54 -122h427c4.66699 19.333 7 39 7 59zM476 711
l-218 -124l6 37l220 131z" />
    <glyph glyph-name="ecircumflex" unicode="&#xea;" horiz-adv-x="625" 
d="M483.5 523.5c32.333 -17.667 56.666 -41.334 72.999 -71.001s24.5 -62.834 24.5 -99.501c0 -16 -1.33301 -30.667 -4 -44c-4 -24 -8 -42 -12 -54h-469c-2.66699 -21.333 -4 -36.666 -4 -45.999c0 -57.333 17.333 -101.333 52 -132s78.334 -46 131.001 -46
s99.5 13.167 140.5 39.5s70.167 62.166 87.5 107.499h47c-21.333 -55.333 -56.833 -100.166 -106.5 -134.499s-108.167 -51.5 -175.5 -51.5c-66.667 0 -120.167 19.333 -160.5 58s-60.5 91.334 -60.5 158.001c0 20.667 2 42 6 64c10 56.667 30 106 60 148
s66.833 74.167 110.5 96.5s91.167 33.5 142.5 33.5c46 0 85.167 -8.83301 117.5 -26.5zM536 349c0 52.667 -16.833 93 -50.5 121s-76.167 42 -127.5 42c-38 0 -74.667 -8.33301 -110 -25s-66 -41.667 -92 -75s-44 -74 -54 -122h427c4.66699 19.333 7 39 7 59zM387 696
l-143 -82l6 38l144 82l113 -82l-6 -38z" />
    <glyph glyph-name="edieresis" unicode="&#xeb;" horiz-adv-x="625" 
d="M483.5 523.5c32.333 -17.667 56.666 -41.334 72.999 -71.001s24.5 -62.834 24.5 -99.501c0 -16 -1.33301 -30.667 -4 -44c-4 -24 -8 -42 -12 -54h-469c-2.66699 -21.333 -4 -36.666 -4 -45.999c0 -57.333 17.333 -101.333 52 -132s78.334 -46 131.001 -46
s99.5 13.167 140.5 39.5s70.167 62.166 87.5 107.499h47c-21.333 -55.333 -56.833 -100.166 -106.5 -134.499s-108.167 -51.5 -175.5 -51.5c-66.667 0 -120.167 19.333 -160.5 58s-60.5 91.334 -60.5 158.001c0 20.667 2 42 6 64c10 56.667 30 106 60 148
s66.833 74.167 110.5 96.5s91.167 33.5 142.5 33.5c46 0 85.167 -8.83301 117.5 -26.5zM536 349c0 52.667 -16.833 93 -50.5 121s-76.167 42 -127.5 42c-38 0 -74.667 -8.33301 -110 -25s-66 -41.667 -92 -75s-44 -74 -54 -122h427c4.66699 19.333 7 39 7 59zM280 634
c-6 6 -9.00098 13.667 -9.00098 23c0 11.333 4.5 21.5 13.5 30.5s19.5 13.5 31.5 13.5c8.66699 0 15.834 -3 21.501 -9s8.5 -13.333 8.5 -22c0 -12 -4.33301 -22.5 -13 -31.5s-18.667 -13.5 -30 -13.5c-9.33301 0 -17 3 -23 9zM423.999 634c-6 6 -9 13.667 -9 23
c0 11.333 4.5 21.5 13.5 30.5s19.5 13.5 31.5 13.5c8.66699 0 16 -3 22 -9s9 -13.333 9 -22c0 -12 -4.5 -22.5 -13.5 -31.5s-19.167 -13.5 -30.5 -13.5c-9.33301 0 -17 3 -23 9z" />
    <glyph glyph-name="igrave" unicode="&#xec;" horiz-adv-x="210" 
d="M175 543l-97 -543h-45l97 543h45zM252 624l-6 -37l-174 124l8 44z" />
    <glyph glyph-name="iacute" unicode="&#xed;" horiz-adv-x="210" 
d="M175 543l-97 -543h-45l97 543h45zM268 711l-218 -124l6 37l220 131z" />
    <glyph glyph-name="icircumflex" unicode="&#xee;" horiz-adv-x="210" 
d="M175 543l-97 -543h-45l97 543h45zM179 696l-143 -82l6 38l144 82l113 -82l-6 -38z" />
    <glyph glyph-name="idieresis" unicode="&#xef;" horiz-adv-x="210" 
d="M175 543l-97 -543h-45l97 543h45zM73 634c-6 6 -9.00098 13.667 -9.00098 23c0 11.333 4.5 21.5 13.5 30.5s19.5 13.5 31.5 13.5c8.66699 0 15.834 -3 21.501 -9s8.5 -13.333 8.5 -22c0 -12 -4.33301 -22.5 -13 -31.5s-18.667 -13.5 -30 -13.5c-9.33301 0 -17 3 -23 9z
M216.999 634c-6 6 -9 13.667 -9 23c0 11.333 4.5 21.5 13.5 30.5s19.5 13.5 31.5 13.5c8.66699 0 16 -3 22 -9s9 -13.333 9 -22c0 -12 -4.5 -22.5 -13.5 -31.5s-19.167 -13.5 -30.5 -13.5c-9.33301 0 -17 3 -23 9z" />
    <glyph glyph-name="eth" unicode="&#xf0;" horiz-adv-x="643" 
d="M632 712l-127.002 -42.001c65.333 -81.333 98 -171 98 -269c0 -26.667 -2.66699 -57 -8 -91c-18.667 -103.333 -57.167 -182.166 -115.5 -236.499s-127.833 -81.5 -208.5 -81.5c-69.333 0 -123.666 20 -162.999 60s-59 94 -59 162c0 22 2 45 6 69
c9.33301 54 28.833 101.5 58.5 142.5s66.5 72.667 110.5 95s92 33.5 144 33.5s95.5 -13.5 130.5 -40.5s56.5 -67.833 64.5 -122.5c-0.666992 52.667 -8.16699 100 -22.5 142s-38.166 83.667 -71.499 125l-156 -52l5 29l132 44c-16 18.667 -36 39 -60 61h47
c18 -16 34.333 -32.333 49 -49l151 51zM546.998 328.999c0 58.667 -16.999 104.333 -50.999 137s-78 49 -132 49c-42 0 -81.5 -9 -118.5 -27s-68.167 -44.5 -93.5 -79.5s-42.333 -76.833 -51 -125.5c-4 -22.667 -6 -44 -6 -64c0 -59.333 16.5 -105.5 49.5 -138.5
s77.167 -49.5 132.5 -49.5c41.333 0 80.666 9.5 117.999 28.5s69 46.667 95 83s43.333 79.5 52 129.5c3.33301 16.667 5 35.667 5 57z" />
    <glyph glyph-name="ntilde" unicode="&#xf1;" horiz-adv-x="623" 
d="M509 509.5c33.333 -29.667 50.001 -73.5 50.001 -131.5c0 -18 -2 -38 -6 -60l-56 -318h-44l56 315c3.33301 21.333 5 39 5 53c0 48 -13.333 84.5 -40 109.5s-64 37.5 -112 37.5c-56 0 -104.333 -17.333 -145 -52s-68.667 -85.667 -84 -153l-55 -310h-45l97 543h45
l-20 -114c22.667 40.667 53.5 71.667 92.5 93s81.833 32 128.5 32c55.333 0 99.666 -14.833 132.999 -44.5zM274.501 664c15.667 14 33.502 21.001 53.502 21.001c12 0 21.833 -2.16699 29.5 -6.5s16.167 -10.833 25.5 -19.5c8.66699 -8 16.167 -13.833 22.5 -17.5
s14.5 -5.5 24.5 -5.5c11.333 0 21.833 4 31.5 12s16.5 19.333 20.5 34h30c-6.66699 -24 -18.167 -43.167 -34.5 -57.5s-34.5 -21.5 -54.5 -21.5c-12.667 0 -22.834 2.16699 -30.501 6.5s-16.834 11.166 -27.501 20.499c-9.33301 7.33301 -17 12.833 -23 16.5
s-13.333 5.5 -22 5.5c-23.333 0 -40 -15.667 -50 -47h-30c7.33301 25.333 18.833 45 34.5 59z" />
    <glyph glyph-name="ograve" unicode="&#xf2;" horiz-adv-x="645" 
d="M109.5 51c-41 39.333 -61.5 92.667 -61.5 160c0 61.333 13.833 118 41.5 170s66.167 93.167 115.5 123.5s104.333 45.5 165 45.5c44 0 83 -8.83301 117 -26.5s60.5 -43 79.5 -76s28.5 -71.833 28.5 -116.5c0 -61.333 -14 -118 -42 -170s-66.5 -93.167 -115.5 -123.5
s-103.833 -45.5 -164.5 -45.5c-68 0 -122.5 19.667 -163.5 59zM418.5 72.001c41 27.333 73.001 63.6689 96.001 109.002s34.5 94.666 34.5 147.999c0 59.333 -17.667 104.666 -53 135.999s-79.666 47 -132.999 47c-52.667 0 -99.334 -13.667 -140.001 -41
s-72.334 -63.833 -95.001 -109.5s-34 -94.834 -34 -147.501c0 -59.333 17.5 -104.666 52.5 -135.999s79.167 -47 132.5 -47c52 0 98.5 13.667 139.5 41zM469.001 632.004l-6 -37l-174 124l8 44z" />
    <glyph glyph-name="oacute" unicode="&#xf3;" horiz-adv-x="645" 
d="M109.5 51c-41 39.333 -61.5 92.667 -61.5 160c0 61.333 13.833 118 41.5 170s66.167 93.167 115.5 123.5s104.333 45.5 165 45.5c44 0 83 -8.83301 117 -26.5s60.5 -43 79.5 -76s28.5 -71.833 28.5 -116.5c0 -61.333 -14 -118 -42 -170s-66.5 -93.167 -115.5 -123.5
s-103.833 -45.5 -164.5 -45.5c-68 0 -122.5 19.667 -163.5 59zM418.5 72.001c41 27.333 73.001 63.6689 96.001 109.002s34.5 94.666 34.5 147.999c0 59.333 -17.667 104.666 -53 135.999s-79.666 47 -132.999 47c-52.667 0 -99.334 -13.667 -140.001 -41
s-72.334 -63.833 -95.001 -109.5s-34 -94.834 -34 -147.501c0 -59.333 17.5 -104.666 52.5 -135.999s79.167 -47 132.5 -47c52 0 98.5 13.667 139.5 41zM485.001 719.004l-218 -124l6 37l220 131z" />
    <glyph glyph-name="ocircumflex" unicode="&#xf4;" horiz-adv-x="645" 
d="M109.5 51c-41 39.333 -61.5 92.667 -61.5 160c0 61.333 13.833 118 41.5 170s66.167 93.167 115.5 123.5s104.333 45.5 165 45.5c44 0 83 -8.83301 117 -26.5s60.5 -43 79.5 -76s28.5 -71.833 28.5 -116.5c0 -61.333 -14 -118 -42 -170s-66.5 -93.167 -115.5 -123.5
s-103.833 -45.5 -164.5 -45.5c-68 0 -122.5 19.667 -163.5 59zM418.5 72.001c41 27.333 73.001 63.6689 96.001 109.002s34.5 94.666 34.5 147.999c0 59.333 -17.667 104.666 -53 135.999s-79.666 47 -132.999 47c-52.667 0 -99.334 -13.667 -140.001 -41
s-72.334 -63.833 -95.001 -109.5s-34 -94.834 -34 -147.501c0 -59.333 17.5 -104.666 52.5 -135.999s79.167 -47 132.5 -47c52 0 98.5 13.667 139.5 41zM396.001 704.004l-143 -82l6 38l144 82l113 -82l-6 -38z" />
    <glyph glyph-name="otilde" unicode="&#xf5;" horiz-adv-x="645" 
d="M109.5 51c-41 39.333 -61.5 92.667 -61.5 160c0 61.333 13.833 118 41.5 170s66.167 93.167 115.5 123.5s104.333 45.5 165 45.5c44 0 83 -8.83301 117 -26.5s60.5 -43 79.5 -76s28.5 -71.833 28.5 -116.5c0 -61.333 -14 -118 -42 -170s-66.5 -93.167 -115.5 -123.5
s-103.833 -45.5 -164.5 -45.5c-68 0 -122.5 19.667 -163.5 59zM418.5 72.001c41 27.333 73.001 63.6689 96.001 109.002s34.5 94.666 34.5 147.999c0 59.333 -17.667 104.666 -53 135.999s-79.666 47 -132.999 47c-52.667 0 -99.334 -13.667 -140.001 -41
s-72.334 -63.833 -95.001 -109.5s-34 -94.834 -34 -147.501c0 -59.333 17.5 -104.666 52.5 -135.999s79.167 -47 132.5 -47c52 0 98.5 13.667 139.5 41zM301.501 672.004c15.667 14 33.502 21.001 53.502 21.001c12 0 21.833 -2.16699 29.5 -6.5s16.167 -10.833 25.5 -19.5
c8.66699 -8 16.167 -13.833 22.5 -17.5s14.5 -5.5 24.5 -5.5c11.333 0 21.833 4 31.5 12s16.5 19.333 20.5 34h30c-6.66699 -24 -18.167 -43.167 -34.5 -57.5s-34.5 -21.5 -54.5 -21.5c-12.667 0 -22.834 2.16699 -30.501 6.5s-16.834 11.166 -27.501 20.499
c-9.33301 7.33301 -17 12.833 -23 16.5s-13.333 5.5 -22 5.5c-23.333 0 -40 -15.667 -50 -47h-30c7.33301 25.333 18.833 45 34.5 59z" />
    <glyph glyph-name="odieresis" unicode="&#xf6;" horiz-adv-x="645" 
d="M109.5 51c-41 39.333 -61.5 92.667 -61.5 160c0 61.333 13.833 118 41.5 170s66.167 93.167 115.5 123.5s104.333 45.5 165 45.5c44 0 83 -8.83301 117 -26.5s60.5 -43 79.5 -76s28.5 -71.833 28.5 -116.5c0 -61.333 -14 -118 -42 -170s-66.5 -93.167 -115.5 -123.5
s-103.833 -45.5 -164.5 -45.5c-68 0 -122.5 19.667 -163.5 59zM418.5 72.001c41 27.333 73.001 63.6689 96.001 109.002s34.5 94.666 34.5 147.999c0 59.333 -17.667 104.666 -53 135.999s-79.666 47 -132.999 47c-52.667 0 -99.334 -13.667 -140.001 -41
s-72.334 -63.833 -95.001 -109.5s-34 -94.834 -34 -147.501c0 -59.333 17.5 -104.666 52.5 -135.999s79.167 -47 132.5 -47c52 0 98.5 13.667 139.5 41zM290.001 642.004c-6 6 -9.00098 13.667 -9.00098 23c0 11.333 4.5 21.5 13.5 30.5s19.5 13.5 31.5 13.5
c8.66699 0 15.834 -3 21.501 -9s8.5 -13.333 8.5 -22c0 -12 -4.33301 -22.5 -13 -31.5s-18.667 -13.5 -30 -13.5c-9.33301 0 -17 3 -23 9zM434 642.004c-6 6 -9 13.667 -9 23c0 11.333 4.5 21.5 13.5 30.5s19.5 13.5 31.5 13.5c8.66699 0 16 -3 22 -9s9 -13.333 9 -22
c0 -12 -4.5 -22.5 -13.5 -31.5s-19.167 -13.5 -30.5 -13.5c-9.33301 0 -17 3 -23 9z" />
    <glyph glyph-name="divide" unicode="&#xf7;" horiz-adv-x="613" 
d="M320 560.5c-6 5.66699 -9 13.167 -9 22.5c0 13.333 4.66699 24.5 14 33.5s20.333 13.5 33 13.5c9.33301 0 17 -2.83301 23 -8.5s9 -13.167 9 -22.5c0 -13.333 -4.66699 -24.5 -14 -33.5s-20.333 -13.5 -33 -13.5c-9.33301 0 -17 2.83301 -23 8.5zM584 395l-7 -40h-510
l7 40h510zM254 131.5c-6 5.66699 -9 13.167 -9 22.5c0 13.333 4.66699 24.5 14 33.5s20.333 13.5 33 13.5c9.33301 0 17 -2.83301 23 -8.5s9 -13.167 9 -22.5c0 -13.333 -4.66699 -24.5 -14 -33.5s-20.333 -13.5 -33 -13.5c-9.33301 0 -17 2.83301 -23 8.5z" />
    <glyph glyph-name="oslash" unicode="&#xf8;" horiz-adv-x="645" 
d="M554 467c27.333 -36.667 41.001 -82.001 41.001 -136.001c0 -61.333 -14 -118 -42 -170s-66.5 -93.167 -115.5 -123.5s-103.833 -45.5 -164.5 -45.5c-34.667 0 -66.334 5.33301 -95.001 16s-52.667 26.334 -72 47.001l-60 -55h-37l80 74c-27.333 38 -41 83.667 -41 137
c0 61.333 13.833 118 41.5 170s66.167 93.167 115.5 123.5s104.333 45.5 165 45.5c71.333 0 127.333 -21 168 -63l61 56h37zM123.001 104.999l382.001 351.001c-17.333 18.667 -38.166 32.667 -62.499 42s-50.833 14 -79.5 14c-52.667 0 -99.334 -13.667 -140.001 -41
s-72.334 -63.833 -95.001 -109.5s-34 -94.834 -34 -147.501c0 -42.667 9.66699 -79 29 -109zM520.002 436l-381 -349.999c16.667 -18 37.167 -31.667 61.5 -41s50.5 -14 78.5 -14c52 0 98.5 13.667 139.5 41s73 63.666 96 108.999s34.5 94.666 34.5 147.999
c0 42.667 -9.66699 78.334 -29 107.001z" />
    <glyph glyph-name="ugrave" unicode="&#xf9;" horiz-adv-x="623" 
d="M588 543l-96.001 -543.002h-45l21 117c-22.667 -40.667 -53.667 -71.834 -93 -93.501s-82 -32.5 -128 -32.5c-55.333 0 -99.833 14.833 -133.5 44.5s-50.5 73.834 -50.5 132.501c0 22 1.66699 41.667 5 59l57 316h44l-56 -313c-3.33301 -21.333 -5 -38.666 -5 -51.999
c0 -48.667 13.333 -85.5 40 -110.5s64 -37.5 112 -37.5c58.667 0 108.834 18.833 150.501 56.5s68.5 92.834 80.5 165.501v-3l52 294h45zM459.999 623.998l-6 -37l-174 124l8 44z" />
    <glyph glyph-name="uacute" unicode="&#xfa;" horiz-adv-x="623" 
d="M588 543l-96.001 -543.002h-45l21 117c-22.667 -40.667 -53.667 -71.834 -93 -93.501s-82 -32.5 -128 -32.5c-55.333 0 -99.833 14.833 -133.5 44.5s-50.5 73.834 -50.5 132.501c0 22 1.66699 41.667 5 59l57 316h44l-56 -313c-3.33301 -21.333 -5 -38.666 -5 -51.999
c0 -48.667 13.333 -85.5 40 -110.5s64 -37.5 112 -37.5c58.667 0 108.834 18.833 150.501 56.5s68.5 92.834 80.5 165.501v-3l52 294h45zM475.999 710.998l-218 -124l6 37l220 131z" />
    <glyph glyph-name="ucircumflex" unicode="&#xfb;" horiz-adv-x="623" 
d="M588 543l-96.001 -543.002h-45l21 117c-22.667 -40.667 -53.667 -71.834 -93 -93.501s-82 -32.5 -128 -32.5c-55.333 0 -99.833 14.833 -133.5 44.5s-50.5 73.834 -50.5 132.501c0 22 1.66699 41.667 5 59l57 316h44l-56 -313c-3.33301 -21.333 -5 -38.666 -5 -51.999
c0 -48.667 13.333 -85.5 40 -110.5s64 -37.5 112 -37.5c58.667 0 108.834 18.833 150.501 56.5s68.5 92.834 80.5 165.501v-3l52 294h45zM385.999 695.998l-143 -82l6 38l144 82l113 -82l-6 -38z" />
    <glyph glyph-name="udieresis" unicode="&#xfc;" horiz-adv-x="623" 
d="M588 543l-96.001 -543.002h-45l21 117c-22.667 -40.667 -53.667 -71.834 -93 -93.501s-82 -32.5 -128 -32.5c-55.333 0 -99.833 14.833 -133.5 44.5s-50.5 73.834 -50.5 132.501c0 22 1.66699 41.667 5 59l57 316h44l-56 -313c-3.33301 -21.333 -5 -38.666 -5 -51.999
c0 -48.667 13.333 -85.5 40 -110.5s64 -37.5 112 -37.5c58.667 0 108.834 18.833 150.501 56.5s68.5 92.834 80.5 165.501v-3l52 294h45zM279.999 633.998c-6 6 -9.00098 13.667 -9.00098 23c0 11.333 4.5 21.5 13.5 30.5s19.5 13.5 31.5 13.5
c8.66699 0 15.834 -3 21.501 -9s8.5 -13.333 8.5 -22c0 -12 -4.33301 -22.5 -13 -31.5s-18.667 -13.5 -30 -13.5c-9.33301 0 -17 3 -23 9zM423.998 633.998c-6 6 -9 13.667 -9 23c0 11.333 4.5 21.5 13.5 30.5s19.5 13.5 31.5 13.5c8.66699 0 16 -3 22 -9s9 -13.333 9 -22
c0 -12 -4.5 -22.5 -13.5 -31.5s-19.167 -13.5 -30.5 -13.5c-9.33301 0 -17 3 -23 9z" />
    <glyph glyph-name="yacute" unicode="&#xfd;" horiz-adv-x="524" 
d="M114 543l117 -487l275 487h48l-457 -798h-49l147 256l-130 542h49zM426 711l-218 -124l6 37l220 131z" />
    <glyph glyph-name="thorn" unicode="&#xfe;" horiz-adv-x="673" 
d="M251 505.5c45.333 29.667 96.6699 44.5 154.003 44.5c67.333 0 120.666 -19.167 159.999 -57.5s59 -90.833 59 -157.5c0 -20 -2 -41 -6 -63c-10 -56 -29.833 -105.167 -59.5 -147.5s-66.334 -75 -110.001 -98s-90.834 -34.5 -141.501 -34.5
c-57.333 0 -103.5 15 -138.5 45s-56.167 69.333 -63.5 118l-72 -411h-44l175 996h45l-62 -351c24 48 58.667 86.833 104 116.5zM577.004 329c0 57.333 -16.666 101.999 -49.999 133.999s-78.333 48 -135 48c-42 0 -81.667 -9.83301 -119 -29.5s-69 -47.667 -95 -84
s-43.333 -78.166 -52 -125.499c-3.33301 -21.333 -5 -39 -5 -53c0 -57.333 17.167 -102.833 51.5 -136.5s79.166 -50.5 134.499 -50.5c44 0 84.5 9.66699 121.5 29s68 47 93 83s41.833 78.667 50.5 128c3.33301 16.667 5 35.667 5 57z" />
    <glyph glyph-name="ydieresis" unicode="&#xff;" horiz-adv-x="524" 
d="M114 543l117 -487l275 487h48l-457 -798h-49l147 256l-130 542h49zM231 634c-6 6 -9.00098 13.667 -9.00098 23c0 11.333 4.5 21.5 13.5 30.5s19.5 13.5 31.5 13.5c8.66699 0 15.834 -3 21.501 -9s8.5 -13.333 8.5 -22c0 -12 -4.33301 -22.5 -13 -31.5
s-18.667 -13.5 -30 -13.5c-9.33301 0 -17 3 -23 9zM374.999 634c-6 6 -9 13.667 -9 23c0 11.333 4.5 21.5 13.5 30.5s19.5 13.5 31.5 13.5c8.66699 0 16 -3 22 -9s9 -13.333 9 -22c0 -12 -4.5 -22.5 -13.5 -31.5s-19.167 -13.5 -30.5 -13.5c-9.33301 0 -17 3 -23 9z" />
    <glyph glyph-name="Amacron" unicode="&#x100;" horiz-adv-x="627" 
d="M463 180h-333l-99 -180h-49l379 686h50l136 -686h-49zM456 217l-80 411l-226 -411h306zM574 832l-6 -35h-324l6 35h324z" />
    <glyph glyph-name="amacron" unicode="&#x101;" horiz-adv-x="673" 
d="M112.5 419c29.667 42 66.498 74.333 110.498 97s91.333 34 142 34c56.667 0 102.5 -14 137.5 -42s56.833 -63.667 65.5 -107l25 142h45l-97 -543h-44l25 143c-23.333 -44 -57.666 -80.167 -102.999 -108.5s-96.666 -42.5 -153.999 -42.5c-66 0 -118.833 19.5 -158.5 58.5
s-59.5 91.833 -59.5 158.5c0 20 2 41 6 63c10 56 29.833 105 59.5 147zM549.998 325c0 56.667 -17.002 101.833 -51.002 135.5s-79 50.5 -135 50.5c-44 0 -84.5 -9.5 -121.5 -28.5s-68 -46.5 -93 -82.5s-41.833 -78.667 -50.5 -128c-3.33301 -22 -5 -40.667 -5 -56
c0 -58 16.5 -103.167 49.5 -135.5s78.167 -48.5 135.5 -48.5c42 0 81.833 9.83301 119.5 29.5s69.334 47.667 95.001 84s42.834 78.5 51.501 126.5c3.33301 20 5 37.667 5 53zM573.996 687.999l-6 -35h-324l6 35h324z" />
    <glyph glyph-name="Abreve" unicode="&#x102;" horiz-adv-x="627" 
d="M463 180h-333l-99 -180h-49l379 686h50l136 -686h-49zM456 217l-80 411l-226 -411h306zM499.5 791c-25.667 -22 -59.1689 -33.001 -100.502 -33.001c-36 0 -63.167 8.83301 -81.5 26.5s-27.5 39.834 -27.5 66.501c0 4 0.666992 10.667 2 20l2 9h32
c-1.33301 -9.33301 -2 -16 -2 -20c0 -20.667 6.83301 -36.667 20.5 -48s33.834 -17 60.501 -17c31.333 0 56.333 7.33301 75 22s30.334 35.667 35.001 63h32l-1 -9c-5.33301 -31.333 -20.833 -58 -46.5 -80z" />
    <glyph glyph-name="abreve" unicode="&#x103;" horiz-adv-x="673" 
d="M112.5 419c29.667 42 66.498 74.333 110.498 97s91.333 34 142 34c56.667 0 102.5 -14 137.5 -42s56.833 -63.667 65.5 -107l25 142h45l-97 -543h-44l25 143c-23.333 -44 -57.666 -80.167 -102.999 -108.5s-96.666 -42.5 -153.999 -42.5c-66 0 -118.833 19.5 -158.5 58.5
s-59.5 91.833 -59.5 158.5c0 20 2 41 6 63c10 56 29.833 105 59.5 147zM549.998 325c0 56.667 -17.002 101.833 -51.002 135.5s-79 50.5 -135 50.5c-44 0 -84.5 -9.5 -121.5 -28.5s-68 -46.5 -93 -82.5s-41.833 -78.667 -50.5 -128c-3.33301 -22 -5 -40.667 -5 -56
c0 -58 16.5 -103.167 49.5 -135.5s78.167 -48.5 135.5 -48.5c42 0 81.833 9.83301 119.5 29.5s69.334 47.667 95.001 84s42.834 78.5 51.501 126.5c3.33301 20 5 37.667 5 53zM498.496 646.999c-25.667 -22 -59.1689 -33.001 -100.502 -33.001
c-36 0 -63.167 8.83301 -81.5 26.5s-27.5 39.834 -27.5 66.501c0 4 0.666992 10.667 2 20l2 9h32c-1.33301 -9.33301 -2 -16 -2 -20c0 -20.667 6.83301 -36.667 20.5 -48s33.834 -17 60.501 -17c31.333 0 56.333 7.33301 75 22s30.334 35.667 35.001 63h32l-1 -9
c-5.33301 -31.333 -20.833 -58 -46.5 -80z" />
    <glyph glyph-name="Aogonek" unicode="&#x104;" horiz-adv-x="627" 
d="M409.5 -151c10.333 -7.33301 24.166 -11.002 41.499 -11.002c18.667 0 41 4.33301 67 13l-6 -34c-24.667 -8.66699 -48 -13 -70 -13c-26 0 -47.167 5.66699 -63.5 17s-24.5 28.333 -24.5 51c0 24.667 9.33301 48.334 28 71.001s48.334 42.667 89.001 60l24 10l-32 167
h-333l-99 -180h-49l379 686h50l136 -686l-71 -31c-54.667 -23.333 -82 -53 -82 -89c0 -13.333 5.16699 -23.666 15.5 -30.999zM456 216.998l-80 411l-226 -411h306z" />
    <glyph glyph-name="aogonek" unicode="&#x105;" horiz-adv-x="673" 
d="M390 -121c0 -13.333 4.99805 -23.5 14.998 -30.5s23.667 -10.5 41 -10.5c20 0 42.333 4.33301 67 13l-6 -34c-24.667 -8.66699 -48 -13 -70 -13c-26 0 -47.167 5.5 -63.5 16.5s-24.5 27.5 -24.5 49.5c0 53.333 39 96.333 117 129l33 14l23 130
c-23.333 -44 -57.666 -80.167 -102.999 -108.5s-96.666 -42.5 -153.999 -42.5c-66 0 -118.833 19.5 -158.5 58.5s-59.5 91.833 -59.5 158.5c0 20 2 41 6 63c10 56 29.833 105 59.5 147s66.5 74.333 110.5 97s91.333 34 142 34c56.667 0 102.5 -14 137.5 -42
s56.833 -63.667 65.5 -107l25 142h45l-97 -541l1 -2l-71 -31c-54 -23.333 -81 -53.333 -81 -90zM398.498 61.5c37.667 19.667 69.332 47.666 94.999 83.999s42.834 78.5 51.501 126.5c3.33301 20 5 37.667 5 53c0 56.667 -17 101.834 -51 135.501s-79 50.5 -135 50.5
c-44 0 -84.5 -9.5 -121.5 -28.5s-68 -46.5 -93 -82.5s-41.833 -78.667 -50.5 -128c-3.33301 -22 -5 -40.667 -5 -56c0 -58 16.5 -103.167 49.5 -135.5s78.167 -48.5 135.5 -48.5c42 0 81.833 9.83301 119.5 29.5z" />
    <glyph glyph-name="Cacute" unicode="&#x106;" horiz-adv-x="770" 
d="M143.5 535.5c38.333 54.333 85.667 96.8311 142 127.498s116.166 46 179.499 46c80 0 144 -18.667 192 -56s79 -89.666 93 -156.999h-52c-11.333 52.667 -37.333 94.5 -78 125.5s-94.667 46.5 -162 46.5c-54 0 -105.167 -12.833 -153.5 -38.5s-89.5 -62.667 -123.5 -111
s-56.667 -104.5 -68 -168.5c-4 -24.667 -6 -48 -6 -70c0 -50.667 10 -94.5 30 -131.5s48 -65.333 84 -85s77.667 -29.5 125 -29.5c67.333 0 126.833 15.5 178.5 46.5s92.5 72.833 122.5 125.5h51c-36.667 -67.333 -85.667 -119.666 -147 -156.999s-132 -56 -212 -56
c-55.333 0 -104.166 11.833 -146.499 35.5s-75 56.834 -98 99.501s-34.5 91.667 -34.5 147c0 26 2.33301 51 7 75c12.667 69.333 38.167 131.166 76.5 185.499zM593.001 854.998l-218 -124l6 37l220 131z" />
    <glyph glyph-name="cacute" unicode="&#x107;" horiz-adv-x="621" 
d="M113 420c30 42 66.832 74.1641 110.499 96.4971s90.834 33.5 141.501 33.5c68 0 120.833 -17 158.5 -51s56.834 -79.667 57.501 -137h-47c-0.666992 46 -16.834 82.5 -48.501 109.5s-74.167 40.5 -127.5 40.5c-39.333 0 -77 -8.83301 -113 -26.5s-67 -44.667 -93 -81
s-43.667 -80.5 -53 -132.5c-4 -20.667 -6 -40.667 -6 -60c0 -58.667 16.833 -103.5 50.5 -134.5s76.834 -46.5 129.501 -46.5c53.333 0 100.5 13.333 141.5 40s70.167 63.334 87.5 110.001h48c-21.333 -57.333 -57 -103.166 -107 -137.499s-109 -51.5 -177 -51.5
c-66.667 0 -119.834 19.167 -159.501 57.5s-59.5 90.833 -59.5 157.5c0 20.667 2 42.334 6 65.001c10 56.667 30 106 60 148zM475.999 710.997l-218 -124l6 37l220 131z" />
    <glyph glyph-name="Cdotaccent" unicode="&#x10a;" horiz-adv-x="770" 
d="M143.5 535.5c38.333 54.333 85.667 96.8311 142 127.498s116.166 46 179.499 46c80 0 144 -18.667 192 -56s79 -89.666 93 -156.999h-52c-11.333 52.667 -37.333 94.5 -78 125.5s-94.667 46.5 -162 46.5c-54 0 -105.167 -12.833 -153.5 -38.5s-89.5 -62.667 -123.5 -111
s-56.667 -104.5 -68 -168.5c-4 -24.667 -6 -48 -6 -70c0 -50.667 10 -94.5 30 -131.5s48 -65.333 84 -85s77.667 -29.5 125 -29.5c67.333 0 126.833 15.5 178.5 46.5s92.5 72.833 122.5 125.5h51c-36.667 -67.333 -85.667 -119.666 -147 -156.999s-132 -56 -212 -56
c-55.333 0 -104.166 11.833 -146.499 35.5s-75 56.834 -98 99.501s-34.5 91.667 -34.5 147c0 26 2.33301 51 7 75c12.667 69.333 38.167 131.166 76.5 185.499zM465.501 760.998c-6.33301 6 -9.50195 13.333 -9.50195 22c0 12 4.83301 22.5 14.5 31.5s20.167 13.5 31.5 13.5
c9.33301 0 17 -2.83301 23 -8.5s9 -13.167 9 -22.5c0 -12 -4.66699 -22.5 -14 -31.5s-19.666 -13.5 -30.999 -13.5c-9.33301 0 -17.166 3 -23.499 9z" />
    <glyph glyph-name="cdotaccent" unicode="&#x10b;" horiz-adv-x="621" 
d="M113 420c30 42 66.832 74.1641 110.499 96.4971s90.834 33.5 141.501 33.5c68 0 120.833 -17 158.5 -51s56.834 -79.667 57.501 -137h-47c-0.666992 46 -16.834 82.5 -48.501 109.5s-74.167 40.5 -127.5 40.5c-39.333 0 -77 -8.83301 -113 -26.5s-67 -44.667 -93 -81
s-43.667 -80.5 -53 -132.5c-4 -20.667 -6 -40.667 -6 -60c0 -58.667 16.833 -103.5 50.5 -134.5s76.834 -46.5 129.501 -46.5c53.333 0 100.5 13.333 141.5 40s70.167 63.334 87.5 110.001h48c-21.333 -57.333 -57 -103.166 -107 -137.499s-109 -51.5 -177 -51.5
c-66.667 0 -119.834 19.167 -159.501 57.5s-59.5 90.833 -59.5 157.5c0 20.667 2 42.334 6 65.001c10 56.667 30 106 60 148zM347.499 617.997c-6.33301 6 -9.50195 13.333 -9.50195 22c0 12 4.83301 22.5 14.5 31.5s20.167 13.5 31.5 13.5c9.33301 0 17 -2.83301 23 -8.5
s9 -13.167 9 -22.5c0 -12 -4.66699 -22.5 -14 -31.5s-19.666 -13.5 -30.999 -13.5c-9.33301 0 -17.166 3 -23.499 9z" />
    <glyph glyph-name="Ccaron" unicode="&#x10c;" horiz-adv-x="770" 
d="M143.5 535.5c38.333 54.333 85.667 96.8311 142 127.498s116.166 46 179.499 46c80 0 144 -18.667 192 -56s79 -89.666 93 -156.999h-52c-11.333 52.667 -37.333 94.5 -78 125.5s-94.667 46.5 -162 46.5c-54 0 -105.167 -12.833 -153.5 -38.5s-89.5 -62.667 -123.5 -111
s-56.667 -104.5 -68 -168.5c-4 -24.667 -6 -48 -6 -70c0 -50.667 10 -94.5 30 -131.5s48 -65.333 84 -85s77.667 -29.5 125 -29.5c67.333 0 126.833 15.5 178.5 46.5s92.5 72.833 122.5 125.5h51c-36.667 -67.333 -85.667 -119.666 -147 -156.999s-132 -56 -212 -56
c-55.333 0 -104.166 11.833 -146.499 35.5s-75 56.834 -98 99.501s-34.5 91.667 -34.5 147c0 26 2.33301 51 7 75c12.667 69.333 38.167 131.166 76.5 185.499zM632.001 836.998l-143 -82l-115 82l7 38l115 -82l143 82z" />
    <glyph glyph-name="ccaron" unicode="&#x10d;" horiz-adv-x="621" 
d="M113 420c30 42 66.832 74.1641 110.499 96.4971s90.834 33.5 141.501 33.5c68 0 120.833 -17 158.5 -51s56.834 -79.667 57.501 -137h-47c-0.666992 46 -16.834 82.5 -48.501 109.5s-74.167 40.5 -127.5 40.5c-39.333 0 -77 -8.83301 -113 -26.5s-67 -44.667 -93 -81
s-43.667 -80.5 -53 -132.5c-4 -20.667 -6 -40.667 -6 -60c0 -58.667 16.833 -103.5 50.5 -134.5s76.834 -46.5 129.501 -46.5c53.333 0 100.5 13.333 141.5 40s70.167 63.334 87.5 110.001h48c-21.333 -57.333 -57 -103.166 -107 -137.499s-109 -51.5 -177 -51.5
c-66.667 0 -119.834 19.167 -159.501 57.5s-59.5 90.833 -59.5 157.5c0 20.667 2 42.334 6 65.001c10 56.667 30 106 60 148zM513.999 692.997l-143 -82l-115 82l7 38l115 -82l143 82z" />
    <glyph glyph-name="Dcaron" unicode="&#x10e;" horiz-adv-x="704" 
d="M589 632c54 -46.667 81 -112.667 81 -198c0 -24 -2.66699 -52 -8 -84c-19.333 -110.667 -66.5 -196.667 -141.5 -258s-172.167 -92 -291.5 -92h-196l125 702h196c102.667 0 181 -23.333 235 -70zM493.5 119c65 55.333 106.167 132.334 123.5 231.001
c4.66699 25.333 7 51 7 77c0 75.333 -23.167 133.666 -69.5 174.999s-115.5 62 -207.5 62h-151l-111 -628h152c106 0 191.5 27.667 256.5 83zM571 837.001l-143 -82l-115 82l7 38l115 -82l143 82z" />
    <glyph glyph-name="dcaron" unicode="&#x10f;" horiz-adv-x="700" 
d="M112.5 419c29.667 42 66.498 74.333 110.498 97s91.333 34 142 34c55.333 0 100.833 -13.833 136.5 -41.5s57.834 -63.5 66.501 -107.5l60 339h44l-131 -740h-44l26 144c-23.333 -44.667 -57.666 -81.167 -102.999 -109.5s-96.666 -42.5 -153.999 -42.5
c-66.667 0 -119.834 19.5 -159.501 58.5s-59.5 91.833 -59.5 158.5c0 20 2 41 6 63c10 56 29.833 105 59.5 147zM788.998 663c-6 -32.667 -16.8311 -55.833 -32.498 -69.5s-36.834 -20.5 -63.501 -20.5l5 28c16.667 0 29.167 3.83301 37.5 11.5s14.166 19.5 17.499 35.5
l5 27h-42l11 65h69c-0.666992 -24 -3 -49.667 -7 -77zM550 325.001c0 56.667 -17.002 101.833 -51.002 135.5s-79 50.5 -135 50.5c-44 0 -84.5 -9.5 -121.5 -28.5s-68 -46.5 -93 -82.5s-41.833 -78.667 -50.5 -128c-3.33301 -22 -5 -40.667 -5 -56
c0 -58 16.5 -103.167 49.5 -135.5s78.167 -48.5 135.5 -48.5c42 0 81.833 9.83301 119.5 29.5s69.334 47.667 95.001 84s42.834 78.5 51.501 126.5c3.33301 20 5 37.667 5 53z" />
    <glyph glyph-name="Dcroat" unicode="&#x110;" horiz-adv-x="736" 
d="M622 632c54 -46.667 80.999 -112.999 80.999 -198.999c0 -24.667 -2.66699 -52.334 -8 -83.001c-19.333 -110.667 -66.666 -196.667 -141.999 -258s-172.333 -92 -291 -92h-196l58 330h-105l8 41h105l58 331h196c103.333 0 182 -23.333 236 -70zM655.999 427.001
c0 75.333 -23.168 133.667 -69.501 175s-115.5 62 -207.5 62h-151l-51 -293h218l-7 -41h-219l-51 -294h151c106.667 0 192.334 27.667 257.001 83s105.667 132.333 123 231c4.66699 25.333 7 51 7 77z" />
    <glyph glyph-name="dcroat" unicode="&#x111;" horiz-adv-x="668" 
d="M719 634h-66.002l-112 -634h-44l26 144c-23.333 -44.667 -57.666 -81.167 -102.999 -109.5s-96.666 -42.5 -153.999 -42.5c-66.667 0 -119.834 19.5 -159.501 58.5s-59.5 91.833 -59.5 158.5c0 20 2 41 6 63c10 56 29.833 105 59.5 147s66.5 74.333 110.5 97
s91.333 34 142 34c55.333 0 100.833 -13.833 136.5 -41.5s57.834 -63.5 66.501 -107.5l41 233h-172l5 31h173l13 75h44l-13 -75h66zM549.998 325c0 56.667 -17.002 101.833 -51.002 135.5s-79 50.5 -135 50.5c-44 0 -84.5 -9.5 -121.5 -28.5s-68 -46.5 -93 -82.5
s-41.833 -78.667 -50.5 -128c-3.33301 -22 -5 -40.667 -5 -56c0 -58 16.5 -103.167 49.5 -135.5s78.167 -48.5 135.5 -48.5c42 0 81.833 9.83301 119.5 29.5s69.334 47.667 95.001 84s42.834 78.5 51.501 126.5c3.33301 20 5 37.667 5 53z" />
    <glyph glyph-name="Emacron" unicode="&#x112;" horiz-adv-x="491" 
d="M196 665l-52 -295h280l-7 -36h-279l-53 -297h310l-7 -37h-355l125 702h354l-7 -37h-309zM501 832l-6 -35h-324l6 35h324z" />
    <glyph glyph-name="emacron" unicode="&#x113;" horiz-adv-x="625" 
d="M483.5 523.5c32.333 -17.667 56.666 -41.334 72.999 -71.001s24.5 -62.834 24.5 -99.501c0 -16 -1.33301 -30.667 -4 -44c-4 -24 -8 -42 -12 -54h-469c-2.66699 -21.333 -4 -36.666 -4 -45.999c0 -57.333 17.333 -101.333 52 -132s78.334 -46 131.001 -46
s99.5 13.167 140.5 39.5s70.167 62.166 87.5 107.499h47c-21.333 -55.333 -56.833 -100.166 -106.5 -134.499s-108.167 -51.5 -175.5 -51.5c-66.667 0 -120.167 19.333 -160.5 58s-60.5 91.334 -60.5 158.001c0 20.667 2 42 6 64c10 56.667 30 106 60 148
s66.833 74.167 110.5 96.5s91.167 33.5 142.5 33.5c46 0 85.167 -8.83301 117.5 -26.5zM536 349c0 52.667 -16.833 93 -50.5 121s-76.167 42 -127.5 42c-38 0 -74.667 -8.33301 -110 -25s-66 -41.667 -92 -75s-44 -74 -54 -122h427c4.66699 19.333 7 39 7 59zM547 688
l-6 -35h-324l6 35h324z" />
    <glyph glyph-name="Ebreve" unicode="&#x114;" horiz-adv-x="491" 
d="M196 665l-52 -295h280l-7 -36h-279l-53 -297h310l-7 -37h-355l125 702h354l-7 -37h-309zM425.5 791c-25.667 -22 -59.1689 -33.001 -100.502 -33.001c-36 0 -63.167 8.83301 -81.5 26.5s-27.5 39.834 -27.5 66.501c0 4 0.666992 10.667 2 20l2 9h32
c-1.33301 -9.33301 -2 -16 -2 -20c0 -20.667 6.83301 -36.667 20.5 -48s33.834 -17 60.501 -17c31.333 0 56.333 7.33301 75 22s30.334 35.667 35.001 63h32l-1 -9c-5.33301 -31.333 -20.833 -58 -46.5 -80z" />
    <glyph glyph-name="ebreve" unicode="&#x115;" horiz-adv-x="625" 
d="M483.5 523.5c32.333 -17.667 56.666 -41.334 72.999 -71.001s24.5 -62.834 24.5 -99.501c0 -16 -1.33301 -30.667 -4 -44c-4 -24 -8 -42 -12 -54h-469c-2.66699 -21.333 -4 -36.666 -4 -45.999c0 -57.333 17.333 -101.333 52 -132s78.334 -46 131.001 -46
s99.5 13.167 140.5 39.5s70.167 62.166 87.5 107.499h47c-21.333 -55.333 -56.833 -100.166 -106.5 -134.499s-108.167 -51.5 -175.5 -51.5c-66.667 0 -120.167 19.333 -160.5 58s-60.5 91.334 -60.5 158.001c0 20.667 2 42 6 64c10 56.667 30 106 60 148
s66.833 74.167 110.5 96.5s91.167 33.5 142.5 33.5c46 0 85.167 -8.83301 117.5 -26.5zM536 349c0 52.667 -16.833 93 -50.5 121s-76.167 42 -127.5 42c-38 0 -74.667 -8.33301 -110 -25s-66 -41.667 -92 -75s-44 -74 -54 -122h427c4.66699 19.333 7 39 7 59zM472.5 647
c-25.667 -22 -59.1689 -33.001 -100.502 -33.001c-36 0 -63.167 8.83301 -81.5 26.5s-27.5 39.834 -27.5 66.501c0 4 0.666992 10.667 2 20l2 9h32c-1.33301 -9.33301 -2 -16 -2 -20c0 -20.667 6.83301 -36.667 20.5 -48s33.834 -17 60.501 -17
c31.333 0 56.333 7.33301 75 22s30.334 35.667 35.001 63h32l-1 -9c-5.33301 -31.333 -20.833 -58 -46.5 -80z" />
    <glyph glyph-name="Edotaccent" unicode="&#x116;" horiz-adv-x="491" 
d="M196 665l-52 -295h280l-7 -36h-279l-53 -297h310l-7 -37h-355l125 702h354l-7 -37h-309zM301.5 761c-6.33301 6 -9.50195 13.333 -9.50195 22c0 12 4.83301 22.5 14.5 31.5s20.167 13.5 31.5 13.5c9.33301 0 17 -2.83301 23 -8.5s9 -13.167 9 -22.5
c0 -12 -4.66699 -22.5 -14 -31.5s-19.666 -13.5 -30.999 -13.5c-9.33301 0 -17.166 3 -23.499 9z" />
    <glyph glyph-name="edotaccent" unicode="&#x117;" horiz-adv-x="625" 
d="M483.5 523.5c32.333 -17.667 56.666 -41.334 72.999 -71.001s24.5 -62.834 24.5 -99.501c0 -16 -1.33301 -30.667 -4 -44c-4 -24 -8 -42 -12 -54h-469c-2.66699 -21.333 -4 -36.666 -4 -45.999c0 -57.333 17.333 -101.333 52 -132s78.334 -46 131.001 -46
s99.5 13.167 140.5 39.5s70.167 62.166 87.5 107.499h47c-21.333 -55.333 -56.833 -100.166 -106.5 -134.499s-108.167 -51.5 -175.5 -51.5c-66.667 0 -120.167 19.333 -160.5 58s-60.5 91.334 -60.5 158.001c0 20.667 2 42 6 64c10 56.667 30 106 60 148
s66.833 74.167 110.5 96.5s91.167 33.5 142.5 33.5c46 0 85.167 -8.83301 117.5 -26.5zM536 349c0 52.667 -16.833 93 -50.5 121s-76.167 42 -127.5 42c-38 0 -74.667 -8.33301 -110 -25s-66 -41.667 -92 -75s-44 -74 -54 -122h427c4.66699 19.333 7 39 7 59zM348.5 618
c-6.33301 6 -9.50195 13.333 -9.50195 22c0 12 4.83301 22.5 14.5 31.5s20.167 13.5 31.5 13.5c9.33301 0 17 -2.83301 23 -8.5s9 -13.167 9 -22.5c0 -12 -4.66699 -22.5 -14 -31.5s-19.666 -13.5 -30.999 -13.5c-9.33301 0 -17.166 3 -23.499 9z" />
    <glyph glyph-name="Eogonek" unicode="&#x118;" horiz-adv-x="491" 
d="M196 665l-52 -295h280l-7 -36h-279l-53 -297h310l-7 -37l-71 -31c-54 -23.333 -81 -53.333 -81 -90c0 -13.333 5 -23.5 15 -30.5s23.667 -10.5 41 -10.5c20 0 42.333 4.33301 67 13l-6 -34c-24.667 -8.66699 -48 -13 -70 -13c-26 0 -47.167 5.5 -63.5 16.5
s-24.5 27.5 -24.5 49.5c0 53.333 39 96.333 117 129l2 1h-281l125 702h354l-7 -37h-309z" />
    <glyph glyph-name="eogonek" unicode="&#x119;" horiz-adv-x="625" 
d="M483.5 523.5c32.333 -17.667 56.666 -41.3291 72.999 -70.9961s24.5 -62.834 24.5 -99.501c0 -16 -1.33301 -30.667 -4 -44c-4 -24 -8 -42 -12 -54h-469c-2.66699 -21.333 -4 -36.666 -4 -45.999c0 -57.333 17.333 -101.333 52 -132s78.334 -46 131.001 -46
s99.5 13.167 140.5 39.5s70.167 62.166 87.5 107.499h47c-16 -41.333 -40.5 -77.333 -73.5 -108s-71.833 -52.334 -116.5 -65.001l-52 -23c-54 -23.333 -81 -53.333 -81 -90c0 -13.333 5 -23.5 15 -30.5s23.667 -10.5 41 -10.5c20 0 42.333 4.33301 67 13l-6 -34
c-24.667 -8.66699 -48 -13 -70 -13c-26 0 -47.167 5.5 -63.5 16.5s-24.5 27.5 -24.5 49.5c0 43.333 25.333 79.666 76 108.999c-65.333 1.33301 -117.5 21.166 -156.5 59.499s-58.5 90.5 -58.5 156.5c0 20.667 2 42 6 64c10 56.667 30 106 60 148s66.833 74.167 110.5 96.5
s91.167 33.5 142.5 33.5c46 0 85.167 -8.83301 117.5 -26.5zM536 349.005c0 52.667 -16.833 93 -50.5 121s-76.167 42 -127.5 42c-38 0 -74.667 -8.33301 -110 -25s-66 -41.667 -92 -75s-44 -74 -54 -122h427c4.66699 19.333 7 39 7 59z" />
    <glyph glyph-name="Ecaron" unicode="&#x11a;" horiz-adv-x="491" 
d="M196 665l-52 -295h280l-7 -36h-279l-53 -297h310l-7 -37h-355l125 702h354l-7 -37h-309zM468 837l-143 -82l-115 82l7 38l115 -82l143 82z" />
    <glyph glyph-name="ecaron" unicode="&#x11b;" horiz-adv-x="625" 
d="M483.5 523.5c32.333 -17.667 56.666 -41.334 72.999 -71.001s24.5 -62.834 24.5 -99.501c0 -16 -1.33301 -30.667 -4 -44c-4 -24 -8 -42 -12 -54h-469c-2.66699 -21.333 -4 -36.666 -4 -45.999c0 -57.333 17.333 -101.333 52 -132s78.334 -46 131.001 -46
s99.5 13.167 140.5 39.5s70.167 62.166 87.5 107.499h47c-21.333 -55.333 -56.833 -100.166 -106.5 -134.499s-108.167 -51.5 -175.5 -51.5c-66.667 0 -120.167 19.333 -160.5 58s-60.5 91.334 -60.5 158.001c0 20.667 2 42 6 64c10 56.667 30 106 60 148
s66.833 74.167 110.5 96.5s91.167 33.5 142.5 33.5c46 0 85.167 -8.83301 117.5 -26.5zM536 349c0 52.667 -16.833 93 -50.5 121s-76.167 42 -127.5 42c-38 0 -74.667 -8.33301 -110 -25s-66 -41.667 -92 -75s-44 -74 -54 -122h427c4.66699 19.333 7 39 7 59zM515 693
l-143 -82l-115 82l7 38l115 -82l143 82z" />
    <glyph glyph-name="Gbreve" unicode="&#x11e;" horiz-adv-x="787" 
d="M143.5 535.5c39 54.333 87.1631 96.6699 144.496 127.003s118.333 45.5 183 45.5c75.333 0 137.166 -18.833 185.499 -56.5s79.5 -89.834 93.5 -156.501h-52c-11.333 52.667 -37.5 94.667 -78.5 126s-92.833 47 -155.5 47c-55.333 0 -107.666 -13 -156.999 -39
s-91.166 -63 -125.499 -111s-57.166 -104 -68.499 -168c-4 -24 -6 -47.333 -6 -70c0 -50.667 10.333 -94.5 31 -131.5s49.5 -65.5 86.5 -85.5s79.5 -30 127.5 -30c53.333 0 103.833 12 151.5 36s88.334 58.167 122.001 102.5s57.167 96.5 70.5 156.5h-313l7 37h359l-6 -30
c-13.333 -65.333 -39.166 -123.833 -77.499 -175.5s-85.5 -92.334 -141.5 -122.001s-115.667 -44.5 -179 -44.5c-56.667 0 -106.5 11.667 -149.5 35s-76.333 56.5 -100 99.5s-35.5 92.5 -35.5 148.5c0 25.333 2.33301 50 7 74c12 69.333 37.5 131.166 76.5 185.499z
M589.496 791.004c-25.667 -22 -59.1689 -33.001 -100.502 -33.001c-36 0 -63.167 8.83301 -81.5 26.5s-27.5 39.834 -27.5 66.501c0 4 0.666992 10.667 2 20l2 9h32c-1.33301 -9.33301 -2 -16 -2 -20c0 -20.667 6.83301 -36.667 20.5 -48s33.834 -17 60.501 -17
c31.333 0 56.333 7.33301 75 22s30.334 35.667 35.001 63h32l-1 -9c-5.33301 -31.333 -20.833 -58 -46.5 -80z" />
    <glyph glyph-name="gbreve" unicode="&#x11f;" horiz-adv-x="673" 
d="M503 508.5c35.333 -27.667 57 -63.1689 65 -106.502l25 141h45l-99 -560c-9.33301 -50 -28.166 -93.833 -56.499 -131.5s-63 -66.667 -104 -87s-84.5 -30.5 -130.5 -30.5c-68 0 -121.5 16.333 -160.5 49s-60.167 76.667 -63.5 132h45
c5.33301 -43.333 24 -77.833 56 -103.5s75.333 -38.5 130 -38.5c38 0 73.833 8.5 107.5 25.5s62.167 41.333 85.5 73s38.666 68.834 45.999 111.501l28 159c-23.333 -43.333 -57.666 -79.166 -102.999 -107.499s-96.333 -42.5 -153 -42.5
c-66.667 0 -119.834 19.5 -159.501 58.5s-59.5 91.833 -59.5 158.5c0 20 2 41 6 63c10 56 29.833 105 59.5 147s66.5 74.333 110.5 97s91.333 34 142 34c56.667 0 102.667 -13.833 138 -41.5zM550 324.998c0 56.667 -17.002 101.833 -51.002 135.5s-79 50.5 -135 50.5
c-44 0 -84.5 -9.5 -121.5 -28.5s-68 -46.5 -93 -82.5s-41.833 -78.667 -50.5 -128c-3.33301 -22 -5 -40.667 -5 -56c0 -58 16.5 -103.167 49.5 -135.5s78.167 -48.5 135.5 -48.5c42 0 81.833 9.83301 119.5 29.5s69.334 47.667 95.001 84s42.834 78.5 51.501 126.5
c3.33301 20 5 37.667 5 53zM498.498 646.997c-25.667 -22 -59.1689 -33.001 -100.502 -33.001c-36 0 -63.167 8.83301 -81.5 26.5s-27.5 39.834 -27.5 66.501c0 4 0.666992 10.667 2 20l2 9h32c-1.33301 -9.33301 -2 -16 -2 -20c0 -20.667 6.83301 -36.667 20.5 -48
s33.834 -17 60.501 -17c31.333 0 56.333 7.33301 75 22s30.334 35.667 35.001 63h32l-1 -9c-5.33301 -31.333 -20.833 -58 -46.5 -80z" />
    <glyph glyph-name="Gdotaccent" unicode="&#x120;" horiz-adv-x="787" 
d="M143.5 535.5c39 54.333 87.1631 96.6699 144.496 127.003s118.333 45.5 183 45.5c75.333 0 137.166 -18.833 185.499 -56.5s79.5 -89.834 93.5 -156.501h-52c-11.333 52.667 -37.5 94.667 -78.5 126s-92.833 47 -155.5 47c-55.333 0 -107.666 -13 -156.999 -39
s-91.166 -63 -125.499 -111s-57.166 -104 -68.499 -168c-4 -24 -6 -47.333 -6 -70c0 -50.667 10.333 -94.5 31 -131.5s49.5 -65.5 86.5 -85.5s79.5 -30 127.5 -30c53.333 0 103.833 12 151.5 36s88.334 58.167 122.001 102.5s57.167 96.5 70.5 156.5h-313l7 37h359l-6 -30
c-13.333 -65.333 -39.166 -123.833 -77.499 -175.5s-85.5 -92.334 -141.5 -122.001s-115.667 -44.5 -179 -44.5c-56.667 0 -106.5 11.667 -149.5 35s-76.333 56.5 -100 99.5s-35.5 92.5 -35.5 148.5c0 25.333 2.33301 50 7 74c12 69.333 37.5 131.166 76.5 185.499z
M465.496 761.004c-6.33301 6 -9.50195 13.333 -9.50195 22c0 12 4.83301 22.5 14.5 31.5s20.167 13.5 31.5 13.5c9.33301 0 17 -2.83301 23 -8.5s9 -13.167 9 -22.5c0 -12 -4.66699 -22.5 -14 -31.5s-19.666 -13.5 -30.999 -13.5c-9.33301 0 -17.166 3 -23.499 9z" />
    <glyph glyph-name="gdotaccent" unicode="&#x121;" horiz-adv-x="673" 
d="M503 508.5c35.333 -27.667 57 -63.1689 65 -106.502l25 141h45l-99 -560c-9.33301 -50 -28.166 -93.833 -56.499 -131.5s-63 -66.667 -104 -87s-84.5 -30.5 -130.5 -30.5c-68 0 -121.5 16.333 -160.5 49s-60.167 76.667 -63.5 132h45
c5.33301 -43.333 24 -77.833 56 -103.5s75.333 -38.5 130 -38.5c38 0 73.833 8.5 107.5 25.5s62.167 41.333 85.5 73s38.666 68.834 45.999 111.501l28 159c-23.333 -43.333 -57.666 -79.166 -102.999 -107.499s-96.333 -42.5 -153 -42.5
c-66.667 0 -119.834 19.5 -159.501 58.5s-59.5 91.833 -59.5 158.5c0 20 2 41 6 63c10 56 29.833 105 59.5 147s66.5 74.333 110.5 97s91.333 34 142 34c56.667 0 102.667 -13.833 138 -41.5zM550 324.998c0 56.667 -17.002 101.833 -51.002 135.5s-79 50.5 -135 50.5
c-44 0 -84.5 -9.5 -121.5 -28.5s-68 -46.5 -93 -82.5s-41.833 -78.667 -50.5 -128c-3.33301 -22 -5 -40.667 -5 -56c0 -58 16.5 -103.167 49.5 -135.5s78.167 -48.5 135.5 -48.5c42 0 81.833 9.83301 119.5 29.5s69.334 47.667 95.001 84s42.834 78.5 51.501 126.5
c3.33301 20 5 37.667 5 53zM374.498 617.997c-6.33301 6 -9.50195 13.333 -9.50195 22c0 12 4.83301 22.5 14.5 31.5s20.167 13.5 31.5 13.5c9.33301 0 17 -2.83301 23 -8.5s9 -13.167 9 -22.5c0 -12 -4.66699 -22.5 -14 -31.5s-19.666 -13.5 -30.999 -13.5
c-9.33301 0 -17.166 3 -23.499 9z" />
    <glyph glyph-name="uni0122" unicode="&#x122;" horiz-adv-x="787" 
d="M143.5 535.5c39 54.333 87.1631 96.6699 144.496 127.003s118.333 45.5 183 45.5c75.333 0 137.166 -18.833 185.499 -56.5s79.5 -89.834 93.5 -156.501h-52c-11.333 52.667 -37.5 94.667 -78.5 126s-92.833 47 -155.5 47c-55.333 0 -107.666 -13 -156.999 -39
s-91.166 -63 -125.499 -111s-57.166 -104 -68.499 -168c-4 -24 -6 -47.333 -6 -70c0 -50.667 10.333 -94.5 31 -131.5s49.5 -65.5 86.5 -85.5s79.5 -30 127.5 -30c53.333 0 103.833 12 151.5 36s88.334 58.167 122.001 102.5s57.167 96.5 70.5 156.5h-313l7 37h359l-6 -30
c-13.333 -65.333 -39.166 -123.833 -77.499 -175.5s-85.5 -92.334 -141.5 -122.001s-115.667 -44.5 -179 -44.5c-56.667 0 -106.5 11.667 -149.5 35s-76.333 56.5 -100 99.5s-35.5 92.5 -35.5 148.5c0 25.333 2.33301 50 7 74c12 69.333 37.5 131.166 76.5 185.499z
M367.996 -104.996c-6 -34.667 -17.166 -59.333 -33.499 -74s-36.833 -22 -61.5 -22l5 27c16 0 28.167 4.5 36.5 13.5s14.166 22.5 17.499 40.5l2 11h-37l10 53h64c0 -18 -1 -34.333 -3 -49z" />
    <glyph glyph-name="uni0123" unicode="&#x123;" horiz-adv-x="673" 
d="M356 671c6 32.667 16.833 56.001 32.5 70.001s36.5 21 62.5 21l-5 -28c-16.667 0 -29 -3.83301 -37 -11.5s-13.667 -19.834 -17 -36.501l-5 -27h42l-11 -65h-69c0.666992 24 3 49.667 7 77zM503 508.501c35.333 -27.667 57 -63.1689 65 -106.502l25 141h45l-99 -560
c-9.33301 -50 -28.166 -93.833 -56.499 -131.5s-63 -66.667 -104 -87s-84.5 -30.5 -130.5 -30.5c-68 0 -121.5 16.333 -160.5 49s-60.167 76.667 -63.5 132h45c5.33301 -43.333 24 -77.833 56 -103.5s75.333 -38.5 130 -38.5c38 0 73.833 8.5 107.5 25.5
s62.167 41.333 85.5 73s38.666 68.834 45.999 111.501l28 159c-23.333 -43.333 -57.666 -79.166 -102.999 -107.499s-96.333 -42.5 -153 -42.5c-66.667 0 -119.834 19.5 -159.501 58.5s-59.5 91.833 -59.5 158.5c0 20 2 41 6 63c10 56 29.833 105 59.5 147
s66.5 74.333 110.5 97s91.333 34 142 34c56.667 0 102.667 -13.833 138 -41.5zM550 324.999c0 56.667 -17.002 101.833 -51.002 135.5s-79 50.5 -135 50.5c-44 0 -84.5 -9.5 -121.5 -28.5s-68 -46.5 -93 -82.5s-41.833 -78.667 -50.5 -128c-3.33301 -22 -5 -40.667 -5 -56
c0 -58 16.5 -103.167 49.5 -135.5s78.167 -48.5 135.5 -48.5c42 0 81.833 9.83301 119.5 29.5s69.334 47.667 95.001 84s42.834 78.5 51.501 126.5c3.33301 20 5 37.667 5 53z" />
    <glyph glyph-name="Itilde" unicode="&#x128;" horiz-adv-x="210" 
d="M203 702l-125 -702h-45l125 702h45zM108.5 808c15.667 14 33.502 21.001 53.502 21.001c12 0 21.833 -2.16699 29.5 -6.5s16.167 -10.833 25.5 -19.5c8.66699 -8 16.167 -13.833 22.5 -17.5s14.5 -5.5 24.5 -5.5c11.333 0 21.833 4 31.5 12s16.5 19.333 20.5 34h30
c-6.66699 -24 -18.167 -43.167 -34.5 -57.5s-34.5 -21.5 -54.5 -21.5c-12.667 0 -22.834 2.16699 -30.501 6.5s-16.834 11.166 -27.501 20.499c-9.33301 7.33301 -17 12.833 -23 16.5s-13.333 5.5 -22 5.5c-23.333 0 -40 -15.667 -50 -47h-30
c7.33301 25.333 18.833 45 34.5 59z" />
    <glyph glyph-name="itilde" unicode="&#x129;" horiz-adv-x="210" 
d="M175 543l-97 -543h-45l97 543h45zM83.5 664c15.667 14 33.502 21.001 53.502 21.001c12 0 21.833 -2.16699 29.5 -6.5s16.167 -10.833 25.5 -19.5c8.66699 -8 16.167 -13.833 22.5 -17.5s14.5 -5.5 24.5 -5.5c11.333 0 21.833 4 31.5 12s16.5 19.333 20.5 34h30
c-6.66699 -24 -18.167 -43.167 -34.5 -57.5s-34.5 -21.5 -54.5 -21.5c-12.667 0 -22.834 2.16699 -30.501 6.5s-16.834 11.166 -27.501 20.499c-9.33301 7.33301 -17 12.833 -23 16.5s-13.333 5.5 -22 5.5c-23.333 0 -40 -15.667 -50 -47h-30
c7.33301 25.333 18.833 45 34.5 59z" />
    <glyph glyph-name="Imacron" unicode="&#x12a;" horiz-adv-x="210" 
d="M203 702l-125 -702h-45l125 702h45zM365 832l-6 -35h-324l6 35h324z" />
    <glyph glyph-name="imacron" unicode="&#x12b;" horiz-adv-x="210" 
d="M175 543l-97 -543h-45l97 543h45zM339 688l-6 -35h-324l6 35h324z" />
    <glyph glyph-name="uni012C" unicode="&#x12c;" horiz-adv-x="210" 
d="M203 702l-125 -702h-45l125 702h45zM290.5 791c-25.667 -22 -59.1689 -33.001 -100.502 -33.001c-36 0 -63.167 8.83301 -81.5 26.5s-27.5 39.834 -27.5 66.501c0 4 0.666992 10.667 2 20l2 9h32c-1.33301 -9.33301 -2 -16 -2 -20c0 -20.667 6.83301 -36.667 20.5 -48
s33.834 -17 60.501 -17c31.333 0 56.333 7.33301 75 22s30.334 35.667 35.001 63h32l-1 -9c-5.33301 -31.333 -20.833 -58 -46.5 -80z" />
    <glyph glyph-name="uni012D" unicode="&#x12d;" horiz-adv-x="210" 
d="M175 543l-97 -543h-45l97 543h45zM264.5 647c-25.667 -22 -59.1689 -33.001 -100.502 -33.001c-36 0 -63.167 8.83301 -81.5 26.5s-27.5 39.834 -27.5 66.501c0 4 0.666992 10.667 2 20l2 9h32c-1.33301 -9.33301 -2 -16 -2 -20c0 -20.667 6.83301 -36.667 20.5 -48
s33.834 -17 60.501 -17c31.333 0 56.333 7.33301 75 22s30.334 35.667 35.001 63h32l-1 -9c-5.33301 -31.333 -20.833 -58 -46.5 -80z" />
    <glyph glyph-name="Iogonek" unicode="&#x12e;" horiz-adv-x="210" 
d="M-73 -121c0 -13.333 5 -23.5 15 -30.5s23.667 -10.5 41 -10.5c20 0 42.333 4.33301 67 13l-6 -34c-24.667 -8.66699 -48 -13 -70 -13c-26 0 -47.167 5.5 -63.5 16.5s-24.5 27.5 -24.5 49.5c0 53.333 39 96.333 117 129l32 14l123 689h45l-125 -700l1 -2l-71 -31
c-54 -23.333 -81 -53.333 -81 -90z" />
    <glyph glyph-name="iogonek" unicode="&#x12f;" horiz-adv-x="210" 
d="M210.5 733c6.33301 -6 9.50098 -13.667 9.50098 -23c0 -13.333 -4.83301 -24.333 -14.5 -33s-20.5 -13 -32.5 -13c-9.33301 0 -17 2.83301 -23 8.5s-9 13.167 -9 22.5c0 13.333 4.66699 24.5 14 33.5s20 13.5 32 13.5c9.33301 0 17.166 -3 23.499 -9zM175.001 543
l-97 -541l1 -2l-71 -31c-54 -23.333 -81 -53.333 -81 -90c0 -13.333 5 -23.5 15 -30.5s23.667 -10.5 41 -10.5c20 0 42.333 4.33301 67 13l-6 -34c-24.667 -8.66699 -48 -13 -70 -13c-26 0 -47.167 5.5 -63.5 16.5s-24.5 27.5 -24.5 49.5c0 53.333 39 96.333 117 129l32 14
l95 530h45z" />
    <glyph glyph-name="Idotaccent" unicode="&#x130;" horiz-adv-x="210" 
d="M203 702l-125 -702h-45l125 702h45zM165.5 761c-6.33301 6 -9.50195 13.333 -9.50195 22c0 12 4.83301 22.5 14.5 31.5s20.167 13.5 31.5 13.5c9.33301 0 17 -2.83301 23 -8.5s9 -13.167 9 -22.5c0 -12 -4.66699 -22.5 -14 -31.5s-19.666 -13.5 -30.999 -13.5
c-9.33301 0 -17.166 3 -23.499 9z" />
    <glyph glyph-name="dotlessi" unicode="&#x131;" horiz-adv-x="210" 
d="M175 543l-97 -543h-45l97 543h45z" />
    <glyph glyph-name="uni0136" unicode="&#x136;" horiz-adv-x="531" 
d="M179 350l281 -350h-59l-264 329l-59 -329h-45l125 702h45l-59 -333l382 333h57zM235 -56c0.666992 -12 -0.331055 -28.332 -2.99805 -48.999c-6 -34.667 -17.167 -59.334 -33.5 -74.001s-36.833 -22 -61.5 -22l6 27c15.333 0 27.166 4.5 35.499 13.5
s14.166 22.5 17.499 40.5l2 11h-37l9 53h65z" />
    <glyph glyph-name="uni0137" unicode="&#x137;" horiz-adv-x="437" 
d="M159 273l218 -273h-62l-193 249l-44 -249h-45l131 740h45l-78 -443l276 246h63zM131 -56l65.002 0.000976562c0 -12.667 -1.33301 -29 -4 -49c-6 -34.667 -17.167 -59.334 -33.5 -74.001s-36.833 -22 -61.5 -22l6 27c15.333 0 27.166 4.5 35.499 13.5
s14.166 22.5 17.499 40.5l2 11h-37z" />
    <glyph glyph-name="Lacute" unicode="&#x139;" horiz-adv-x="408" 
d="M85 36h261l-7 -36h-306l125 702h45zM396 855l-218 -124l6 37l220 131z" />
    <glyph glyph-name="lacute" unicode="&#x13a;" horiz-adv-x="210" 
d="M209 740l-131 -740h-45l131 740h45zM303 908l-218 -124l6 37l220 131z" />
    <glyph glyph-name="uni013B" unicode="&#x13b;" horiz-adv-x="408" 
d="M85 36h261l-7 -36h-306l125 702h45zM207 -105c-6.66699 -35.333 -17.998 -60.167 -33.998 -74.5s-36.667 -21.5 -62 -21.5l6 27c15.333 0 27.166 4.5 35.499 13.5s14.166 22.5 17.499 40.5l2 11h-37l10 53h65c0 -18 -1 -34.333 -3 -49z" />
    <glyph glyph-name="uni013C" unicode="&#x13c;" horiz-adv-x="210" 
d="M209 740l-131 -740h-45l131 740h45zM73 -105c-6 -34.667 -17.166 -59.333 -33.499 -74s-36.833 -22 -61.5 -22l5 27c16 0 28.167 4.5 36.5 13.5s14.166 22.5 17.499 40.5l2 11h-37l9 53h65c0 -18 -1 -34.333 -3 -49z" />
    <glyph glyph-name="Lcaron" unicode="&#x13d;" horiz-adv-x="413" 
d="M85 36h261l-7 -36h-306l125 702h45zM386 625c-6 -32.667 -16.834 -56 -32.501 -70s-36.5 -21 -62.5 -21l5 28c16.667 0 29.167 4 37.5 12s13.833 20 16.5 36l5 27h-42l12 65h68c-1.33301 -32 -3.66602 -57.667 -6.99902 -77z" />
    <glyph glyph-name="lcaron" unicode="&#x13e;" horiz-adv-x="253" 
d="M209 740l-131 -740h-45l131 740h45zM333 663c-5.33301 -32.667 -16 -55.832 -32 -69.499s-37 -20.5 -63 -20.5l5 28c16.667 0 29.167 3.83301 37.5 11.5s13.833 19.5 16.5 35.5l6 27h-42l11 65h68c0 -26.667 -2.33301 -52.334 -7 -77.001z" />
    <glyph glyph-name="Ldot" unicode="&#x13f;" horiz-adv-x="408" 
d="M158 702h45l-118 -666h261l-7 -36h-306zM294 318c-6 7.33301 -8.33203 16.333 -6.99902 27c2 10.667 7.5 19.667 16.5 27s18.833 11 29.5 11c10 0 18 -3.66699 24 -11s8 -16.333 6 -27c-1.33301 -10.667 -6.33301 -19.667 -15 -27s-18.334 -11 -29.001 -11
s-19 3.66699 -25 11z" />
    <glyph glyph-name="ldot" unicode="&#x140;" horiz-adv-x="251" 
d="M164 740h45l-131 -740h-45zM219 338c-5.33301 6 -8.00098 13.667 -8.00098 23c0 11.333 4.5 21.5 13.5 30.5s19.167 13.5 30.5 13.5c10 0 18.167 -3.83301 24.5 -11.5s8.83301 -16.5 7.5 -26.5c-2 -10.667 -7.5 -19.667 -16.5 -27s-18.833 -11 -29.5 -11
c-9.33301 0 -16.666 3 -21.999 9z" />
    <glyph glyph-name="Lslash" unicode="&#x141;" horiz-adv-x="423" 
d="M364 36l-7 -36h-306l60 338l-97 -39l7 44l97 39l57 320h46l-53 -300l153 61l-8 -44l-153 -61l-57 -322h261z" />
    <glyph glyph-name="lslash" unicode="&#x142;" horiz-adv-x="224" 
d="M251 481l-87 -40l-78 -441h-45l74 419l-87 -40l7 42l88 40l49 279h45l-45 -257l86 40z" />
    <glyph glyph-name="Nacute" unicode="&#x143;" horiz-adv-x="667" 
d="M535 0h-45l-301 628l-111 -628h-45l124 701h45l302 -626l110 626h45zM522 855l-218 -124l6 37l220 131z" />
    <glyph glyph-name="nacute" unicode="&#x144;" horiz-adv-x="623" 
d="M509 509.5c33.333 -29.667 50.001 -73.5 50.001 -131.5c0 -18 -2 -38 -6 -60l-56 -318h-44l56 315c3.33301 21.333 5 39 5 53c0 48 -13.333 84.5 -40 109.5s-64 37.5 -112 37.5c-56 0 -104.333 -17.333 -145 -52s-68.667 -85.667 -84 -153l-55 -310h-45l97 543h45
l-20 -114c22.667 40.667 53.5 71.667 92.5 93s81.833 32 128.5 32c55.333 0 99.666 -14.833 132.999 -44.5zM458.001 711l-218 -124l6 37l220 131z" />
    <glyph glyph-name="uni0145" unicode="&#x145;" horiz-adv-x="667" 
d="M535 0h-45l-301 628l-111 -628h-45l124 701h45l302 -626l110 626h45zM303 -105c-6.66699 -35.333 -17.999 -60.167 -33.999 -74.5s-36.333 -21.5 -61 -21.5l5 27c15.333 0 27.166 4.5 35.499 13.5s14.5 22.5 18.5 40.5l1 11h-37l10 53h65c0 -18 -1 -34.333 -3 -49z" />
    <glyph glyph-name="uni0146" unicode="&#x146;" horiz-adv-x="623" 
d="M509 509.5c33.333 -29.667 50.001 -73.5 50.001 -131.5c0 -18 -2 -38 -6 -60l-56 -318h-44l56 315c3.33301 21.333 5 39 5 53c0 48 -13.333 84.5 -40 109.5s-64 37.5 -112 37.5c-56 0 -104.333 -17.333 -145 -52s-68.667 -85.667 -84 -153l-55 -310h-45l97 543h45
l-20 -114c22.667 40.667 53.5 71.667 92.5 93s81.833 32 128.5 32c55.333 0 99.666 -14.833 132.999 -44.5zM224.001 -56l65.001 -0.000976562c0 -18 -1 -34.333 -3 -49c-6.66699 -35.333 -18 -60.166 -34 -74.499s-36.333 -21.5 -61 -21.5l5 27
c15.333 0 27.166 4.5 35.499 13.5s14.5 22.5 18.5 40.5l1 11h-37z" />
    <glyph glyph-name="Ncaron" unicode="&#x147;" horiz-adv-x="667" 
d="M535 0h-45l-301 628l-111 -628h-45l124 701h45l302 -626l110 626h45zM561 837l-143 -82l-115 82l7 38l115 -82l143 82z" />
    <glyph glyph-name="ncaron" unicode="&#x148;" horiz-adv-x="623" 
d="M509 509.5c33.333 -29.667 50.001 -73.5 50.001 -131.5c0 -18 -2 -38 -6 -60l-56 -318h-44l56 315c3.33301 21.333 5 39 5 53c0 48 -13.333 84.5 -40 109.5s-64 37.5 -112 37.5c-56 0 -104.333 -17.333 -145 -52s-68.667 -85.667 -84 -153l-55 -310h-45l97 543h45
l-20 -114c22.667 40.667 53.5 71.667 92.5 93s81.833 32 128.5 32c55.333 0 99.666 -14.833 132.999 -44.5zM497.001 693l-143 -82l-115 82l7 38l115 -82l143 82z" />
    <glyph glyph-name="Omacron" unicode="&#x14c;" horiz-adv-x="790" 
d="M196.5 27.5c-43 23.667 -76.167 57.167 -99.5 100.5s-35 93 -35 149c0 77.333 17.833 149 53.5 215s84.667 118.5 147 157.5s131.5 58.5 207.5 58.5c57.333 0 107.333 -11.833 150 -35.5s75.667 -57 99 -100s35 -92.5 35 -148.5c0 -78 -17.833 -150 -53.5 -216
s-84.667 -118.5 -147 -157.5s-131.5 -58.5 -207.5 -58.5c-56.667 0 -106.5 11.833 -149.5 35.5zM533.5 86c54.333 35.333 96.832 82.834 127.499 142.501s46 124.167 46 193.5c0 50.667 -10.167 94.5 -30.5 131.5s-49 65.333 -86 85s-79.5 29.5 -127.5 29.5
c-67.333 0 -128 -17.833 -182 -53.5s-96.333 -83.334 -127 -143.001s-46 -123.5 -46 -191.5c0 -50.667 10.333 -94.5 31 -131.5s49.334 -65.5 86.001 -85.5s79 -30 127 -30c66.667 0 127.167 17.667 181.5 53zM661.999 834.001l-6 -35h-324l6 35h324z" />
    <glyph glyph-name="omacron" unicode="&#x14d;" horiz-adv-x="645" 
d="M109.5 51c-41 39.333 -61.5 92.667 -61.5 160c0 61.333 13.833 118 41.5 170s66.167 93.167 115.5 123.5s104.333 45.5 165 45.5c44 0 83 -8.83301 117 -26.5s60.5 -43 79.5 -76s28.5 -71.833 28.5 -116.5c0 -61.333 -14 -118 -42 -170s-66.5 -93.167 -115.5 -123.5
s-103.833 -45.5 -164.5 -45.5c-68 0 -122.5 19.667 -163.5 59zM418.5 72.001c41 27.333 73.001 63.6689 96.001 109.002s34.5 94.666 34.5 147.999c0 59.333 -17.667 104.666 -53 135.999s-79.666 47 -132.999 47c-52.667 0 -99.334 -13.667 -140.001 -41
s-72.334 -63.833 -95.001 -109.5s-34 -94.834 -34 -147.501c0 -59.333 17.5 -104.666 52.5 -135.999s79.167 -47 132.5 -47c52 0 98.5 13.667 139.5 41zM557.001 696.004l-6 -35h-324l6 35h324z" />
    <glyph glyph-name="uni014E" unicode="&#x14e;" horiz-adv-x="790" 
d="M196.5 27.5c-43 23.667 -76.167 57.167 -99.5 100.5s-35 93 -35 149c0 77.333 17.833 149 53.5 215s84.667 118.5 147 157.5s131.5 58.5 207.5 58.5c57.333 0 107.333 -11.833 150 -35.5s75.667 -57 99 -100s35 -92.5 35 -148.5c0 -78 -17.833 -150 -53.5 -216
s-84.667 -118.5 -147 -157.5s-131.5 -58.5 -207.5 -58.5c-56.667 0 -106.5 11.833 -149.5 35.5zM533.5 86c54.333 35.333 96.832 82.834 127.499 142.501s46 124.167 46 193.5c0 50.667 -10.167 94.5 -30.5 131.5s-49 65.333 -86 85s-79.5 29.5 -127.5 29.5
c-67.333 0 -128 -17.833 -182 -53.5s-96.333 -83.334 -127 -143.001s-46 -123.5 -46 -191.5c0 -50.667 10.333 -94.5 31 -131.5s49.334 -65.5 86.001 -85.5s79 -30 127 -30c66.667 0 127.167 17.667 181.5 53zM587.499 793.001
c-25.667 -22 -59.1689 -33.001 -100.502 -33.001c-36 0 -63.167 8.83301 -81.5 26.5s-27.5 39.834 -27.5 66.501c0 4 0.666992 10.667 2 20l2 9h32c-1.33301 -9.33301 -2 -16 -2 -20c0 -20.667 6.83301 -36.667 20.5 -48s33.834 -17 60.501 -17
c31.333 0 56.333 7.33301 75 22s30.334 35.667 35.001 63h32l-1 -9c-5.33301 -31.333 -20.833 -58 -46.5 -80z" />
    <glyph glyph-name="uni014F" unicode="&#x14f;" horiz-adv-x="645" 
d="M109.5 51c-41 39.333 -61.5 92.667 -61.5 160c0 61.333 13.833 118 41.5 170s66.167 93.167 115.5 123.5s104.333 45.5 165 45.5c44 0 83 -8.83301 117 -26.5s60.5 -43 79.5 -76s28.5 -71.833 28.5 -116.5c0 -61.333 -14 -118 -42 -170s-66.5 -93.167 -115.5 -123.5
s-103.833 -45.5 -164.5 -45.5c-68 0 -122.5 19.667 -163.5 59zM418.5 72.001c41 27.333 73.001 63.6689 96.001 109.002s34.5 94.666 34.5 147.999c0 59.333 -17.667 104.666 -53 135.999s-79.666 47 -132.999 47c-52.667 0 -99.334 -13.667 -140.001 -41
s-72.334 -63.833 -95.001 -109.5s-34 -94.834 -34 -147.501c0 -59.333 17.5 -104.666 52.5 -135.999s79.167 -47 132.5 -47c52 0 98.5 13.667 139.5 41zM482.501 655.004c-25.667 -22 -59.1689 -33.001 -100.502 -33.001c-36 0 -63.167 8.83301 -81.5 26.5
s-27.5 39.834 -27.5 66.501c0 4 0.666992 10.667 2 20l2 9h32c-1.33301 -9.33301 -2 -16 -2 -20c0 -20.667 6.83301 -36.667 20.5 -48s33.834 -17 60.501 -17c31.333 0 56.333 7.33301 75 22s30.334 35.667 35.001 63h32l-1 -9c-5.33301 -31.333 -20.833 -58 -46.5 -80z" />
    <glyph glyph-name="Ohungarumlaut" unicode="&#x150;" horiz-adv-x="790" 
d="M196.5 27.5c-43 23.667 -76.167 57.167 -99.5 100.5s-35 93 -35 149c0 77.333 17.833 149 53.5 215s84.667 118.5 147 157.5s131.5 58.5 207.5 58.5c57.333 0 107.333 -11.833 150 -35.5s75.667 -57 99 -100s35 -92.5 35 -148.5c0 -78 -17.833 -150 -53.5 -216
s-84.667 -118.5 -147 -157.5s-131.5 -58.5 -207.5 -58.5c-56.667 0 -106.5 11.833 -149.5 35.5zM533.5 86c54.333 35.333 96.832 82.834 127.499 142.501s46 124.167 46 193.5c0 50.667 -10.167 94.5 -30.5 131.5s-49 65.333 -86 85s-79.5 29.5 -127.5 29.5
c-67.333 0 -128 -17.833 -182 -53.5s-96.333 -83.334 -127 -143.001s-46 -123.5 -46 -191.5c0 -50.667 10.333 -94.5 31 -131.5s49.334 -65.5 86.001 -85.5s79 -30 127 -30c66.667 0 127.167 17.667 181.5 53zM431.999 747.001h-34l84 122h43zM557.999 747.001h-34l92 122
h42z" />
    <glyph glyph-name="ohungarumlaut" unicode="&#x151;" horiz-adv-x="645" 
d="M109.5 51c-41 39.333 -61.5 92.667 -61.5 160c0 61.333 13.833 118 41.5 170s66.167 93.167 115.5 123.5s104.333 45.5 165 45.5c44 0 83 -8.83301 117 -26.5s60.5 -43 79.5 -76s28.5 -71.833 28.5 -116.5c0 -61.333 -14 -118 -42 -170s-66.5 -93.167 -115.5 -123.5
s-103.833 -45.5 -164.5 -45.5c-68 0 -122.5 19.667 -163.5 59zM418.5 72.001c41 27.333 73.001 63.6689 96.001 109.002s34.5 94.666 34.5 147.999c0 59.333 -17.667 104.666 -53 135.999s-79.666 47 -132.999 47c-52.667 0 -99.334 -13.667 -140.001 -41
s-72.334 -63.833 -95.001 -109.5s-34 -94.834 -34 -147.501c0 -59.333 17.5 -104.666 52.5 -135.999s79.167 -47 132.5 -47c52 0 98.5 13.667 139.5 41zM326.001 609.004h-34l84 122h43zM452.001 609.004h-34l92 122h42z" />
    <glyph glyph-name="OE" unicode="&#x152;" horiz-adv-x="1099" 
d="M752 370l280.001 0.00195312l-7 -37h-279l-52 -296h309l-7 -37h-355l37 206c-30.667 -65.333 -76.5 -117.333 -137.5 -156s-126.833 -58 -197.5 -58c-56 0 -105.333 11.833 -148 35.5s-75.834 57 -99.501 100s-35.5 92.5 -35.5 148.5c0 25.333 2.33301 50 7 74
c12 69.333 37.5 131.166 76.5 185.499s87 96.666 144 126.999s117.5 45.5 181.5 45.5c71.333 0 130.5 -19.167 177.5 -57.5s74.5 -89.833 82.5 -154.5l37 206h355l-8 -37h-309zM107.001 279.002c0 -50.667 10.335 -94.5 31.002 -131.5s49.5 -65.333 86.5 -85
s79.5 -29.5 127.5 -29.5c55.333 0 107.666 12.833 156.999 38.5s91.166 62.5 125.499 110.5s57.166 104 68.499 168c4.66699 29.333 7 53 7 71c0 50.667 -10.333 94.667 -31 132s-49.667 65.833 -87 85.5s-80 29.5 -128 29.5c-55.333 0 -107.5 -13 -156.5 -39
s-90.667 -63 -125 -111s-57.166 -104 -68.499 -168c-4.66699 -29.333 -7 -53 -7 -71z" />
    <glyph glyph-name="oe" unicode="&#x153;" horiz-adv-x="1116" 
d="M974.5 523.5c32.333 -17.667 56.666 -41.332 72.999 -70.999s24.5 -62.834 24.5 -99.501c0 -16 -1.33301 -30.667 -4 -44c-4.66699 -21.333 -9.33398 -39.333 -14.001 -54h-467c-2.66699 -15.333 -4 -31.333 -4 -48c0 -56.667 17 -100.167 51 -130.5
s77.333 -45.5 130 -45.5c53.333 0 100.333 13.167 141 39.5s69.667 62.166 87 107.499h48c-21.333 -55.333 -57 -100.166 -107 -134.499s-108.667 -51.5 -176 -51.5c-58 0 -105.667 15.167 -143 45.5s-59.666 72.5 -66.999 126.5c-27.333 -54 -65.5 -96.167 -114.5 -126.5
s-102.833 -45.5 -161.5 -45.5c-67.333 0 -121.5 19.5 -162.5 58.5s-61.5 92.167 -61.5 159.5c0 19.333 2 40 6 62c10 56.667 30.5 106 61.5 148s68.833 74.167 113.5 96.5s92.334 33.5 143.001 33.5c58 0 106 -15 144 -45s61.333 -72 70 -126c26 54 63.167 96 111.5 126
s101.833 45 160.5 45c46 0 85.167 -8.83301 117.5 -26.5zM549 329.002c0 59.333 -17.499 104.667 -52.499 136s-79.167 47 -132.5 47c-39.333 0 -77.5 -8.83301 -114.5 -26.5s-69 -44.667 -96 -81s-45.167 -80.5 -54.5 -132.5c-3.33301 -17.333 -5 -36.333 -5 -57
c0 -60 17.333 -105.667 52 -137s78.667 -47 132 -47c39.333 0 77.5 8.83301 114.5 26.5s69.167 44.667 96.5 81s45.666 80.833 54.999 133.5c3.33301 16.667 5 35.667 5 57zM1026 348.003c0 52.667 -16.832 93.167 -50.499 121.5s-75.834 42.5 -126.501 42.5
c-38 0 -74.667 -8.33301 -110 -25s-66 -41.667 -92 -75s-44 -74.333 -54 -123h426c4.66699 19.333 7 39 7 59z" />
    <glyph glyph-name="Racute" unicode="&#x154;" horiz-adv-x="561" 
d="M503 659.5c33.333 -28.333 50 -66.834 50 -115.501c0 -15.333 -1.33301 -29.666 -4 -42.999c-10 -54 -33.167 -98.5 -69.5 -133.5s-84.5 -56.5 -144.5 -64.5l131 -303h-54l-127 299h-4h-149l-54 -299h-45l125 702h193c68 0 118.667 -14.167 152 -42.5zM506 541.999
c0 80.667 -54 120.999 -162 120.999h-148l-58 -326h150c62 0 111 15 147 45s58.333 69.667 67 119c2.66699 12.667 4 26.334 4 41.001zM490 854.998l-218 -124l6 37l220 131z" />
    <glyph glyph-name="racute" unicode="&#x155;" horiz-adv-x="350" 
d="M242.5 521c37.667 22 82.5 33 134.5 33l-9 -47h-14c-53.333 0 -100.333 -15.167 -141 -45.5s-67 -79.833 -79 -148.5l-56 -313h-45l97 543h45l-21 -117c21.333 41.333 50.833 73 88.5 95zM374 711l-218 -124l6 37l220 131z" />
    <glyph glyph-name="uni0156" unicode="&#x156;" horiz-adv-x="561" 
d="M503 659.5c33.333 -28.333 50 -66.834 50 -115.501c0 -15.333 -1.33301 -29.666 -4 -42.999c-10 -54 -33.167 -98.5 -69.5 -133.5s-84.5 -56.5 -144.5 -64.5l131 -303h-54l-127 299h-4h-149l-54 -299h-45l125 702h193c68 0 118.667 -14.167 152 -42.5zM506 541.999
c0 80.667 -54 120.999 -162 120.999h-148l-58 -326h150c62 0 111 15 147 45s58.333 69.667 67 119c2.66699 12.667 4 26.334 4 41.001zM185 -56.002l65.001 -0.000976562c0 -18 -1 -34.333 -3 -49c-6.66699 -35.333 -18 -60.166 -34 -74.499s-36.333 -21.5 -61 -21.5l5 27
c15.333 0 27.166 4.5 35.499 13.5s14.5 22.5 18.5 40.5l1 11h-37z" />
    <glyph glyph-name="uni0157" unicode="&#x157;" horiz-adv-x="350" 
d="M242.5 521c37.667 22 82.5 33 134.5 33l-9 -47h-14c-53.333 0 -100.333 -15.167 -141 -45.5s-67 -79.833 -79 -148.5l-56 -313h-45l97 543h45l-21 -117c21.333 41.333 50.833 73 88.5 95zM11 -56l65 -0.000976562c0 -18 -1 -34.333 -3 -49
c-6.66699 -35.333 -18 -60.166 -34 -74.499s-36.333 -21.5 -61 -21.5l5 27c29.333 0 47.333 18 54 54l1 11h-37z" />
    <glyph glyph-name="Rcaron" unicode="&#x158;" horiz-adv-x="561" 
d="M503 659.5c33.333 -28.333 50 -66.834 50 -115.501c0 -15.333 -1.33301 -29.666 -4 -42.999c-10 -54 -33.167 -98.5 -69.5 -133.5s-84.5 -56.5 -144.5 -64.5l131 -303h-54l-127 299h-4h-149l-54 -299h-45l125 702h193c68 0 118.667 -14.167 152 -42.5zM506 541.999
c0 80.667 -54 120.999 -162 120.999h-148l-58 -326h150c62 0 111 15 147 45s58.333 69.667 67 119c2.66699 12.667 4 26.334 4 41.001zM529 836.998l-143 -82l-115 82l7 38l115 -82l143 82z" />
    <glyph glyph-name="rcaron" unicode="&#x159;" horiz-adv-x="350" 
d="M242.5 521c37.667 22 82.5 33 134.5 33l-9 -47h-14c-53.333 0 -100.333 -15.167 -141 -45.5s-67 -79.833 -79 -148.5l-56 -313h-45l97 543h45l-21 -117c21.333 41.333 50.833 73 88.5 95zM413 693l-143 -82l-115 82l7 38l115 -82l143 82z" />
    <glyph glyph-name="Sacute" unicode="&#x15a;" horiz-adv-x="547" 
d="M126.5 17c-31.667 16 -54.8311 37.668 -69.498 65.001s-20.667 57.666 -18 90.999h45c-1.33301 -22 2.66699 -43.833 12 -65.5s26.333 -39.834 51 -54.501s57.334 -22 98.001 -22c54.667 0 98.5 14.5 131.5 43.5s49.5 67.5 49.5 115.5
c0 28.667 -7.33301 52.334 -22 71.001s-32.5 33.667 -53.5 45s-49.833 24 -86.5 38c-38.667 15.333 -69.334 29.166 -92.001 41.499s-41.834 29 -57.501 50s-23.5 47.5 -23.5 79.5c0 4.66699 0.666992 13 2 25c3.33301 31.333 14.666 59.833 33.999 85.5s45.5 46 78.5 61
s71.167 22.5 114.5 22.5c42 0 78 -7.5 108 -22.5s52.333 -34.667 67 -59s21.334 -50.166 20.001 -77.499h-46c0.666992 18 -4.5 36.5 -15.5 55.5s-28.167 34.667 -51.5 47s-52 18.5 -86 18.5c-52 0 -94.833 -13.167 -128.5 -39.5s-50.5 -62.5 -50.5 -108.5
c0 -25.333 6.83301 -46.5 20.5 -63.5s30.667 -31 51 -42s47.833 -23.167 82.5 -36.5c39.333 -16 71 -30.5 95 -43.5s44.333 -31 61 -54s25 -51.833 25 -86.5c0 -5.33301 -0.666992 -15.333 -2 -30c-4 -32 -15.5 -61.167 -34.5 -87.5s-45.167 -47.333 -78.5 -63
s-72 -23.5 -116 -23.5c-44.667 0 -82.834 8 -114.501 24zM465.003 855.001l-218 -124l6 37l220 131z" />
    <glyph glyph-name="sacute" unicode="&#x15b;" horiz-adv-x="497" 
d="M70.5 32c-33 26.667 -47.5 64.6689 -43.5 114.002h45c-3.33301 -35.333 6.83398 -63.5 30.501 -84.5s58.5 -31.5 104.5 -31.5c47.333 0 85 10.5 113 31.5s42 48.167 42 81.5c0 20 -5.66699 36.667 -17 50s-25.333 24 -42 32s-40 17.333 -70 28
c-33.333 11.333 -60.5 22.333 -81.5 33s-38.667 25.5 -53 44.5s-21.5 43.167 -21.5 72.5c0 28.667 8.33301 54.167 25 76.5s39.667 39.666 69 51.999s62 18.5 98 18.5c50 0 91.667 -12.833 125 -38.5s50 -59.5 50 -101.5c0 -8.66699 -0.333008 -15.334 -1 -20.001h-44
c0.666992 3.33301 1 8.66602 1 15.999c0 32 -12.833 57.833 -38.5 77.5s-57.834 29.5 -96.501 29.5c-41.333 0 -75.5 -9.83301 -102.5 -29.5s-40.5 -46.167 -40.5 -79.5c0 -22 6 -40.167 18 -54.5s26.833 -25.666 44.5 -33.999s41.5 -17.833 71.5 -28.5
c33.333 -11.333 59.833 -22 79.5 -32s36.5 -24 50.5 -42s21 -41 21 -69c0 -46.667 -18.833 -83.667 -56.5 -111s-86.5 -41 -146.5 -41c-56 0 -100.5 13.333 -133.5 40zM413 711.002l-218 -124l6 37l220 131z" />
    <glyph glyph-name="uni015E" unicode="&#x15e;" horiz-adv-x="547" 
d="M469 550c0.666992 18 -4.49707 36.501 -15.4971 55.501s-28.167 34.667 -51.5 47s-52 18.5 -86 18.5c-52 0 -94.833 -13.167 -128.5 -39.5s-50.5 -62.5 -50.5 -108.5c0 -25.333 6.83301 -46.5 20.5 -63.5s30.667 -31 51 -42s47.833 -23.167 82.5 -36.5
c39.333 -16 71 -30.5 95 -43.5s44.333 -31 61 -54s25 -51.833 25 -86.5c0 -5.33301 -0.666992 -15.333 -2 -30c-4 -31.333 -15.333 -60.166 -34 -86.499s-44.167 -47.333 -76.5 -63s-69.833 -23.834 -112.5 -24.501l-13 -71c36 2 63.833 -3 83.5 -15s29.5 -30 29.5 -54
c0 -32 -11.833 -58.167 -35.5 -78.5s-54.834 -30.5 -93.501 -30.5h-82l6 34h73c28.667 0 50.167 4.83301 64.5 14.5s23.166 24.167 26.499 43.5c0.666992 2.66699 1 6.33398 1 11.001c0 29.333 -24 44 -72 44h-41l18 103c-58 5.33301 -102.167 24.666 -132.5 57.999
s-43.833 73.666 -40.5 120.999h45c-1.33301 -22 2.66699 -43.833 12 -65.5s26.333 -39.834 51 -54.501s57.334 -22 98.001 -22c54.667 0 98.5 14.5 131.5 43.5s49.5 67.5 49.5 115.5c0 28.667 -7.33301 52.334 -22 71.001s-32.5 33.667 -53.5 45s-49.833 24 -86.5 38
c-38.667 15.333 -69.334 29.166 -92.001 41.499s-41.834 29 -57.501 50s-23.5 47.5 -23.5 79.5c0 4.66699 0.666992 13 2 25c3.33301 31.333 14.666 59.833 33.999 85.5s45.5 46 78.5 61s71.167 22.5 114.5 22.5c42 0 78 -7.5 108 -22.5s52.333 -34.667 67 -59
s21.334 -50.166 20.001 -77.499h-46z" />
    <glyph glyph-name="uni015F" unicode="&#x15f;" horiz-adv-x="497" 
d="M399 390c0.666992 3.33301 1.00195 8.66602 1.00195 15.999c0 32 -12.833 57.833 -38.5 77.5s-57.834 29.5 -96.501 29.5c-41.333 0 -75.5 -9.83301 -102.5 -29.5s-40.5 -46.167 -40.5 -79.5c0 -22 6 -40.167 18 -54.5s26.833 -25.666 44.5 -33.999
s41.5 -17.833 71.5 -28.5c33.333 -11.333 59.833 -22 79.5 -32s36.5 -24 50.5 -42s21 -41 21 -69c0 -44 -17.167 -79.5 -51.5 -106.5s-79.5 -42.167 -135.5 -45.5l-12 -70c36 2 63.833 -3 83.5 -15s29.5 -30 29.5 -54c0 -32 -11.833 -58.167 -35.5 -78.5
s-54.834 -30.5 -93.501 -30.5h-82l6 34h73c28.667 0 50.167 4.83301 64.5 14.5s23.166 24.167 26.499 43.5c0.666992 2.66699 1 6.33398 1 11.001c0 29.333 -24 44 -72 44h-41l18 102c-48.667 2.66699 -87.5 15.834 -116.5 39.501s-43.5 56.5 -43.5 98.5l1 15h45
c-3.33301 -35.333 6.83398 -63.5 30.501 -84.5s58.5 -31.5 104.5 -31.5c47.333 0 85 10.5 113 31.5s42 48.167 42 81.5c0 20 -5.66699 36.667 -17 50s-25.333 24 -42 32s-40 17.333 -70 28c-33.333 11.333 -60.5 22.333 -81.5 33s-38.667 25.5 -53 44.5
s-21.5 43.167 -21.5 72.5c0 28.667 8.33301 54.167 25 76.5s39.667 39.666 69 51.999s62 18.5 98 18.5c50 0 91.667 -12.833 125 -38.5s50 -59.5 50 -101.5c0 -8.66699 -0.333008 -15.334 -1 -20.001h-44z" />
    <glyph glyph-name="Scaron" unicode="&#x160;" horiz-adv-x="547" 
d="M126.5 17c-31.667 16 -54.8311 37.668 -69.498 65.001s-20.667 57.666 -18 90.999h45c-1.33301 -22 2.66699 -43.833 12 -65.5s26.333 -39.834 51 -54.501s57.334 -22 98.001 -22c54.667 0 98.5 14.5 131.5 43.5s49.5 67.5 49.5 115.5
c0 28.667 -7.33301 52.334 -22 71.001s-32.5 33.667 -53.5 45s-49.833 24 -86.5 38c-38.667 15.333 -69.334 29.166 -92.001 41.499s-41.834 29 -57.501 50s-23.5 47.5 -23.5 79.5c0 4.66699 0.666992 13 2 25c3.33301 31.333 14.666 59.833 33.999 85.5s45.5 46 78.5 61
s71.167 22.5 114.5 22.5c42 0 78 -7.5 108 -22.5s52.333 -34.667 67 -59s21.334 -50.166 20.001 -77.499h-46c0.666992 18 -4.5 36.5 -15.5 55.5s-28.167 34.667 -51.5 47s-52 18.5 -86 18.5c-52 0 -94.833 -13.167 -128.5 -39.5s-50.5 -62.5 -50.5 -108.5
c0 -25.333 6.83301 -46.5 20.5 -63.5s30.667 -31 51 -42s47.833 -23.167 82.5 -36.5c39.333 -16 71 -30.5 95 -43.5s44.333 -31 61 -54s25 -51.833 25 -86.5c0 -5.33301 -0.666992 -15.333 -2 -30c-4 -32 -15.5 -61.167 -34.5 -87.5s-45.167 -47.333 -78.5 -63
s-72 -23.5 -116 -23.5c-44.667 0 -82.834 8 -114.501 24zM504.003 837.001l-143 -82l-115 82l7 38l115 -82l143 82z" />
    <glyph glyph-name="scaron" unicode="&#x161;" horiz-adv-x="497" 
d="M70.5 32c-33 26.667 -47.5 64.6689 -43.5 114.002h45c-3.33301 -35.333 6.83398 -63.5 30.501 -84.5s58.5 -31.5 104.5 -31.5c47.333 0 85 10.5 113 31.5s42 48.167 42 81.5c0 20 -5.66699 36.667 -17 50s-25.333 24 -42 32s-40 17.333 -70 28
c-33.333 11.333 -60.5 22.333 -81.5 33s-38.667 25.5 -53 44.5s-21.5 43.167 -21.5 72.5c0 28.667 8.33301 54.167 25 76.5s39.667 39.666 69 51.999s62 18.5 98 18.5c50 0 91.667 -12.833 125 -38.5s50 -59.5 50 -101.5c0 -8.66699 -0.333008 -15.334 -1 -20.001h-44
c0.666992 3.33301 1 8.66602 1 15.999c0 32 -12.833 57.833 -38.5 77.5s-57.834 29.5 -96.501 29.5c-41.333 0 -75.5 -9.83301 -102.5 -29.5s-40.5 -46.167 -40.5 -79.5c0 -22 6 -40.167 18 -54.5s26.833 -25.666 44.5 -33.999s41.5 -17.833 71.5 -28.5
c33.333 -11.333 59.833 -22 79.5 -32s36.5 -24 50.5 -42s21 -41 21 -69c0 -46.667 -18.833 -83.667 -56.5 -111s-86.5 -41 -146.5 -41c-56 0 -100.5 13.333 -133.5 40zM452 693.002l-143 -82l-115 82l7 38l115 -82l143 82z" />
    <glyph glyph-name="uni0162" unicode="&#x162;" horiz-adv-x="495" 
d="M545 702l-6.99805 -37.001h-200l-117 -665h-4l-14 -78c36 2 63.833 -3 83.5 -15s29.5 -30 29.5 -54c0 -32 -11.833 -58.167 -35.5 -78.5s-54.834 -30.5 -93.501 -30.5h-82l6 34h73c28.667 0 50.167 4.83301 64.5 14.5s23.166 24.167 26.499 43.5
c0.666992 2.66699 1 6.33398 1 11.001c0 29.333 -24 44 -72 44h-41l19 109h-6l117 665h-200l7 37h445z" />
    <glyph glyph-name="uni0163" unicode="&#x163;" horiz-adv-x="347" 
d="M126 145c-2.66699 -13.333 -3.99805 -26.666 -3.99805 -39.999c0 -24 6.66699 -40.833 20 -50.5s35.333 -14.5 66 -14.5h60l-7 -40h-68h-17l-14 -78c36 2 63.833 -3.16699 83.5 -15.5s29.5 -30.5 29.5 -54.5c0 -6.66699 -0.333008 -12 -1 -16
c-5.33301 -28 -19.333 -50.333 -42 -67s-51.334 -25 -86.001 -25h-81l6 34h73c28 0 49.167 4.83301 63.5 14.5s23.166 24.167 26.499 43.5c0.666992 2.66699 1 6.33398 1 11.001c0 29.333 -23.667 44 -71 44h-42l20 114c-22 5.33301 -38.5 15.666 -49.5 30.999
s-16.5 36.333 -16.5 63c0 15.333 1.33301 30.666 4 45.999l64 359h-82l7 39h82l24 138h46l-24 -138h160l-7 -39h-160z" />
    <glyph glyph-name="Tcaron" unicode="&#x164;" horiz-adv-x="495" 
d="M545 702l-7 -37h-200l-117 -665h-45l117 665h-200l7 37h445zM475 837l-143 -82l-115 82l7 38l115 -82l143 82z" />
    <glyph glyph-name="tcaron" unicode="&#x165;" horiz-adv-x="348" 
d="M376 752c-0.666992 -30.667 -3 -55.668 -7 -75.001c-5.33301 -30.667 -15.833 -52.5 -31.5 -65.5s-36.5 -19.5 -62.5 -19.5l4 28c17.333 0 30 3.33301 38 10s13.333 17.334 16 32.001l5 25h-42l11 65h69zM197 542.999l160 0.000976562l-7 -39h-160l-64 -359
c-2.66699 -13.333 -4 -26.666 -4 -39.999c0 -24 6.66699 -40.833 20 -50.5s35.333 -14.5 66 -14.5h60l-7 -40h-68c-40 0 -69.5 7.66699 -88.5 23s-28.5 40.666 -28.5 75.999c0 15.333 1.33301 30.666 4 45.999l64 359h-82l7 39h82l24 138h46z" />
    <glyph glyph-name="Utilde" unicode="&#x168;" horiz-adv-x="645" 
d="M199 702l-78 -438c-4 -24.667 -6 -47.334 -6 -68.001c0 -56 14.667 -97.167 44 -123.5s70 -39.5 122 -39.5c61.333 0 112.833 18.5 154.5 55.5s69.5 95.5 83.5 175.5l78 438h45l-78 -438c-16 -91.333 -49.833 -159.333 -101.5 -204s-114.5 -67 -188.5 -67
c-63.333 0 -113.333 16.333 -150 49s-55 82.334 -55 149.001c0 24.667 2.33301 49 7 73l78 438h45zM326.5 808c15.667 14 33.502 21.001 53.502 21.001c12 0 21.833 -2.16699 29.5 -6.5s16.167 -10.833 25.5 -19.5c8.66699 -8 16.167 -13.833 22.5 -17.5
s14.5 -5.5 24.5 -5.5c11.333 0 21.833 4 31.5 12s16.5 19.333 20.5 34h30c-6.66699 -24 -18.167 -43.167 -34.5 -57.5s-34.5 -21.5 -54.5 -21.5c-12.667 0 -22.834 2.16699 -30.501 6.5s-16.834 11.166 -27.501 20.499c-9.33301 7.33301 -17 12.833 -23 16.5
s-13.333 5.5 -22 5.5c-23.333 0 -40 -15.667 -50 -47h-30c7.33301 25.333 18.833 45 34.5 59z" />
    <glyph glyph-name="utilde" unicode="&#x169;" horiz-adv-x="623" 
d="M588 543l-96.001 -543.002h-45l21 117c-22.667 -40.667 -53.667 -71.834 -93 -93.501s-82 -32.5 -128 -32.5c-55.333 0 -99.833 14.833 -133.5 44.5s-50.5 73.834 -50.5 132.501c0 22 1.66699 41.667 5 59l57 316h44l-56 -313c-3.33301 -21.333 -5 -38.666 -5 -51.999
c0 -48.667 13.333 -85.5 40 -110.5s64 -37.5 112 -37.5c58.667 0 108.834 18.833 150.501 56.5s68.5 92.834 80.5 165.501v-3l52 294h45zM291.499 663.998c15.667 14 33.502 21.001 53.502 21.001c12 0 21.833 -2.16699 29.5 -6.5s16.167 -10.833 25.5 -19.5
c8.66699 -8 16.167 -13.833 22.5 -17.5s14.5 -5.5 24.5 -5.5c11.333 0 21.833 4 31.5 12s16.5 19.333 20.5 34h30c-6.66699 -24 -18.167 -43.167 -34.5 -57.5s-34.5 -21.5 -54.5 -21.5c-12.667 0 -22.834 2.16699 -30.501 6.5s-16.834 11.166 -27.501 20.499
c-9.33301 7.33301 -17 12.833 -23 16.5s-13.333 5.5 -22 5.5c-23.333 0 -40 -15.667 -50 -47h-30c7.33301 25.333 18.833 45 34.5 59z" />
    <glyph glyph-name="Umacron" unicode="&#x16a;" horiz-adv-x="645" 
d="M199 702l-78 -438c-4 -24.667 -6 -47.334 -6 -68.001c0 -56 14.667 -97.167 44 -123.5s70 -39.5 122 -39.5c61.333 0 112.833 18.5 154.5 55.5s69.5 95.5 83.5 175.5l78 438h45l-78 -438c-16 -91.333 -49.833 -159.333 -101.5 -204s-114.5 -67 -188.5 -67
c-63.333 0 -113.333 16.333 -150 49s-55 82.334 -55 149.001c0 24.667 2.33301 49 7 73l78 438h45zM582 832l-6 -35h-324l6 35h324z" />
    <glyph glyph-name="umacron" unicode="&#x16b;" horiz-adv-x="623" 
d="M588 543l-96.001 -543.002h-45l21 117c-22.667 -40.667 -53.667 -71.834 -93 -93.501s-82 -32.5 -128 -32.5c-55.333 0 -99.833 14.833 -133.5 44.5s-50.5 73.834 -50.5 132.501c0 22 1.66699 41.667 5 59l57 316h44l-56 -313c-3.33301 -21.333 -5 -38.666 -5 -51.999
c0 -48.667 13.333 -85.5 40 -110.5s64 -37.5 112 -37.5c58.667 0 108.834 18.833 150.501 56.5s68.5 92.834 80.5 165.501v-3l52 294h45zM546.999 687.998l-6 -35h-324l6 35h324z" />
    <glyph glyph-name="Ubreve" unicode="&#x16c;" horiz-adv-x="645" 
d="M199 702l-78 -438c-4 -24.667 -6 -47.334 -6 -68.001c0 -56 14.667 -97.167 44 -123.5s70 -39.5 122 -39.5c61.333 0 112.833 18.5 154.5 55.5s69.5 95.5 83.5 175.5l78 438h45l-78 -438c-16 -91.333 -49.833 -159.333 -101.5 -204s-114.5 -67 -188.5 -67
c-63.333 0 -113.333 16.333 -150 49s-55 82.334 -55 149.001c0 24.667 2.33301 49 7 73l78 438h45zM507.5 791c-25.667 -22 -59.1689 -33.001 -100.502 -33.001c-36 0 -63.167 8.83301 -81.5 26.5s-27.5 39.834 -27.5 66.501c0 4 0.666992 10.667 2 20l2 9h32
c-1.33301 -9.33301 -2 -16 -2 -20c0 -20.667 6.83301 -36.667 20.5 -48s33.834 -17 60.501 -17c31.333 0 56.333 7.33301 75 22s30.334 35.667 35.001 63h32l-1 -9c-5.33301 -31.333 -20.833 -58 -46.5 -80z" />
    <glyph glyph-name="ubreve" unicode="&#x16d;" horiz-adv-x="623" 
d="M588 543l-96.001 -543.002h-45l21 117c-22.667 -40.667 -53.667 -71.834 -93 -93.501s-82 -32.5 -128 -32.5c-55.333 0 -99.833 14.833 -133.5 44.5s-50.5 73.834 -50.5 132.501c0 22 1.66699 41.667 5 59l57 316h44l-56 -313c-3.33301 -21.333 -5 -38.666 -5 -51.999
c0 -48.667 13.333 -85.5 40 -110.5s64 -37.5 112 -37.5c58.667 0 108.834 18.833 150.501 56.5s68.5 92.834 80.5 165.501v-3l52 294h45zM472.499 646.998c-25.667 -22 -59.1689 -33.001 -100.502 -33.001c-36 0 -63.167 8.83301 -81.5 26.5s-27.5 39.834 -27.5 66.501
c0 4 0.666992 10.667 2 20l2 9h32c-1.33301 -9.33301 -2 -16 -2 -20c0 -20.667 6.83301 -36.667 20.5 -48s33.834 -17 60.501 -17c31.333 0 56.333 7.33301 75 22s30.334 35.667 35.001 63h32l-1 -9c-5.33301 -31.333 -20.833 -58 -46.5 -80z" />
    <glyph glyph-name="Uring" unicode="&#x16e;" horiz-adv-x="645" 
d="M199 702l-78 -438c-4 -24.667 -6 -47.334 -6 -68.001c0 -56 14.667 -97.167 44 -123.5s70 -39.5 122 -39.5c61.333 0 112.833 18.5 154.5 55.5s69.5 95.5 83.5 175.5l78 438h45l-78 -438c-16 -91.333 -49.833 -159.333 -101.5 -204s-114.5 -67 -188.5 -67
c-63.333 0 -113.333 16.333 -150 49s-55 82.334 -55 149.001c0 24.667 2.33301 49 7 73l78 438h45zM368 921c21.333 17.333 45.335 26.001 72.002 26.001c24 0 43.333 -6.66699 58 -20s22 -31.666 22 -54.999c0 -34 -11.333 -61.833 -34 -83.5s-49.334 -32.5 -80.001 -32.5
c-23.333 0 -42.5 6.83301 -57.5 20.5s-22.5 32.167 -22.5 55.5c0 3.33301 0.666992 9.66602 2 18.999c5.33301 29.333 18.666 52.666 39.999 69.999zM474.502 904.501c-10.333 9 -23.833 13.5 -40.5 13.5c-18.667 0 -35 -6 -49 -18s-23 -28 -27 -48
c-0.666992 -3.33301 -1 -8 -1 -14c0 -16 5 -28.833 15 -38.5s23 -14.5 39 -14.5c21.333 0 39.833 7.66699 55.5 23s23.5 35 23.5 59c0 16 -5.16699 28.5 -15.5 37.5z" />
    <glyph glyph-name="uring" unicode="&#x16f;" horiz-adv-x="623" 
d="M588 543l-96.001 -543.002h-45l21 117c-22.667 -40.667 -53.667 -71.834 -93 -93.501s-82 -32.5 -128 -32.5c-55.333 0 -99.833 14.833 -133.5 44.5s-50.5 73.834 -50.5 132.501c0 22 1.66699 41.667 5 59l57 316h44l-56 -313c-3.33301 -21.333 -5 -38.666 -5 -51.999
c0 -48.667 13.333 -85.5 40 -110.5s64 -37.5 112 -37.5c58.667 0 108.834 18.833 150.501 56.5s68.5 92.834 80.5 165.501v-3l52 294h45zM332.999 776.998c21.333 17.333 45.335 26.001 72.002 26.001c24 0 43.333 -6.66699 58 -20s22 -31.666 22 -54.999
c0 -34 -11.333 -61.833 -34 -83.5s-49.334 -32.5 -80.001 -32.5c-23.333 0 -42.5 6.83301 -57.5 20.5s-22.5 32.167 -22.5 55.5c0 3.33301 0.666992 9.66602 2 18.999c5.33301 29.333 18.666 52.666 39.999 69.999zM439.501 760.499c-10.333 9 -23.833 13.5 -40.5 13.5
c-18.667 0 -35 -6 -49 -18s-23 -28 -27 -48c-0.666992 -3.33301 -1 -8 -1 -14c0 -16 5 -28.833 15 -38.5s23 -14.5 39 -14.5c21.333 0 39.833 7.66699 55.5 23s23.5 35 23.5 59c0 16 -5.16699 28.5 -15.5 37.5z" />
    <glyph glyph-name="Uhungarumlaut" unicode="&#x170;" horiz-adv-x="645" 
d="M199 702l-78 -438c-4 -24.667 -6 -47.334 -6 -68.001c0 -56 14.667 -97.167 44 -123.5s70 -39.5 122 -39.5c61.333 0 112.833 18.5 154.5 55.5s69.5 95.5 83.5 175.5l78 438h45l-78 -438c-16 -91.333 -49.833 -159.333 -101.5 -204s-114.5 -67 -188.5 -67
c-63.333 0 -113.333 16.333 -150 49s-55 82.334 -55 149.001c0 24.667 2.33301 49 7 73l78 438h45zM352 745h-34l84 122h43zM478 745h-34l92 122h42z" />
    <glyph glyph-name="uhungarumlaut" unicode="&#x171;" horiz-adv-x="623" 
d="M588 543l-96.001 -543.002h-45l21 117c-22.667 -40.667 -53.667 -71.834 -93 -93.501s-82 -32.5 -128 -32.5c-55.333 0 -99.833 14.833 -133.5 44.5s-50.5 73.834 -50.5 132.501c0 22 1.66699 41.667 5 59l57 316h44l-56 -313c-3.33301 -21.333 -5 -38.666 -5 -51.999
c0 -48.667 13.333 -85.5 40 -110.5s64 -37.5 112 -37.5c58.667 0 108.834 18.833 150.501 56.5s68.5 92.834 80.5 165.501v-3l52 294h45zM316.999 600.998h-34l84 122h43zM442.999 600.998h-34l92 122h42z" />
    <glyph glyph-name="Uogonek" unicode="&#x172;" horiz-adv-x="645" 
d="M642 702l-77.999 -437.999c-13.333 -77.333 -39.833 -138 -79.5 -182s-88.5 -71.667 -146.5 -83l-69 -30c-54 -23.333 -81 -53.333 -81 -90c0 -13.333 5 -23.5 15 -30.5s23.667 -10.5 41 -10.5c20 0 42.333 4.33301 67 13l-6 -34c-24.667 -8.66699 -48 -13 -70 -13
c-26 0 -47.167 5.5 -63.5 16.5s-24.5 27.5 -24.5 49.5c0 50.667 35 92 105 124c-56.667 3.33301 -101.334 21.5 -134.001 54.5s-49 80.5 -49 142.5c0 24.667 2.33301 49 7 73l78 438h45l-78 -438c-4 -24.667 -6 -47.334 -6 -68.001c0 -56 14.667 -97.167 44 -123.5
s70 -39.5 122 -39.5c61.333 0 112.833 18.5 154.5 55.5s69.5 95.5 83.5 175.5l78 438h45z" />
    <glyph glyph-name="uogonek" unicode="&#x173;" horiz-adv-x="623" 
d="M340 -121c0 -13.333 4.99902 -23.502 14.999 -30.502s23.667 -10.5 41 -10.5c20 0 42.333 4.33301 67 13l-6 -34c-24.667 -8.66699 -48 -13 -70 -13c-26 0 -47.167 5.5 -63.5 16.5s-24.5 27.5 -24.5 49.5c0 53.333 39 96.333 117 129l33 14l19 104
c-22.667 -40.667 -53.667 -71.834 -93 -93.501s-82 -32.5 -128 -32.5c-55.333 0 -99.833 14.833 -133.5 44.5s-50.5 73.834 -50.5 132.501c0 22 1.66699 41.667 5 59l57 316h44l-56 -313c-3.33301 -21.333 -5 -38.666 -5 -51.999c0 -48.667 13.333 -85.5 40 -110.5
s64 -37.5 112 -37.5c58.667 0 108.834 18.833 150.501 56.5s68.5 92.834 80.5 165.501v-3l52 294h45l-96 -543l-71 -31c-54 -23.333 -81 -53.333 -81 -90z" />
    <glyph glyph-name="Wcircumflex" unicode="&#x174;" horiz-adv-x="929" 
d="M974 702l-318 -702h-49l-81 631l-304 -631h-49l-67 702h50l55 -636l304 636h52l76 -636l281 636h50zM538 856l-143 -82l6 38l144 82l113 -82l-6 -38z" />
    <glyph glyph-name="wcircumflex" unicode="&#x175;" horiz-adv-x="809" 
d="M839 543l-267 -543h-43l-88 482l-259 -482h-43l-74 543h47l60 -486l259 486h44l86 -486l232 486h46zM479 696l-143 -82l6 38l144 82l113 -82l-6 -38z" />
    <glyph glyph-name="Ycircumflex" unicode="&#x176;" horiz-adv-x="541" 
d="M591 702l-296 -418l-50 -284h-45l50 284l-149 418h52l127 -375l259 375h52zM371 840l-143 -82l6 38l144 82l113 -82l-6 -38z" />
    <glyph glyph-name="ycircumflex" unicode="&#x177;" horiz-adv-x="524" 
d="M114 543l117 -487l275 487h48l-457 -798h-49l147 256l-130 542h49zM337 696l-143 -82l6 38l144 82l113 -82l-6 -38z" />
    <glyph glyph-name="Ydieresis" unicode="&#x178;" horiz-adv-x="541" 
d="M591 702l-296 -418l-50 -284h-45l50 284l-149 418h52l127 -375l259 375h52zM265 778c-6 6 -9.00098 13.667 -9.00098 23c0 11.333 4.5 21.5 13.5 30.5s19.5 13.5 31.5 13.5c8.66699 0 15.834 -3 21.501 -9s8.5 -13.333 8.5 -22c0 -12 -4.33301 -22.5 -13 -31.5
s-18.667 -13.5 -30 -13.5c-9.33301 0 -17 3 -23 9zM408.999 778c-6 6 -9 13.667 -9 23c0 11.333 4.5 21.5 13.5 30.5s19.5 13.5 31.5 13.5c8.66699 0 16 -3 22 -9s9 -13.333 9 -22c0 -12 -4.5 -22.5 -13.5 -31.5s-19.167 -13.5 -30.5 -13.5c-9.33301 0 -17 3 -23 9z" />
    <glyph glyph-name="Zacute" unicode="&#x179;" horiz-adv-x="506" 
d="M50 40h376l-8 -40h-428l7 38l479 623h-360l8 41h411l-7 -39zM442 855l-218 -124l6 37l220 131z" />
    <glyph glyph-name="zacute" unicode="&#x17a;" horiz-adv-x="424" 
d="M43 38h305l-7 -38h-356l7 38l380 467h-291l7 38h342l-7 -38zM376 711l-218 -124l6 37l220 131z" />
    <glyph glyph-name="Zdotaccent" unicode="&#x17b;" horiz-adv-x="506" 
d="M50 40h376l-8 -40h-428l7 38l479 623h-360l8 41h411l-7 -39zM314.5 761c-6.33301 6 -9.50195 13.333 -9.50195 22c0 12 4.83301 22.5 14.5 31.5s20.167 13.5 31.5 13.5c9.33301 0 17 -2.83301 23 -8.5s9 -13.167 9 -22.5c0 -12 -4.66699 -22.5 -14 -31.5
s-19.666 -13.5 -30.999 -13.5c-9.33301 0 -17.166 3 -23.499 9z" />
    <glyph glyph-name="zdotaccent" unicode="&#x17c;" horiz-adv-x="424" 
d="M43 38h305l-7 -38h-356l7 38l380 467h-291l7 38h342l-7 -38zM248.5 618c-6.33301 6 -9.50195 13.333 -9.50195 22c0 12 4.83301 22.5 14.5 31.5s20.167 13.5 31.5 13.5c9.33301 0 17 -2.83301 23 -8.5s9 -13.167 9 -22.5c0 -12 -4.66699 -22.5 -14 -31.5
s-19.666 -13.5 -30.999 -13.5c-9.33301 0 -17.166 3 -23.499 9z" />
    <glyph glyph-name="Zcaron" unicode="&#x17d;" horiz-adv-x="506" 
d="M50 40h376l-8 -40h-428l7 38l479 623h-360l8 41h411l-7 -39zM481 837l-143 -82l-115 82l7 38l115 -82l143 82z" />
    <glyph glyph-name="zcaron" unicode="&#x17e;" horiz-adv-x="424" 
d="M43 38h305l-7 -38h-356l7 38l380 467h-291l7 38h342l-7 -38zM415 693l-143 -82l-115 82l7 38l115 -82l143 82z" />
    <glyph glyph-name="uni018F" unicode="&#x18f;" horiz-adv-x="760" 
d="M594.5 672.5c41.667 -23.667 73.999 -56.666 96.999 -98.999s34.5 -90.833 34.5 -145.5c0 -78 -17.167 -150.333 -51.5 -217s-82.333 -119.834 -144 -159.501s-131.5 -59.5 -209.5 -59.5c-52.667 0 -99.167 10.333 -139.5 31s-71.5 50.334 -93.5 89.001
s-33 83.667 -33 135c0 36.667 6 76.667 18 120h599l1 18l3 26c2 52 -6.5 97.333 -25.5 136s-46.667 68.5 -83 89.5s-78.166 31.5 -125.499 31.5c-63.333 0 -122.666 -17.833 -177.999 -53.5s-96.333 -83.834 -123 -144.501h-50c30.667 72.667 78.167 130.5 142.5 173.5
s136.166 64.5 215.499 64.5c55.333 0 103.833 -11.833 145.5 -35.5zM482.999 71.501c48 25.667 88.167 60.832 120.5 105.499s53.5 94.334 63.5 149.001h-556c-6 -28 -9 -54.333 -9 -79c0 -66 20 -118.167 60 -156.5s95 -57.5 165 -57.5c56 0 108 12.833 156 38.5z" />
    <glyph glyph-name="florin" unicode="&#x192;" horiz-adv-x="331" 
d="M300.5 692c-27 -18.667 -45.832 -48 -56.499 -88l-17 -61h141l-10 -38h-142l-155 -547c-10.667 -39.333 -27 -68.5 -49 -87.5s-53.333 -28.5 -94 -28.5h-28l11 39h24c25.333 0 44.833 5.33301 58.5 16s24.5 31 32.5 61l156 547h-82l10 38h83l17 61
c14.667 53.333 40.167 92.333 76.5 117s84.166 37 143.499 37l-10 -38c-46 0 -82.5 -9.33301 -109.5 -28z" />
    <glyph glyph-name="uni01FC" unicode="&#x1fc;" horiz-adv-x="859" 
d="M564 665l-52 -295h280l-7 -36h-279l-52 -297h309l-7 -37h-354l32 180h-284l-139 -180h-50l545 702h374l-7 -37h-309zM517 654l-338 -437h261zM725 870l-218 -124l6 37l220 131z" />
    <glyph glyph-name="uni01FD" unicode="&#x1fd;" horiz-adv-x="1123" 
d="M982 523.5c32 -17.667 56.002 -41.3359 72.002 -71.0029s24 -62.834 24 -99.501c0 -16 -1.33301 -30.667 -4 -44c-4.66699 -21.333 -9.33398 -39.333 -14.001 -54h-473c-2 -14.667 -3 -29 -3 -43c0 -39.333 8.33301 -72.666 25 -99.999s39 -47.666 67 -60.999
s58.667 -20 92 -20c54.667 0 102.667 13.167 144 39.5s70.333 62.166 87 107.499h48c-21.333 -55.333 -56.666 -100.166 -105.999 -134.499s-107.333 -51.5 -174 -51.5c-54 0 -99.5 13.833 -136.5 41.5s-58.5 66.834 -64.5 117.501l-26 -151h-43l27 150
c-24 -47.333 -59 -85.5 -105 -114.5s-97 -43.5 -153 -43.5c-66.667 0 -119.834 19.5 -159.501 58.5s-59.5 91.833 -59.5 158.5c0 20 2 41 6 63c10 56 29.833 105 59.5 147s66.5 74.333 110.5 97s91.667 34 143 34c56 0 101.5 -14 136.5 -42s56.5 -66 64.5 -114l26 149h43
l-26 -149c26 50.667 61.667 89.334 107 116.001s94.666 40 147.999 40c46 0 85 -8.83301 117 -26.5zM1033 347.998c0 52.667 -16.998 93.168 -50.998 121.501s-76.667 42.5 -128 42.5c-38.667 0 -75.834 -8.33301 -111.501 -25s-66.834 -41.667 -93.501 -75
s-45 -74 -55 -122h432c4.66699 19.333 7 38.666 7 57.999zM550.004 324.999c0 56.667 -17.002 101.833 -51.002 135.5s-79 50.5 -135 50.5c-44 0 -84.5 -9.5 -121.5 -28.5s-68 -46.5 -93 -82.5s-41.833 -78.667 -50.5 -128c-3.33301 -22 -5 -40.667 -5 -56
c0 -58 16.5 -103.167 49.5 -135.5s78.167 -48.5 135.5 -48.5c42 0 81.833 9.83301 119.5 29.5s69.334 47.667 95.001 84s42.834 78.5 51.501 126.5c3.33301 20 5 37.667 5 53zM817.002 710.998l-218 -124l6 37l220 131z" />
    <glyph glyph-name="uni0218" unicode="&#x218;" horiz-adv-x="554" 
d="M126.5 17c-31.667 16 -54.8311 37.668 -69.498 65.001s-20.667 57.666 -18 90.999h45c-1.33301 -22 2.66699 -43.833 12 -65.5s26.333 -39.834 51 -54.501s57.334 -22 98.001 -22c54.667 0 98.5 14.5 131.5 43.5s49.5 67.5 49.5 115.5
c0 28.667 -7.33301 52.334 -22 71.001s-32.5 33.667 -53.5 45s-49.833 24 -86.5 38c-38.667 15.333 -69.334 29.166 -92.001 41.499s-41.834 29 -57.501 50s-23.5 47.5 -23.5 79.5c0 4.66699 0.666992 13 2 25c3.33301 31.333 14.666 59.833 33.999 85.5s45.5 46 78.5 61
s71.167 22.5 114.5 22.5c42 0 78 -7.5 108 -22.5s52.333 -34.667 67 -59s21.334 -50.166 20.001 -77.499h-46c0.666992 18 -4.5 36.5 -15.5 55.5s-28.167 34.667 -51.5 47s-52 18.5 -86 18.5c-52 0 -94.833 -13.167 -128.5 -39.5s-50.5 -62.5 -50.5 -108.5
c0 -25.333 6.83301 -46.5 20.5 -63.5s30.667 -31 51 -42s47.833 -23.167 82.5 -36.5c39.333 -16 71 -30.5 95 -43.5s44.333 -31 61 -54s25 -51.833 25 -86.5c0 -5.33301 -0.666992 -15.333 -2 -30c-4 -32 -15.5 -61.167 -34.5 -87.5s-45.167 -47.333 -78.5 -63
s-72 -23.5 -116 -23.5c-44.667 0 -82.834 8 -114.501 24zM265.003 -104.999c-6 -34.667 -17.166 -59.333 -33.499 -74s-36.833 -22 -61.5 -22l5 27c16 0 28.167 4.5 36.5 13.5s14.166 22.5 17.499 40.5l2 11h-37l9 53h65c0.666992 -12 -0.333008 -28.333 -3 -49z" />
    <glyph glyph-name="uni0219" unicode="&#x219;" horiz-adv-x="497" 
d="M70.5 32c-33 26.667 -47.5 64.6689 -43.5 114.002h45c-3.33301 -35.333 6.83398 -63.5 30.501 -84.5s58.5 -31.5 104.5 -31.5c47.333 0 85 10.5 113 31.5s42 48.167 42 81.5c0 20 -5.66699 36.667 -17 50s-25.333 24 -42 32s-40 17.333 -70 28
c-33.333 11.333 -60.5 22.333 -81.5 33s-38.667 25.5 -53 44.5s-21.5 43.167 -21.5 72.5c0 28.667 8.33301 54.167 25 76.5s39.667 39.666 69 51.999s62 18.5 98 18.5c50 0 91.667 -12.833 125 -38.5s50 -59.5 50 -101.5c0 -8.66699 -0.333008 -15.334 -1 -20.001h-44
c0.666992 3.33301 1 8.66602 1 15.999c0 32 -12.833 57.833 -38.5 77.5s-57.834 29.5 -96.501 29.5c-41.333 0 -75.5 -9.83301 -102.5 -29.5s-40.5 -46.167 -40.5 -79.5c0 -22 6 -40.167 18 -54.5s26.833 -25.666 44.5 -33.999s41.5 -17.833 71.5 -28.5
c33.333 -11.333 59.833 -22 79.5 -32s36.5 -24 50.5 -42s21 -41 21 -69c0 -46.667 -18.833 -83.667 -56.5 -111s-86.5 -41 -146.5 -41c-56 0 -100.5 13.333 -133.5 40zM234 -104.998c-6.66699 -35.333 -17.999 -60.167 -33.999 -74.5s-36.333 -21.5 -61 -21.5l5 27
c15.333 0 27.166 4.5 35.499 13.5s14.5 22.5 18.5 40.5l1 11h-37l10 53h65c0 -18 -1 -34.333 -3 -49z" />
    <glyph glyph-name="uni021A" unicode="&#x21a;" horiz-adv-x="495" 
d="M545 702l-7 -37h-200l-117 -665h-45l117 665h-200l7 37h445zM216 -105c-6.66699 -35.333 -17.999 -60.167 -33.999 -74.5s-36.333 -21.5 -61 -21.5l5 27c15.333 0 27.166 4.5 35.499 13.5s14.5 22.5 18.5 40.5l1 11h-37l10 53h65c0 -18 -1 -34.333 -3 -49z" />
    <glyph glyph-name="uni021B" unicode="&#x21b;" horiz-adv-x="347" 
d="M126 145c-2.66699 -13.333 -4 -26.665 -4 -39.998c0 -24 6.66699 -40.833 20 -50.5s35.333 -14.5 66 -14.5h60l-7 -40h-68c-40 0 -69.5 7.66699 -88.5 23s-28.5 40.666 -28.5 75.999c0 15.333 1.33301 30.666 4 45.999l64 359h-82l7 39h82l24 138h46l-24 -138h160l-7 -39
h-160zM171 -55.999c0.666992 -12 -0.332031 -28.332 -2.99902 -48.999c-6 -34.667 -17.167 -59.334 -33.5 -74.001s-36.833 -22 -61.5 -22l5 27c16 0 28.167 4.5 36.5 13.5s14.166 22.5 17.499 40.5l2 11h-37l10 53h64z" />
    <glyph glyph-name="uni0259" unicode="&#x259;" horiz-adv-x="625" 
d="M517.5 493c40.333 -38.667 60.5 -91.334 60.5 -158.001c0 -20.667 -2 -42 -6 -64c-10 -56.667 -30 -106 -60 -148s-66.833 -74.167 -110.5 -96.5s-91.167 -33.5 -142.5 -33.5c-46 0 -85.167 8.83301 -117.5 26.5s-56.666 41.334 -72.999 71.001
s-24.5 62.834 -24.5 99.501c0 16 1.33301 30.667 4 44c4 24 8 42 12 54h469c2.66699 21.333 4 36.666 4 45.999c0 57.333 -17.333 101.333 -52 132s-78.334 46 -131.001 46s-99.5 -13.167 -140.5 -39.5s-70.167 -62.166 -87.5 -107.499h-47
c21.333 55.333 56.833 100.166 106.5 134.499s108.167 51.5 175.5 51.5c66.667 0 120.167 -19.333 160.5 -58zM377 56c35.333 16.667 66 41.667 92 75s44 74 54 122h-427c-4.66699 -19.333 -7 -39 -7 -59c0 -52.667 16.833 -93 50.5 -121s76.167 -42 127.5 -42
c38 0 74.667 8.33301 110 25z" />
    <glyph glyph-name="uni02BC" unicode="&#x2bc;" horiz-adv-x="172" 
d="M167 702h57l-114 -205h-35z" />
    <glyph glyph-name="circumflex" unicode="&#x2c6;" horiz-adv-x="321" 
d="M235 696l-143 -82l6 38l144 82l113 -82l-6 -38z" />
    <glyph glyph-name="caron" unicode="&#x2c7;" horiz-adv-x="321" 
d="M363 693l-143 -82l-115 82l7 38l115 -82l143 82z" />
    <glyph glyph-name="uni02C9" unicode="&#x2c9;" horiz-adv-x="388" 
d="M429 688l-6 -35h-324l6 35h324z" />
    <glyph glyph-name="breve" unicode="&#x2d8;" horiz-adv-x="317" 
d="M318.5 647c-25.667 -22 -59.1689 -33.001 -100.502 -33.001c-36 0 -63.167 8.83301 -81.5 26.5s-27.5 39.834 -27.5 66.501c0 4 0.666992 10.667 2 20l2 9h32c-1.33301 -9.33301 -2 -16 -2 -20c0 -20.667 6.83301 -36.667 20.5 -48s33.834 -17 60.501 -17
c31.333 0 56.333 7.33301 75 22s30.334 35.667 35.001 63h32l-1 -9c-5.33301 -31.333 -20.833 -58 -46.5 -80z" />
    <glyph glyph-name="dotaccent" unicode="&#x2d9;" horiz-adv-x="150" 
d="M113.5 634c-6.33301 6 -9.50195 13.333 -9.50195 22c0 12 4.83301 22.5 14.5 31.5s20.167 13.5 31.5 13.5c9.33301 0 17 -2.83301 23 -8.5s9 -13.167 9 -22.5c0 -12 -4.66699 -22.5 -14 -31.5s-19.666 -13.5 -30.999 -13.5c-9.33301 0 -17.166 3 -23.499 9z" />
    <glyph glyph-name="ring" unicode="&#x2da;" horiz-adv-x="254" 
d="M148 777c21.333 17.333 45.335 26.001 72.002 26.001c24 0 43.333 -6.66699 58 -20s22 -31.666 22 -54.999c0 -34 -11.333 -61.833 -34 -83.5s-49.334 -32.5 -80.001 -32.5c-23.333 0 -42.5 6.83301 -57.5 20.5s-22.5 32.167 -22.5 55.5
c0 3.33301 0.666992 9.66602 2 18.999c5.33301 29.333 18.666 52.666 39.999 69.999zM254.502 760.501c-10.333 9 -23.833 13.5 -40.5 13.5c-18.667 0 -35 -6 -49 -18s-23 -28 -27 -48c-0.666992 -3.33301 -1 -8 -1 -14c0 -16 5 -28.833 15 -38.5s23 -14.5 39 -14.5
c21.333 0 39.833 7.66699 55.5 23s23.5 35 23.5 59c0 16 -5.16699 28.5 -15.5 37.5z" />
    <glyph glyph-name="ogonek" unicode="&#x2db;" horiz-adv-x="255" 
d="M163 0l-71 -31c-54 -23.333 -81 -53.333 -81 -90c0 -13.333 5 -23.5 15 -30.5s23.667 -10.5 41 -10.5c20 0 42.333 4.33301 67 13l-6 -34c-24.667 -8.66699 -48 -13 -70 -13c-26 0 -47.167 5.5 -63.5 16.5s-24.5 27.5 -24.5 49.5c0 53.333 39 96.333 117 129l66 28z" />
    <glyph glyph-name="tilde" unicode="&#x2dc;" horiz-adv-x="322" 
d="M124.5 664c15.667 14 33.502 21.001 53.502 21.001c12 0 21.833 -2.16699 29.5 -6.5s16.167 -10.833 25.5 -19.5c8.66699 -8 16.167 -13.833 22.5 -17.5s14.5 -5.5 24.5 -5.5c11.333 0 21.833 4 31.5 12s16.5 19.333 20.5 34h30
c-6.66699 -24 -18.167 -43.167 -34.5 -57.5s-34.5 -21.5 -54.5 -21.5c-12.667 0 -22.834 2.16699 -30.501 6.5s-16.834 11.166 -27.501 20.499c-9.33301 7.33301 -17 12.833 -23 16.5s-13.333 5.5 -22 5.5c-23.333 0 -40 -15.667 -50 -47h-30
c7.33301 25.333 18.833 45 34.5 59z" />
    <glyph glyph-name="hungarumlaut" unicode="&#x2dd;" horiz-adv-x="303" 
d="M123 601h-34l84 122h43zM249 601h-34l92 122h42z" />
    <glyph glyph-name="pi" unicode="&#x3c0;" horiz-adv-x="717" 
d="M707 543l-7 -37h-84l-90 -506h-44l89 506h-346l-89 -506h-45l89 506h-84l7 37h604z" />
    <glyph glyph-name="dvCandrabindu" unicode="&#x901;" horiz-adv-x="0" 
d="M-9.5 987.5c-7 -5.66699 -14.833 -8.49805 -23.5 -8.49805c-8 0 -14.333 2.16699 -19 6.5s-7 10.166 -7 17.499c0 10.667 3.66699 19.5 11 26.5s16 10.5 26 10.5c9.33301 0 16.333 -3 21 -9s6 -13.333 4 -22c-1.33301 -8.66699 -5.5 -15.834 -12.5 -21.501z
M116.5 902.502c-17 -23.667 -40.167 -42.998 -69.5 -57.998s-63.666 -22.5 -102.999 -22.5c-52.667 0 -92.834 12.667 -120.501 38s-41.5 56.333 -41.5 93c0 11.333 0.666992 19.666 2 24.999h34c-0.666992 -4 -1 -10 -1 -18c0 -29.333 10.5 -54.333 31.5 -75
s52.833 -31 95.5 -31c32.667 0 61.334 6.16699 86.001 18.5s44.167 28 58.5 47s23.166 38.5 26.499 58.5h34c-4.66699 -26.667 -15.5 -51.834 -32.5 -75.501z" />
    <glyph glyph-name="dvAnusvara" unicode="&#x902;" horiz-adv-x="0" 
d="M-25 860c-8 -8 -17.665 -12 -28.998 -12c-8.66699 0 -15.834 2.66699 -21.501 8s-8.5 12.333 -8.5 21c0 11.333 4 21 12 29s17.667 12 29 12c9.33301 0 16.666 -2.66699 21.999 -8s8 -12.333 8 -21c0 -11.333 -4 -21 -12 -29z" />
    <glyph glyph-name="dvVisarga" unicode="&#x903;" horiz-adv-x="204" 
d="M150.5 480c-7.66699 -6.66699 -16.499 -10 -26.499 -10c-10.667 0 -18.834 3.33301 -24.501 10s-7.5 15.334 -5.5 26.001c1.33301 10 6 18.333 14 25s17.333 10 28 10c10 0 17.667 -3.33301 23 -10s7.33301 -15 6 -25c-2 -10.667 -6.83301 -19.334 -14.5 -26.001z
M96.001 169c-8 -6.66699 -17.001 -10 -27.001 -10c-10.667 0 -18.667 3.33301 -24 10s-7.33301 15 -6 25c2 10 6.83301 18.333 14.5 25s16.834 10 27.501 10c10 0 17.833 -3.33301 23.5 -10s7.5 -15 5.5 -25c-1.33301 -10 -6 -18.333 -14 -25z" />
    <glyph glyph-name="dvA" unicode="&#x905;" horiz-adv-x="820" 
d="M917 740l-5.99805 -35.001h-151l-125 -705h-40l64 365l-212 1c18.667 -24.667 28 -55 28 -91c0 -10.667 -1 -22 -3 -34c-10 -57.333 -36.333 -103.5 -79 -138.5s-94.334 -52.5 -155.001 -52.5c-54.667 0 -98.667 14.667 -132 44s-50 68.333 -50 117c0 12 1 24.333 3 37
h39c-2 -10.667 -3 -21 -3 -31c0 -39.333 13.5 -71 40.5 -95s62.5 -36 106.5 -36c50 0 92.5 14.5 127.5 43.5s56.5 66.833 64.5 113.5c2 10 3 20.333 3 31c0 35.333 -11.5 64.833 -34.5 88.5s-59.167 35.5 -108.5 35.5h-36l6 35h36c34 0 63.833 6.5 89.5 19.5
s46 29.833 61 50.5s24.5 42.334 28.5 65.001c2 10 3 19.667 3 29c0 36.667 -12.333 65.334 -37 86.001s-56.334 31 -95.001 31c-46 0 -86.833 -12.833 -122.5 -38.5s-56.834 -60.167 -63.501 -103.5h-39c10 54 36.5 97 79.5 129s93.833 48 152.5 48
c49.333 0 89 -12.833 119 -38.5s45 -60.5 45 -104.5c0 -10 -1 -20.667 -3 -32c-7.33301 -40 -24.666 -74.167 -51.999 -102.5s-63.333 -46.5 -108 -54.5v-1c19.333 -2.66699 36.333 -8.33398 51 -17.001h257l60 341h191z" />
    <glyph glyph-name="dvAA" unicode="&#x906;" horiz-adv-x="1098" 
d="M1189 705l-150.998 -0.000976562l-124 -705h-41l124 705h-237l-125 -705h-40l64 365l-212 1c18.667 -24.667 28 -55 28 -91c0 -10.667 -1 -22 -3 -34c-10 -57.333 -36.333 -103.5 -79 -138.5s-94.334 -52.5 -155.001 -52.5c-54.667 0 -98.667 14.667 -132 44
s-50 68.333 -50 117c0 12 1 24.333 3 37h39c-2 -10.667 -3 -21 -3 -31c0 -39.333 13.5 -71 40.5 -95s62.5 -36 106.5 -36c50 0 92.5 14.5 127.5 43.5s56.5 66.833 64.5 113.5c2 10 3 20.333 3 31c0 35.333 -11.5 64.833 -34.5 88.5s-59.167 35.5 -108.5 35.5h-36l6 35h36
c34 0 63.833 6.5 89.5 19.5s46 29.833 61 50.5s24.5 42.334 28.5 65.001c2 10 3 19.667 3 29c0 36.667 -12.333 65.334 -37 86.001s-56.334 31 -95.001 31c-46 0 -86.833 -12.833 -122.5 -38.5s-56.834 -60.167 -63.501 -103.5h-39c10 54 36.5 97 79.5 129
s93.833 48 152.5 48c49.333 0 89 -12.833 119 -38.5s45 -60.5 45 -104.5c0 -10 -1 -20.667 -3 -32c-7.33301 -40 -24.666 -74.167 -51.999 -102.5s-63.333 -46.5 -108 -54.5v-1c19.333 -2.66699 36.333 -8.33398 51 -17.001h257l60 341h469z" />
    <glyph glyph-name="dvI" unicode="&#x907;" horiz-adv-x="583" 
d="M528 705l-26.999 -147.001h1l-6 -32h-172c-43.333 0 -81.333 -7.66699 -114 -23s-52.334 -43 -59.001 -83c-1.33301 -9.33301 -2 -16.333 -2 -21c0 -28 11.167 -48.667 33.5 -62s51.166 -20 86.499 -20h45c51.333 0 93.833 -10.5 127.5 -31.5s50.5 -54.5 50.5 -100.5
c0 -10.667 -1 -22.667 -3 -36c-8.66699 -46.667 -31 -85 -67 -115s-84 -45 -144 -45c-40 0 -72.833 6.83301 -98.5 20.5s-44.667 29.334 -57 47.001s-19.5 34.167 -21.5 49.5l-31 -178h-38l44 254h36c-2.66699 -47.333 10 -85.833 38 -115.5s70 -44.5 126 -44.5
c37.333 0 69.333 7.5 96 22.5s46.834 34.5 60.501 58.5s20.5 49.667 20.5 77c0 38 -14.333 65.167 -43 81.5s-64.667 24.5 -108 24.5h-48c-42.667 0 -77.667 9.16699 -105 27.5s-41 45.5 -41 81.5c0 9.33301 1 18.333 3 27c8 48.667 31.5 83.5 70.5 104.5
s84.167 31.5 135.5 31.5h145l27 147h-468l5 35h672l-6 -35h-164z" />
    <glyph glyph-name="dvII" unicode="&#x908;" horiz-adv-x="581" 
d="M776.5 968.5c20.333 -20.333 30.499 -47.8359 30.499 -82.5029c0 -11.333 -1 -23 -3 -35h-36c1.33301 12 2 20.333 2 25c0 26.667 -7.66699 47.834 -23 63.501s-36.666 23.5 -63.999 23.5c-37.333 0 -67.5 -12.167 -90.5 -36.5s-38.167 -60.166 -45.5 -107.499l-13 -79
h164l-5 -35h-164l-30 -166h-1l-2 -13h-172c-43.333 0 -81.333 -7.66699 -114 -23s-52.334 -43 -59.001 -83c-1.33301 -9.33301 -2 -16.333 -2 -21c0 -28 11.167 -48.667 33.5 -62s51.166 -20 86.499 -20h45c51.333 0 93.833 -10.5 127.5 -31.5s50.5 -54.5 50.5 -100.5
c0 -10.667 -1 -22.667 -3 -36c-8.66699 -46.667 -31 -85 -67 -115s-84 -45 -144 -45c-40 0 -72.833 6.83301 -98.5 20.5s-44.667 29.334 -57 47.001s-19.5 34.167 -21.5 49.5l-31 -178h-38l44 254h36c-2.66699 -47.333 10 -85.833 38 -115.5s70 -44.5 126 -44.5
c37.333 0 69.333 7.5 96 22.5s46.834 34.5 60.501 58.5s20.5 49.667 20.5 77c0 38 -14.333 65.167 -43 81.5s-64.667 24.5 -108 24.5h-48c-42.667 0 -77.667 9.16699 -105 27.5s-41 45.5 -41 81.5c0 9.33301 1 18.333 3 27c8 48.667 31.5 83.5 70.5 104.5
s84.167 31.5 135.5 31.5h145l27 147h-468l5 35h469l14 80c10 56.667 30.333 100.667 61 132s70.334 47 119.001 47c38 0 67.167 -10.167 87.5 -30.5z" />
    <glyph glyph-name="dvU" unicode="&#x909;" horiz-adv-x="581" 
d="M671 705h-140.998l-22 -129c-7.33301 -40.667 -25 -75.334 -53 -104.001s-60 -45.667 -96 -51l-1 -1c39.333 -7.33301 69.833 -25.666 91.5 -54.999s32.5 -64.666 32.5 -105.999c0 -9.33301 -1.33301 -23.333 -4 -42c-7.33301 -41.333 -22.5 -78.333 -45.5 -111
s-52.333 -58.167 -88 -76.5s-75.5 -27.5 -119.5 -27.5c-39.333 0 -74 7.66699 -104 23s-53.167 36.5 -69.5 63.5s-24.5 57.833 -24.5 92.5c0 8.66699 1.33301 21.667 4 39h39c-2 -10.667 -3 -21 -3 -31c0 -44 15.167 -80 45.5 -108s69.833 -42 118.5 -42
c53.333 0 99.166 16.667 137.499 50s62.166 76.666 71.499 129.999c2 12 3 23.667 3 35c0 41.333 -12.5 76 -37.5 104s-64.167 42 -117.5 42h-38l6 37h35c50 0 90.5 13.667 121.5 41s49.833 61.333 56.5 102l22 125h-464l6 35h645z" />
    <glyph glyph-name="dvUU" unicode="&#x90a;" horiz-adv-x="872" 
d="M455 472c-28 -28.667 -59.9961 -45.667 -95.9961 -51v-1h223c59.333 0 107.5 -12.5 144.5 -37.5s55.5 -63.833 55.5 -116.5c0 -15.333 -1.33301 -29.666 -4 -42.999c-12 -65.333 -39 -113.5 -81 -144.5s-91.333 -46.5 -148 -46.5c-9.33301 0 -17.333 0.333008 -24 1
s-12 1.33398 -16 2.00098l6 32c17.333 -1.33301 29 -2 35 -2c47.333 0 88.166 12.667 122.499 38s56.5 65.666 66.5 120.999c2.66699 17.333 4 29.666 4 36.999c0 43.333 -15.5 75 -46.5 95s-70.833 30 -119.5 30h-149c17.333 -14.667 30.5 -33.167 39.5 -55.5
s13.5 -46.5 13.5 -72.5c0 -15.333 -1.33301 -29.666 -4 -42.999c-7.33301 -40.667 -22.333 -77.167 -45 -109.5s-51.834 -57.666 -87.501 -75.999s-75.5 -27.5 -119.5 -27.5c-39.333 0 -74 7.66699 -104 23s-53.167 36.5 -69.5 63.5s-24.5 57.833 -24.5 92.5
c0 8.66699 1.33301 21.667 4 39h39c-2 -10.667 -3 -21 -3 -31c0 -44 15.167 -80 45.5 -108s69.833 -42 118.5 -42c53.333 0 99.166 16.667 137.499 50s62.166 76.666 71.499 129.999c2 12 3 23.667 3 35c0 41.333 -12.5 76 -37.5 104s-64.167 42 -117.5 42h-38l6 37h35
c50 0 90.5 13.667 121.5 41s49.833 61.333 56.5 102l22 125h-464l6 35h936l-6 -35h-433l-22 -129c-7.33301 -40.667 -25 -75.334 -53 -104.001z" />
    <glyph glyph-name="dvvR" unicode="&#x90b;" horiz-adv-x="1004" 
d="M608 705l-48.0029 -275.001h199c56.667 0 92.334 23 107.001 69l16 90h37l-63 -356h-14c-32 0 -60.167 -7 -84.5 -21s-43 -32.833 -56 -56.5s-19.5 -49.167 -19.5 -76.5c0 -32 10.5 -55.833 31.5 -71.5s48.5 -23.5 82.5 -23.5c16.667 0 36.334 3 59.001 9l-7 -34
c-6.66699 -2.66699 -16 -4.83398 -28 -6.50098s-23.333 -2.5 -34 -2.5c-42 0 -76.5 10.167 -103.5 30.5s-40.5 50.166 -40.5 89.499c0 11.333 1 23 3 35c8 42.667 28 78.334 60 107.001s72 45 120 49l29 168c-27.333 -22 -62.666 -33 -105.999 -33h-194l-70 -396h-38l60 341
l-384 -341h-48l1 5l438 381c3.33301 48 -9.33398 87.333 -38.001 118s-68.667 46 -120 46c-40 0 -77 -8.66699 -111 -26s-62.667 -42.166 -86 -74.499s-38.666 -70.166 -45.999 -113.499h-41c9.33301 50 27.5 93.833 54.5 131.5s60.167 66.667 99.5 87
s81.666 30.5 126.999 30.5c47.333 0 85.833 -10.667 115.5 -32s49.834 -50.333 60.501 -87l42 239h-543l6 35h1068l-7 -35h-486z" />
    <glyph glyph-name="dvvL" unicode="&#x90c;" horiz-adv-x="897" 
d="M708 705l-26.998 -151.002c43.333 -4.66699 76.5 -22 99.5 -52s34.5 -68.667 34.5 -116c0 -14.667 -1.66699 -32.667 -5 -54c-6 -38 -17.333 -71.333 -34 -100h-8c-33.333 0 -62.333 -7 -87 -21s-43.667 -32.833 -57 -56.5s-20 -49.5 -20 -77.5
c0 -32 10.667 -55.667 32 -71s49 -23 83 -23c19.333 0 39 3.33301 59 10l-6 -34c-20 -6.66699 -41 -10 -63 -10c-42.667 0 -77.5 10.333 -104.5 31s-40.5 51 -40.5 91c0 10.667 1 22 3 34c8 42 28.333 77.667 61 107s72.334 45.333 119.001 48c10.667 24 18 48 22 72
c3.33301 20 5 37 5 51c0 40.667 -10.333 73.334 -31 98.001s-51.334 37 -92.001 37c-52 0 -95.667 -19.667 -131 -59s-57.666 -93 -66.999 -161l-2 -12h-35l1 12c3.33301 26.667 5 48.667 5 66c0 102.667 -38.667 154 -116 154c-52 0 -94.833 -17.167 -128.5 -51.5
s-55.167 -79.166 -64.5 -134.499c-3.33301 -20 -5 -37 -5 -51c0 -46.667 13.333 -83.667 40 -111s65.667 -41 117 -41c5.33301 0 16 0.666992 32 2l-7 -37c-8 -0.666992 -19.333 -1 -34 -1c-62.667 0 -109.834 16.333 -141.501 49s-47.5 77 -47.5 133
c0 21.333 1.66699 40.333 5 57c12 67.333 38.5 121.333 79.5 162s92.167 61 153.5 61c50 0 86.5 -16.333 109.5 -49s34.167 -70.667 33.5 -114h2c15.333 42.667 38.666 79.5 69.999 110.5s71.666 48.167 120.999 51.5l27 151h-642l6 35h961l-7 -35h-278z" />
    <glyph glyph-name="dvEcandra" unicode="&#x90d;" horiz-adv-x="651" 
d="M271 885.5c-26 25 -39.001 55.833 -39.001 92.5c0 11.333 0.666992 20 2 26h36c-1.33301 -9.33301 -2 -16 -2 -20c0 -28.667 10.5 -53 31.5 -73s52.833 -30 95.5 -30c32 0 60.167 6 84.5 18s43.5 27.5 57.5 46.5s22.667 38.5 26 58.5h35c-4 -26 -14.667 -51 -32 -75
s-41.166 -43.5 -71.499 -58.5s-65.5 -22.5 -105.5 -22.5c-52.667 0 -92 12.5 -118 37.5zM716.999 705l-125.998 -0.00195312l-24 -137c-12 -68.667 -33.167 -118.667 -63.5 -150s-73.833 -47 -130.5 -47c-13.333 0 -23.333 0.333008 -30 1l6 36
c5.33301 -0.666992 12.666 -1 21.999 -1c45.333 0 80.166 12.833 104.499 38.5s41.5 66.834 51.5 123.501l24 136h-363l-76 -429c-4 -20.667 -6 -40.667 -6 -60c0 -50.667 14.5 -90.167 43.5 -118.5s70.833 -42.5 125.5 -42.5c57.333 0 103.833 16.833 139.5 50.5
s58.834 81.5 69.501 143.5h39c-12 -73.333 -39.667 -130 -83 -170s-100 -60 -170 -60c-66.667 0 -117.334 17 -152.001 51s-52 81 -52 141c0 20.667 2 42.334 6 65.001l75 429h-145l6 35h715z" />
    <glyph glyph-name="dvE" unicode="&#x90f;" horiz-adv-x="650" 
d="M741 705l-125.998 -0.00195312l-24 -137c-12 -68.667 -33.167 -118.667 -63.5 -150s-73.833 -47 -130.5 -47c-13.333 0 -23.333 0.333008 -30 1l6 36c5.33301 -0.666992 12.666 -1 21.999 -1c45.333 0 80.166 12.833 104.499 38.5s41.5 66.834 51.5 123.501l24 136h-363
l-76 -429c-4 -20.667 -6 -40.667 -6 -60c0 -50.667 14.5 -90.167 43.5 -118.5s70.833 -42.5 125.5 -42.5c57.333 0 103.833 16.833 139.5 50.5s58.834 81.5 69.501 143.5h39c-12 -73.333 -39.667 -130 -83 -170s-100 -60 -170 -60c-66.667 0 -117.334 17 -152.001 51
s-52 81 -52 141c0 20.667 2 42.334 6 65.001l75 429h-145l6 35h715z" />
    <glyph glyph-name="dvAI" unicode="&#x910;" horiz-adv-x="650" 
d="M741 705l-125.999 -0.00292969l-24 -137c-12 -68.667 -33.167 -118.667 -63.5 -150s-73.833 -47 -130.5 -47c-13.333 0 -23.333 0.333008 -30 1l6 36c5.33301 -0.666992 12.666 -1 21.999 -1c45.333 0 80.166 12.833 104.499 38.5s41.5 66.834 51.5 123.501l24 136h-363
l-76 -429c-4 -20.667 -6 -40.667 -6 -60c0 -50.667 14.5 -90.167 43.5 -118.5s70.833 -42.5 125.5 -42.5c57.333 0 103.833 16.833 139.5 50.5s58.834 81.5 69.501 143.5h39c-12 -73.333 -39.667 -130 -83 -170s-100 -60 -170 -60c-66.667 0 -117.334 17 -152.001 51
s-52 81 -52 141c0 20.667 2 42.334 6 65.001l75 429h-145l6 35h547c-28 60.667 -52.333 104.667 -73 132s-41.667 44.833 -63 52.5s-51 11.5 -89 11.5h-35l6 34h35c44.667 0 79.334 -4.33301 104.001 -13s49 -29.167 73 -61.5s51.333 -84.166 82 -155.499h128z" />
    <glyph glyph-name="dvOcandra" unicode="&#x911;" horiz-adv-x="1098" 
d="M1189 705l-150.998 -0.000976562l-124 -705h-41l124 705h-237l-125 -705h-40l64 365l-212 1c18.667 -24.667 28 -55 28 -91c0 -10.667 -1 -22 -3 -34c-10 -57.333 -36.333 -103.5 -79 -138.5s-94.334 -52.5 -155.001 -52.5c-54.667 0 -98.667 14.667 -132 44
s-50 68.333 -50 117c0 12 1 24.333 3 37h39c-2 -10.667 -3 -21 -3 -31c0 -39.333 13.5 -71 40.5 -95s62.5 -36 106.5 -36c50 0 92.5 14.5 127.5 43.5s56.5 66.833 64.5 113.5c2 10 3 20.333 3 31c0 35.333 -11.5 64.833 -34.5 88.5s-59.167 35.5 -108.5 35.5h-36l6 35h36
c34 0 63.833 6.5 89.5 19.5s46 29.833 61 50.5s24.5 42.334 28.5 65.001c2 10 3 19.667 3 29c0 36.667 -12.333 65.334 -37 86.001s-56.334 31 -95.001 31c-46 0 -86.833 -12.833 -122.5 -38.5s-56.834 -60.167 -63.501 -103.5h-39c10 54 36.5 97 79.5 129
s93.833 48 152.5 48c49.333 0 89 -12.833 119 -38.5s45 -60.5 45 -104.5c0 -10 -1 -20.667 -3 -32c-7.33301 -40 -24.666 -74.167 -51.999 -102.5s-63.333 -46.5 -108 -54.5v-1c19.333 -2.66699 36.333 -8.33398 51 -17.001h257l60 341h469zM1162 928.499
c-16.667 -23.667 -39.501 -43 -68.501 -58s-63.5 -22.5 -103.5 -22.5c-53.333 0 -93.666 12.833 -120.999 38.5s-41 56.834 -41 93.501c0 5.33301 0.666992 13.333 2 24h36c-1.33301 -9.33301 -2 -16 -2 -20c0 -28.667 10.5 -53 31.5 -73s52.833 -30 95.5 -30
c32 0 60.167 6 84.5 18s43.5 27.5 57.5 46.5s22.667 38.5 26 58.5h36c-5.33301 -26.667 -16.333 -51.834 -33 -75.501z" />
    <glyph glyph-name="dvO" unicode="&#x913;" horiz-adv-x="1098" 
d="M1195 740l-5.99902 -35.001h-151l-124 -705h-41l124 705h-237l-125 -705h-40l64 365l-212 1c18.667 -24.667 28 -55 28 -91c0 -10.667 -1 -22 -3 -34c-10 -57.333 -36.333 -103.5 -79 -138.5s-94.334 -52.5 -155.001 -52.5c-54.667 0 -98.667 14.667 -132 44
s-50 68.333 -50 117c0 12 1 24.333 3 37h39c-2 -10.667 -3 -21 -3 -31c0 -39.333 13.5 -71 40.5 -95s62.5 -36 106.5 -36c50 0 92.5 14.5 127.5 43.5s56.5 66.833 64.5 113.5c2 10 3 20.333 3 31c0 35.333 -11.5 64.833 -34.5 88.5s-59.167 35.5 -108.5 35.5h-36l6 35h36
c34 0 63.833 6.5 89.5 19.5s46 29.833 61 50.5s24.5 42.334 28.5 65.001c2 10 3 19.667 3 29c0 36.667 -12.333 65.334 -37 86.001s-56.334 31 -95.001 31c-46 0 -86.833 -12.833 -122.5 -38.5s-56.834 -60.167 -63.501 -103.5h-39c10 54 36.5 97 79.5 129
s93.833 48 152.5 48c49.333 0 89 -12.833 119 -38.5s45 -60.5 45 -104.5c0 -10 -1 -20.667 -3 -32c-7.33301 -40 -24.666 -74.167 -51.999 -102.5s-63.333 -46.5 -108 -54.5v-1c19.333 -2.66699 36.333 -8.33398 51 -17.001h257l60 341h351
c-28.667 61.333 -53.334 105.5 -74.001 132.5s-41.5 44.333 -62.5 52s-50.5 11.5 -88.5 11.5h-36l6 34h35c44.667 0 79.334 -4.33301 104.001 -13s48.834 -29 72.501 -61s51.167 -84 82.5 -156h79z" />
    <glyph glyph-name="dvAU" unicode="&#x914;" horiz-adv-x="1098" 
d="M1195 740l-5.99805 -35.002h-151l-124 -705h-41l124 705h-237l-125 -705h-40l64 365l-212 1c18.667 -24.667 28 -55 28 -91c0 -10.667 -1 -22 -3 -34c-10 -57.333 -36.333 -103.5 -79 -138.5s-94.334 -52.5 -155.001 -52.5c-54.667 0 -98.667 14.667 -132 44
s-50 68.333 -50 117c0 12 1 24.333 3 37h39c-2 -10.667 -3 -21 -3 -31c0 -39.333 13.5 -71 40.5 -95s62.5 -36 106.5 -36c50 0 92.5 14.5 127.5 43.5s56.5 66.833 64.5 113.5c2 10 3 20.333 3 31c0 35.333 -11.5 64.833 -34.5 88.5s-59.167 35.5 -108.5 35.5h-36l6 35h36
c34 0 63.833 6.5 89.5 19.5s46 29.833 61 50.5s24.5 42.334 28.5 65.001c2 10 3 19.667 3 29c0 36.667 -12.333 65.334 -37 86.001s-56.334 31 -95.001 31c-46 0 -86.833 -12.833 -122.5 -38.5s-56.834 -60.167 -63.501 -103.5h-39c10 54 36.5 97 79.5 129
s93.833 48 152.5 48c49.333 0 89 -12.833 119 -38.5s45 -60.5 45 -104.5c0 -10 -1 -20.667 -3 -32c-7.33301 -40 -24.666 -74.167 -51.999 -102.5s-63.333 -46.5 -108 -54.5v-1c19.333 -2.66699 36.333 -8.33398 51 -17.001h257l60 341h354
c-34 34.667 -62.333 59.5 -85 74.5s-45 24.667 -67 29s-52.667 6.5 -92 6.5h-36l5 29h36c39.333 0 69.666 -1.66699 90.999 -5s43 -12 65 -26s48 -36.667 78 -68c-24 66.667 -45.833 115 -65.5 145s-39.834 49 -60.501 57s-49.667 12 -87 12h-36l4 30h36
c44.667 0 78.834 -5.16699 102.501 -15.5s46.834 -35.166 69.501 -74.499s49 -104 79 -194h78z" />
    <glyph glyph-name="dvKA" unicode="&#x915;" horiz-adv-x="1012" 
d="M589 705l-44.999 -255.996c20.667 37.333 48.667 67.666 84 90.999s77.333 35 126 35c52.667 0 95.667 -16.167 129 -48.5s50 -75.833 50 -130.5c0 -13.333 -1.66699 -29.333 -5 -48c-8.66699 -47.333 -25 -88.333 -49 -123s-53.5 -61.167 -88.5 -79.5
s-72.833 -27.5 -113.5 -27.5c-19.333 0 -38.333 2 -57 6l6 34c15.333 -3.33301 32 -5 50 -5c33.333 0 64.833 7.83301 94.5 23.5s54.834 38.167 75.501 67.5s34.667 64.333 42 105c2 14 3 27.333 3 40c0 46 -13.833 82.667 -41.5 110s-63.5 41 -107.5 41
c-58 0 -105.333 -18.167 -142 -54.5s-60.667 -79.5 -72 -129.5l-63 -356h-38l42 242c-20.667 -36.667 -49.334 -66.667 -86.001 -90s-79.334 -35 -128.001 -35c-54.667 0 -99 16.167 -133 48.5s-51 76.166 -51 131.499c0 14.667 1.66699 32 5 52
c8 45.333 24.5 85.166 49.5 119.499s55.5 60.666 91.5 78.999s74.333 27.5 115 27.5c49.333 0 88.5 -11.833 117.5 -35.5s47.5 -54.167 55.5 -91.5l45 257h-523l6 35h1076l-7 -35h-513zM375.501 180.004c31 18.667 55.667 42.1699 74 70.5029s30.5 57.166 36.5 86.499l3 20
c1.33301 13.333 2 23 2 29c0 43.333 -12.667 79.833 -38 109.5s-64.333 44.5 -117 44.5c-33.333 0 -65.5 -7.83301 -96.5 -23.5s-57.5 -37.834 -79.5 -66.501s-36.333 -62.334 -43 -101.001c-2.66699 -14 -4 -29 -4 -45c0 -48 14.167 -85.333 42.5 -112s65.5 -40 111.5 -40
c41.333 0 77.5 9.33301 108.5 28z" />
    <glyph glyph-name="dvKHA" unicode="&#x916;" horiz-adv-x="918" 
d="M1015 740l-7 -35h-151l-124 -705h-40l46 259c-18.667 -32 -44.167 -58 -76.5 -78s-69.833 -30 -112.5 -30c-10.667 0 -24.667 1.33301 -42 4c-26 -45.333 -60.5 -82.666 -103.5 -111.999s-91.5 -44 -145.5 -44c-60.667 0 -108.334 15.667 -143.001 47s-52 74.333 -52 129
c0 17.333 1.33301 33.666 4 48.999l31 172h40c98.667 0 157.334 54 176.001 162l26 147h-314l6 35h982zM817 705h-436.001l-26 -151c-22.667 -126.667 -92.667 -190 -210 -190h-12l-25 -143c-2.66699 -12.667 -4 -26 -4 -40c0 -44.667 14.333 -80.167 43 -106.5
s68.667 -39.5 120 -39.5c44 0 84.5 12.5 121.5 37.5s65.833 56.167 86.5 93.5c-28.667 12.667 -51.167 32.167 -67.5 58.5s-24.5 57.833 -24.5 94.5c0 8 1.33301 22 4 42c6.66699 40 21 74.833 43 104.5s49 52.5 81 68.5s66.333 24 103 24c44.667 0 80.334 -10 107.001 -30
s43.667 -46 51 -78zM657.999 209.5c27.333 17 49.168 38.668 65.501 65.001s26.833 52.833 31.5 79.5c2 11.333 3 22.666 3 33.999c0 38.667 -11.5 71.167 -34.5 97.5s-58.5 39.5 -106.5 39.5c-46.667 0 -88.334 -15 -125.001 -45s-59.667 -70.667 -69 -122
c-2 -12.667 -3 -25 -3 -37c0 -42.667 13.167 -76.167 39.5 -100.5s60.5 -36.5 102.5 -36.5c36.667 0 68.667 8.5 96 25.5z" />
    <glyph glyph-name="dvGA" unicode="&#x917;" horiz-adv-x="705" 
d="M802 740l-5.99902 -34.999h-152l-123 -705h-41l124 705h-208l-52 -296c-7.33301 -44.667 -24.833 -81.334 -52.5 -110.001s-65.167 -43 -112.5 -43c-40 0 -70.167 11 -90.5 33s-30.5 50.333 -30.5 85c0 10.667 1 21.334 3 32.001l6 30h40l-6 -31
c-2 -10 -3 -19.667 -3 -29c0 -24.667 6.66699 -45 20 -61s34.666 -24 63.999 -24c36 0 63.667 11.167 83 33.5s32 50.166 38 83.499l52 297h-328l6 35h769z" />
    <glyph glyph-name="dvGHA" unicode="&#x918;" horiz-adv-x="717" 
d="M808 705l-150.999 -0.00195312l-124 -705h-40l45 255c-27.333 -44 -64.333 -78.833 -111 -104.5s-97.334 -38.5 -152.001 -38.5c-60 0 -108.167 12.833 -144.5 38.5s-54.5 62.5 -54.5 110.5c0 10.667 1 22 3 34c8 44.667 28.667 80.834 62 108.501
s71.333 43.834 114 48.501v2c-32 4 -57.5 15.667 -76.5 35s-28.5 47 -28.5 83c0 8 1.33301 21.333 4 40l17 93h-144l6 35h781zM616.001 704.998l-403.999 0.000976562l-17 -92c-2 -12.667 -3 -25 -3 -37c0 -70.667 47 -106 141 -106h52l-6 -34h-54
c-60.667 0 -108.167 -12.833 -142.5 -38.5s-55.166 -58.834 -62.499 -99.501c-2 -10 -3 -19.667 -3 -29c0 -40 15.5 -70.333 46.5 -91s72.5 -31 124.5 -31c42 0 82.167 9.16699 120.5 27.5s70.666 43.833 96.999 76.5s43.166 69.667 50.499 111z" />
    <glyph glyph-name="dvNGA" unicode="&#x919;" horiz-adv-x="636" 
d="M733 740l-6.00195 -35.0049h-203l-29 -160l-3 -19h-172c-42.667 0 -80.167 -7.66699 -112.5 -23s-52.166 -42.666 -59.499 -81.999c-1.33301 -9.33301 -2 -16 -2 -20c0 -29.333 11 -50.666 33 -63.999s50.667 -20 86 -20h44c50.667 0 93.167 -10.833 127.5 -32.5
s51.5 -55.167 51.5 -100.5c0 -10 -1 -21 -3 -33c-8.66699 -48 -32.834 -87 -72.501 -117s-92.167 -45 -157.5 -45c-66 0 -117.167 14.833 -153.5 44.5s-54.5 68.167 -54.5 115.5c0 11.333 1 22.333 3 33h40c-2 -10 -3 -19.667 -3 -29c0 -39.333 14.5 -71 43.5 -95
s71.833 -36 128.5 -36c38.667 0 72.334 7.16699 101.001 21.5s50.5 33.333 65.5 57s22.5 49.834 22.5 78.501c0 38 -14.167 65.333 -42.5 82s-64.166 25 -107.499 25h-43c-42 0 -77.333 9.33301 -106 28s-43 46.334 -43 83.001c0 10.667 0.666992 19 2 25
c8.66699 48.667 32 83.334 70 104.001s82.333 31 133 31h146l27 148h-456l6 35h699zM611.498 431.495c5 -6.33301 6.83301 -14.5 5.5 -24.5c-2 -9.33301 -6.83301 -17.166 -14.5 -23.499s-16.167 -9.5 -25.5 -9.5c-10 0 -17.667 3.16699 -23 9.5s-7 14.166 -5 23.499
c1.33301 10 5.83301 18.167 13.5 24.5s16.5 9.5 26.5 9.5s17.5 -3.16699 22.5 -9.5z" />
    <glyph glyph-name="dvCA" unicode="&#x91a;" horiz-adv-x="724" 
d="M814 705l-150.002 0.000976562l-124 -705h-41l41 235c-23.333 -37.333 -55.166 -67.5 -95.499 -90.5s-83.166 -34.5 -128.499 -34.5c-53.333 0 -97.333 14.667 -132 44s-52 69.666 -52 120.999c0 14 1.33301 27.333 4 40c7.33301 43.333 24.5 81.333 51.5 114
s61.167 57 102.5 73h-218l6 34h360l-7 -34h-31c-38.667 0 -74 -8 -106 -24s-58.167 -37.833 -78.5 -65.5s-33.833 -58.5 -40.5 -92.5c-2 -12 -3 -23.667 -3 -35c0 -44 14.667 -78.333 44 -103s67 -37 113 -37c36.667 0 71.167 8.66699 103.5 26s59.5 40.333 81.5 69
s36.667 59.667 44 93l65 372h-596l6 35h788z" />
    <glyph glyph-name="dvCHA" unicode="&#x91b;" horiz-adv-x="810" 
d="M665 705l-26 -148.999c37.333 -4 67.5 -18.833 90.5 -44.5s34.5 -61.834 34.5 -108.501c0 -14.667 -1.66699 -32 -5 -52c-12 -65.333 -38 -122.166 -78 -170.499s-90.167 -85.333 -150.5 -111s-126.166 -38.5 -197.499 -38.5c-82.667 0 -149.834 16.167 -201.501 48.5
s-77.5 77.5 -77.5 135.5c0 11.333 1 23.333 3 36c8.66699 49.333 30.167 88.5 64.5 117.5s74.5 46.167 120.5 51.5v2c-31.333 4 -56.5 15.667 -75.5 35s-28.5 46.666 -28.5 81.999c0 14 1.33301 27.667 4 41l23 125h-140l5 35h877l-5 -35h-237zM627 705.001
l-422.001 0.000976562l-22 -123c-2.66699 -18.667 -4 -31.334 -4 -38.001c0 -35.333 11.333 -61.666 34 -78.999s58 -26 106 -26h23l-5 -35h-23c-46.667 0 -86.667 -8.33301 -120 -25s-58.333 -38.667 -75 -66s-25 -57.333 -25 -90c0 -50.667 22.5 -89.334 67.5 -116.001
s104.167 -40 177.5 -40c62.667 0 121.334 11.5 176.001 34.5s100.167 56 136.5 99s59.5 93.167 69.5 150.5c3.33301 18.667 5 34.334 5 47.001c0 41.333 -10.833 72.833 -32.5 94.5s-48.167 32.5 -79.5 32.5c-34 0 -66.167 -11 -96.5 -33s-49.5 -56.667 -57.5 -104
c-2.66699 -12.667 -4 -27.334 -4 -44.001s1.66699 -36 5 -58h-36c-2.66699 16.667 -4 34.667 -4 54c0 20 1.33301 37 4 51c9.33301 52.667 30.5 92.5 63.5 119.5s70.5 42.167 112.5 45.5z" />
    <glyph glyph-name="dvJA" unicode="&#x91c;" horiz-adv-x="829" 
d="M920 705h-150.999l-124 -705h-41l83 470h-232l-24 -133c-10 -56 -33.5 -101.333 -70.5 -136s-82.833 -52 -137.5 -52c-44.667 0 -79.834 13.667 -105.501 41s-38.5 63 -38.5 107c0 8.66699 1.33301 22.334 4 41.001l30 168h40l-29 -169c-2.66699 -17.333 -4 -30 -4 -38
c0 -34.667 9.5 -62.334 28.5 -83.001s45.5 -31 79.5 -31c41.333 0 76.833 14 106.5 42s48.5 64.667 56.5 110l30 169h273l35 199h-702l6 35h893z" />
    <glyph glyph-name="dvJHA" unicode="&#x91d;" horiz-adv-x="844" 
d="M935 705l-151.002 -0.000976562l-125 -705h-40l51 285l-243 1c20 -10 35.667 -24 47 -42s17 -39.333 17 -64c0 -10 -1 -20.667 -3 -32c-8 -43.333 -29.333 -79.166 -64 -107.499s-81 -42.5 -139 -42.5c-38 0 -69.833 6.33301 -95.5 19s-44.667 27 -57 43
s-20.166 30.333 -23.499 43l-32 -176h-39l45 245h36c-1.33301 -40 11.834 -73.667 39.501 -101s69.167 -41 124.5 -41c37.333 0 68.833 7 94.5 21s44.667 32.167 57 54.5s18.5 46.5 18.5 72.5c0 34 -12.833 60.5 -38.5 79.5s-62.834 28.5 -111.501 28.5h-48
c-43.333 0 -78.666 9.16699 -105.999 27.5s-41 45.5 -41 81.5c0 8 1 17 3 27c8 48.667 31.5 83.5 70.5 104.5s84.167 31.5 135.5 31.5h145l27 147h-455l6 35h901zM743.998 704.999h-215.999l-27 -147h1l-6 -32h-172c-42 0 -79.667 -7.66699 -113 -23s-53.333 -43 -60 -83
c-1.33301 -9.33301 -2 -16.333 -2 -21c0 -28 11.167 -48.667 33.5 -62s51.166 -20 86.499 -20h45h361z" />
    <glyph glyph-name="dvNYA" unicode="&#x91e;" horiz-adv-x="795" 
d="M886 705h-151.999l-123 -705h-41l58 328h-121c-8.66699 -40 -24.5 -76.5 -47.5 -109.5s-52.5 -59.333 -88.5 -79s-76.667 -29.5 -122 -29.5c-42 0 -76.833 7.83301 -104.5 23.5s-48 35.667 -61 60s-20.167 50.166 -21.5 77.499h39c2.66699 -34 16.334 -63.333 41.001 -88
s61.667 -37 111 -37c59.333 0 108.333 19 147 57s62.667 85 72 141c2.66699 13.333 4 27.666 4 42.999c0 44.667 -12.833 81.167 -38.5 109.5s-63.834 42.5 -114.501 42.5c-50 0 -91.833 -12.667 -125.5 -38s-57.5 -54.666 -71.5 -87.999h-39
c16 44.667 44.833 82.834 86.5 114.501s93.5 47.5 155.5 47.5c61.333 0 107.666 -17.167 138.999 -51.5s47 -77.833 47 -130.5c0 -6 -0.666992 -15.667 -2 -29h121l60 341h-667l6 35h859z" />
    <glyph glyph-name="dvTTA" unicode="&#x91f;" horiz-adv-x="648" 
d="M203 473.5c-53.333 -38.333 -86.333 -94.166 -99 -167.499c-2.66699 -12.667 -4 -26.334 -4 -41.001c0 -51.333 17.667 -93 53 -125s81.333 -48 138 -48c42.667 0 82 9.33301 118 28s65.667 44.834 89 78.501s38.666 72.167 45.999 115.5h39
c-8.66699 -50.667 -26.5 -95.5 -53.5 -134.5s-61.5 -69.333 -103.5 -91s-89 -32.5 -141 -32.5c-44 0 -83.167 8.5 -117.5 25.5s-61 41 -80 72s-28.5 66.833 -28.5 107.5c0 17.333 1.33301 33 4 47c15.333 85.333 53.333 149.666 114 192.999s134 65 220 65h42l25 139h-442
l7 35h716l-6 -35h-235l-32 -174h-79c-73.333 0 -136.666 -19.167 -189.999 -57.5z" />
    <glyph glyph-name="dvTTHA" unicode="&#x920;" horiz-adv-x="674" 
d="M413 705l-27.001 -149.999c38.667 -2.66699 73.334 -12.834 104.001 -30.501s54.5 -41.667 71.5 -72s25.5 -64.5 25.5 -102.5c0 -13.333 -1.66699 -29.333 -5 -48c-8.66699 -48 -27.5 -90.667 -56.5 -128s-64.833 -66.166 -107.5 -86.499s-88.667 -30.5 -138 -30.5
c-42.667 0 -80.667 8.66699 -114 26s-59.333 41.666 -78 72.999s-28 67.333 -28 108c0 17.333 1.33301 33 4 47c8.66699 46.667 26.5 88 53.5 124s60.333 64.5 100 85.5s82.5 32.5 128.5 34.5l27 150h-351l6 35h743l-6 -35h-352zM545.999 345.001
c0 52 -16.998 94.1689 -50.998 126.502s-78.667 48.5 -134 48.5c-40.667 0 -79.167 -8.83301 -115.5 -26.5s-67 -42.334 -92 -74.001s-41.167 -68.167 -48.5 -109.5c-2.66699 -13.333 -4 -27.333 -4 -42c0 -34 7.66699 -64.333 23 -91s37 -47.334 65 -62.001s60 -22 96 -22
c40.667 0 79.167 8.83301 115.5 26.5s67.166 42.5 92.499 74.5s41.666 68.333 48.999 109c2.66699 12.667 4 26.667 4 42z" />
    </font>
</defs>
</svg>
